<?xml version="1.0" encoding="utf-8" standalone="no"?>
<!DOCTYPE svg PUBLIC "-//W3C//DTD SVG 1.1//EN"
  "http://www.w3.org/Graphics/SVG/1.1/DTD/svg11.dtd">
<svg xmlns:xlink="http://www.w3.org/1999/xlink" width="1996.26388pt" height="1996.26388pt" viewBox="0 0 1996.26388 1996.26388" xmlns="http://www.w3.org/2000/svg" version="1.1">
 <metadata>
  <rdf:RDF xmlns:dc="http://purl.org/dc/elements/1.1/" xmlns:cc="http://creativecommons.org/ns#" xmlns:rdf="http://www.w3.org/1999/02/22-rdf-syntax-ns#">
   <cc:Work>
    <dc:type rdf:resource="http://purl.org/dc/dcmitype/StillImage"/>
    <dc:date>2025-08-28T19:19:12.863067</dc:date>
    <dc:format>image/svg+xml</dc:format>
    <dc:creator>
     <cc:Agent>
      <dc:title>Matplotlib v3.10.5, https://matplotlib.org/</dc:title>
     </cc:Agent>
    </dc:creator>
   </cc:Work>
  </rdf:RDF>
 </metadata>
 <defs>
  <style type="text/css">*{stroke-linejoin: round; stroke-linecap: butt}</style>
 </defs>
 <g id="figure_1">
  <g id="patch_1">
   <path d="M 0 1996.26388 
L 1996.26388 1996.26388 
L 1996.26388 0 
L 0 0 
z
" style="fill: #ffffff"/>
  </g>
  <g id="axes_1">
   <g id="patch_2">
    <path d="M 600 1396.26388 
L 1396.26388 1396.26388 
L 1396.26388 600 
L 600 600 
z
" style="fill: #ffffff"/>
   </g>
   <g id="LineCollection_1">
    <path d="M 708.12239 969.415136 
L 760.638524 1038.986454 
" clip-path="url(#p862ebe6f0e)" style="fill: none; stroke: #000000; stroke-opacity: 0.02; stroke-width: 2"/>
    <path d="M 1139.465176 1057.278513 
L 1136.566453 1147.098255 
" clip-path="url(#p862ebe6f0e)" style="fill: none; stroke: #000000; stroke-opacity: 0.02; stroke-width: 2"/>
    <path d="M 1139.465176 1057.278513 
L 1039.913343 1096.489895 
" clip-path="url(#p862ebe6f0e)" style="fill: none; stroke: #000000; stroke-opacity: 0.02; stroke-width: 2"/>
    <path d="M 1139.465176 1057.278513 
L 1079.820083 1165.62954 
" clip-path="url(#p862ebe6f0e)" style="fill: none; stroke: #000000; stroke-opacity: 0.02"/>
    <path d="M 1139.465176 1057.278513 
L 1232.557675 831.127782 
" clip-path="url(#p862ebe6f0e)" style="fill: none; stroke: #000000; stroke-opacity: 0.02"/>
    <path d="M 1139.465176 1057.278513 
L 1207.922754 1206.141272 
" clip-path="url(#p862ebe6f0e)" style="fill: none; stroke: #000000; stroke-opacity: 0.02"/>
    <path d="M 1136.566453 1147.098255 
L 1039.913343 1096.489895 
" clip-path="url(#p862ebe6f0e)" style="fill: none; stroke: #000000; stroke-opacity: 0.02"/>
    <path d="M 1136.566453 1147.098255 
L 1207.922754 1206.141272 
" clip-path="url(#p862ebe6f0e)" style="fill: none; stroke: #000000; stroke-opacity: 0.02"/>
    <path d="M 1276.691483 1327.166601 
L 1207.922754 1206.141272 
" clip-path="url(#p862ebe6f0e)" style="fill: none; stroke: #000000; stroke-opacity: 0.02"/>
    <path d="M 1232.557675 831.127782 
L 1259.079718 669.097279 
" clip-path="url(#p862ebe6f0e)" style="fill: none; stroke: #000000; stroke-opacity: 0.02"/>
    <path d="M 1232.557675 831.127782 
L 1187.828581 695.095895 
" clip-path="url(#p862ebe6f0e)" style="fill: none; stroke: #000000; stroke-opacity: 0.02"/>
    <path d="M 1232.557675 831.127782 
L 1317.797896 736.79372 
" clip-path="url(#p862ebe6f0e)" style="fill: none; stroke: #000000; stroke-opacity: 0.02"/>
    <path d="M 1232.557675 831.127782 
L 1327.166601 856.020871 
" clip-path="url(#p862ebe6f0e)" style="fill: none; stroke: #000000; stroke-opacity: 0.02"/>
    <path d="M 1079.820083 1165.62954 
L 1039.913343 1096.489895 
" clip-path="url(#p862ebe6f0e)" style="fill: none; stroke: #000000; stroke-opacity: 0.02"/>
    <path d="M 760.638524 1038.986454 
L 669.097279 1087.826245 
" clip-path="url(#p862ebe6f0e)" style="fill: none; stroke: #000000; stroke-opacity: 0.02"/>
    <path d="M 760.638524 1038.986454 
L 893.383222 1076.489311 
" clip-path="url(#p862ebe6f0e)" style="fill: none; stroke: #000000; stroke-opacity: 0.02"/>
    <path d="M 949.527936 1132.685715 
L 1039.913343 1096.489895 
" clip-path="url(#p862ebe6f0e)" style="fill: none; stroke: #000000; stroke-opacity: 0.02"/>
    <path d="M 949.527936 1132.685715 
L 893.383222 1076.489311 
" clip-path="url(#p862ebe6f0e)" style="fill: none; stroke: #000000; stroke-opacity: 0.02"/>
    <path d="M 1039.913343 1096.489895 
L 893.383222 1076.489311 
" clip-path="url(#p862ebe6f0e)" style="fill: none; stroke: #000000; stroke-opacity: 0.02"/>
   </g>
   <g id="matplotlib.axis_1">
    <g id="xtick_1"/>
    <g id="xtick_2"/>
    <g id="xtick_3"/>
    <g id="xtick_4"/>
    <g id="xtick_5"/>
    <g id="xtick_6"/>
    <g id="xtick_7"/>
    <g id="xtick_8"/>
   </g>
   <g id="matplotlib.axis_2">
    <g id="ytick_1"/>
    <g id="ytick_2"/>
    <g id="ytick_3"/>
    <g id="ytick_4"/>
    <g id="ytick_5"/>
    <g id="ytick_6"/>
   </g>
   <g id="PathCollection_1">
    <path d="M 708.12239 973.887272 
C 709.308414 973.887272 710.446022 973.41606 711.284668 972.577414 
C 712.123314 971.738768 712.594526 970.601161 712.594526 969.415136 
C 712.594526 968.229112 712.123314 967.091504 711.284668 966.252859 
C 710.446022 965.414213 709.308414 964.943 708.12239 964.943 
C 706.936366 964.943 705.798758 965.414213 704.960112 966.252859 
C 704.121467 967.091504 703.650254 968.229112 703.650254 969.415136 
C 703.650254 970.601161 704.121467 971.738768 704.960112 972.577414 
C 705.798758 973.41606 706.936366 973.887272 708.12239 973.887272 
z
" clip-path="url(#p862ebe6f0e)" style="fill: #ff0066; fill-opacity: 0.6; stroke: #ff0066; stroke-opacity: 0.6"/>
    <path d="M 1139.465176 1063.603069 
C 1141.142468 1063.603069 1142.751288 1062.936673 1143.937312 1061.750649 
C 1145.123336 1060.564625 1145.789731 1058.955805 1145.789731 1057.278513 
C 1145.789731 1055.601222 1145.123336 1053.992402 1143.937312 1052.806377 
C 1142.751288 1051.620353 1141.142468 1050.953958 1139.465176 1050.953958 
C 1137.787884 1050.953958 1136.179064 1051.620353 1134.99304 1052.806377 
C 1133.807016 1053.992402 1133.140621 1055.601222 1133.140621 1057.278513 
C 1133.140621 1058.955805 1133.807016 1060.564625 1134.99304 1061.750649 
C 1136.179064 1062.936673 1137.787884 1063.603069 1139.465176 1063.603069 
z
" clip-path="url(#p862ebe6f0e)" style="fill: #0000ff; fill-opacity: 0.6; stroke: #0000ff; stroke-opacity: 0.6"/>
    <path d="M 1136.566453 1152.098255 
C 1137.892469 1152.098255 1139.164353 1151.571423 1140.101987 1150.633789 
C 1141.039622 1149.696154 1141.566453 1148.42427 1141.566453 1147.098255 
C 1141.566453 1145.772239 1141.039622 1144.500355 1140.101987 1143.562721 
C 1139.164353 1142.625086 1137.892469 1142.098255 1136.566453 1142.098255 
C 1135.240438 1142.098255 1133.968554 1142.625086 1133.030919 1143.562721 
C 1132.093285 1144.500355 1131.566453 1145.772239 1131.566453 1147.098255 
C 1131.566453 1148.42427 1132.093285 1149.696154 1133.030919 1150.633789 
C 1133.968554 1151.571423 1135.240438 1152.098255 1136.566453 1152.098255 
z
" clip-path="url(#p862ebe6f0e)" style="fill: #0000ff; fill-opacity: 0.6; stroke: #0000ff; stroke-opacity: 0.6"/>
    <path d="M 1276.691483 1331.638737 
C 1277.877507 1331.638737 1279.015115 1331.167525 1279.853761 1330.328879 
C 1280.692407 1329.490233 1281.163619 1328.352625 1281.163619 1327.166601 
C 1281.163619 1325.980577 1280.692407 1324.842969 1279.853761 1324.004324 
C 1279.015115 1323.165678 1277.877507 1322.694465 1276.691483 1322.694465 
C 1275.505459 1322.694465 1274.367851 1323.165678 1273.529205 1324.004324 
C 1272.69056 1324.842969 1272.219347 1325.980577 1272.219347 1327.166601 
C 1272.219347 1328.352625 1272.69056 1329.490233 1273.529205 1330.328879 
C 1274.367851 1331.167525 1275.505459 1331.638737 1276.691483 1331.638737 
z
" clip-path="url(#p862ebe6f0e)" style="fill: #0000ff; fill-opacity: 0.6; stroke: #0000ff; stroke-opacity: 0.6"/>
    <path d="M 1232.557675 842.746732 
C 1235.639057 842.746732 1238.594648 841.522486 1240.773514 839.34362 
C 1242.95238 837.164754 1244.176625 834.209163 1244.176625 831.127782 
C 1244.176625 828.0464 1242.95238 825.090809 1240.773514 822.911943 
C 1238.594648 820.733078 1235.639057 819.508832 1232.557675 819.508832 
C 1229.476294 819.508832 1226.520703 820.733078 1224.341837 822.911943 
C 1222.162971 825.090809 1220.938725 828.0464 1220.938725 831.127782 
C 1220.938725 834.209163 1222.162971 837.164754 1224.341837 839.34362 
C 1226.520703 841.522486 1229.476294 842.746732 1232.557675 842.746732 
z
" clip-path="url(#p862ebe6f0e)" style="fill: #ff0066; fill-opacity: 0.6; stroke: #ff0066; stroke-opacity: 0.6"/>
    <path d="M 1079.820083 1169.502523 
C 1080.84721 1169.502523 1081.832407 1169.094441 1082.558696 1168.368153 
C 1083.284984 1167.641864 1083.693066 1166.656667 1083.693066 1165.62954 
C 1083.693066 1164.602413 1083.284984 1163.617216 1082.558696 1162.890927 
C 1081.832407 1162.164639 1080.84721 1161.756557 1079.820083 1161.756557 
C 1078.792956 1161.756557 1077.807759 1162.164639 1077.08147 1162.890927 
C 1076.355181 1163.617216 1075.947099 1164.602413 1075.947099 1165.62954 
C 1075.947099 1166.656667 1076.355181 1167.641864 1077.08147 1168.368153 
C 1077.807759 1169.094441 1078.792956 1169.502523 1079.820083 1169.502523 
z
" clip-path="url(#p862ebe6f0e)" style="fill: #0000ff; fill-opacity: 0.6; stroke: #0000ff; stroke-opacity: 0.6"/>
    <path d="M 1327.166601 861.498097 
C 1328.619178 861.498097 1330.012457 860.920982 1331.039585 859.893855 
C 1332.066712 858.866728 1332.643827 857.473449 1332.643827 856.020871 
C 1332.643827 854.568294 1332.066712 853.175015 1331.039585 852.147888 
C 1330.012457 851.120761 1328.619178 850.543646 1327.166601 850.543646 
C 1325.714024 850.543646 1324.320745 851.120761 1323.293618 852.147888 
C 1322.266491 853.175015 1321.689376 854.568294 1321.689376 856.020871 
C 1321.689376 857.473449 1322.266491 858.866728 1323.293618 859.893855 
C 1324.320745 860.920982 1325.714024 861.498097 1327.166601 861.498097 
z
" clip-path="url(#p862ebe6f0e)" style="fill: #0000ff; fill-opacity: 0.6; stroke: #0000ff; stroke-opacity: 0.6"/>
    <path d="M 760.638524 1043.986454 
C 761.96454 1043.986454 763.236423 1043.459622 764.174058 1042.521988 
C 765.111693 1041.584353 765.638524 1040.312469 765.638524 1038.986454 
C 765.638524 1037.660438 765.111693 1036.388554 764.174058 1035.45092 
C 763.236423 1034.513285 761.96454 1033.986454 760.638524 1033.986454 
C 759.312509 1033.986454 758.040625 1034.513285 757.10299 1035.45092 
C 756.165356 1036.388554 755.638524 1037.660438 755.638524 1038.986454 
C 755.638524 1040.312469 756.165356 1041.584353 757.10299 1042.521988 
C 758.040625 1043.459622 759.312509 1043.986454 760.638524 1043.986454 
z
" clip-path="url(#p862ebe6f0e)" style="fill: #ff0066; fill-opacity: 0.6; stroke: #ff0066; stroke-opacity: 0.6"/>
    <path d="M 1259.079718 674.097279 
C 1260.405734 674.097279 1261.677618 673.570447 1262.615252 672.632813 
C 1263.552887 671.695178 1264.079718 670.423294 1264.079718 669.097279 
C 1264.079718 667.771263 1263.552887 666.499379 1262.615252 665.561745 
C 1261.677618 664.62411 1260.405734 664.097279 1259.079718 664.097279 
C 1257.753703 664.097279 1256.481819 664.62411 1255.544184 665.561745 
C 1254.60655 666.499379 1254.079718 667.771263 1254.079718 669.097279 
C 1254.079718 670.423294 1254.60655 671.695178 1255.544184 672.632813 
C 1256.481819 673.570447 1257.753703 674.097279 1259.079718 674.097279 
z
" clip-path="url(#p862ebe6f0e)" style="fill: #0000ff; fill-opacity: 0.6; stroke: #0000ff; stroke-opacity: 0.6"/>
    <path d="M 669.097279 1090.062313 
C 669.690291 1090.062313 670.259095 1089.826707 670.678418 1089.407384 
C 671.097741 1088.988061 671.333347 1088.419257 671.333347 1087.826245 
C 671.333347 1087.233233 671.097741 1086.664429 670.678418 1086.245106 
C 670.259095 1085.825783 669.690291 1085.590177 669.097279 1085.590177 
C 668.504267 1085.590177 667.935463 1085.825783 667.51614 1086.245106 
C 667.096817 1086.664429 666.861211 1087.233233 666.861211 1087.826245 
C 666.861211 1088.419257 667.096817 1088.988061 667.51614 1089.407384 
C 667.935463 1089.826707 668.504267 1090.062313 669.097279 1090.062313 
z
" clip-path="url(#p862ebe6f0e)" style="fill: #ff0066; fill-opacity: 0.6; stroke: #ff0066; stroke-opacity: 0.6"/>
    <path d="M 1207.922754 1212.057351 
C 1209.491717 1212.057351 1210.99663 1211.433996 1212.106054 1210.324572 
C 1213.215478 1209.215148 1213.838834 1207.710234 1213.838834 1206.141272 
C 1213.838834 1204.572309 1213.215478 1203.067396 1212.106054 1201.957971 
C 1210.99663 1200.848547 1209.491717 1200.225192 1207.922754 1200.225192 
C 1206.353791 1200.225192 1204.848878 1200.848547 1203.739454 1201.957971 
C 1202.63003 1203.067396 1202.006674 1204.572309 1202.006674 1206.141272 
C 1202.006674 1207.710234 1202.63003 1209.215148 1203.739454 1210.324572 
C 1204.848878 1211.433996 1206.353791 1212.057351 1207.922754 1212.057351 
z
" clip-path="url(#p862ebe6f0e)" style="fill: #0000ff; fill-opacity: 0.6; stroke: #0000ff; stroke-opacity: 0.6"/>
    <path d="M 1317.797896 744.539687 
C 1319.85215 744.539687 1321.822544 743.723523 1323.275121 742.270946 
C 1324.727698 740.818369 1325.543862 738.847975 1325.543862 736.79372 
C 1325.543862 734.739466 1324.727698 732.769072 1323.275121 731.316495 
C 1321.822544 729.863918 1319.85215 729.047754 1317.797896 729.047754 
C 1315.743641 729.047754 1313.773247 729.863918 1312.32067 731.316495 
C 1310.868093 732.769072 1310.051929 734.739466 1310.051929 736.79372 
C 1310.051929 738.847975 1310.868093 740.818369 1312.32067 742.270946 
C 1313.773247 743.723523 1315.743641 744.539687 1317.797896 744.539687 
z
" clip-path="url(#p862ebe6f0e)" style="fill: #0000ff; fill-opacity: 0.6; stroke: #0000ff; stroke-opacity: 0.6"/>
    <path d="M 949.527936 1135.847993 
C 950.366582 1135.847993 951.170992 1135.514795 951.764004 1134.921783 
C 952.357016 1134.328771 952.690214 1133.524361 952.690214 1132.685715 
C 952.690214 1131.847069 952.357016 1131.042659 951.764004 1130.449647 
C 951.170992 1129.856635 950.366582 1129.523437 949.527936 1129.523437 
C 948.68929 1129.523437 947.88488 1129.856635 947.291868 1130.449647 
C 946.698856 1131.042659 946.365658 1131.847069 946.365658 1132.685715 
C 946.365658 1133.524361 946.698856 1134.328771 947.291868 1134.921783 
C 947.88488 1135.514795 948.68929 1135.847993 949.527936 1135.847993 
z
" clip-path="url(#p862ebe6f0e)" style="fill: #0000ff; fill-opacity: 0.6; stroke: #0000ff; stroke-opacity: 0.6"/>
    <path d="M 1039.913343 1101.489895 
C 1041.239359 1101.489895 1042.511242 1100.963063 1043.448877 1100.025429 
C 1044.386511 1099.087794 1044.913343 1097.81591 1044.913343 1096.489895 
C 1044.913343 1095.163879 1044.386511 1093.891995 1043.448877 1092.954361 
C 1042.511242 1092.016726 1041.239359 1091.489895 1039.913343 1091.489895 
C 1038.587328 1091.489895 1037.315444 1092.016726 1036.377809 1092.954361 
C 1035.440175 1093.891995 1034.913343 1095.163879 1034.913343 1096.489895 
C 1034.913343 1097.81591 1035.440175 1099.087794 1036.377809 1100.025429 
C 1037.315444 1100.963063 1038.587328 1101.489895 1039.913343 1101.489895 
z
" clip-path="url(#p862ebe6f0e)" style="fill: #0000ff; fill-opacity: 0.6; stroke: #0000ff; stroke-opacity: 0.6"/>
    <path d="M 893.383222 1080.961447 
C 894.569246 1080.961447 895.706853 1080.490235 896.545499 1079.651589 
C 897.384145 1078.812943 897.855357 1077.675335 897.855357 1076.489311 
C 897.855357 1075.303287 897.384145 1074.165679 896.545499 1073.327033 
C 895.706853 1072.488388 894.569246 1072.017175 893.383222 1072.017175 
C 892.197197 1072.017175 891.05959 1072.488388 890.220944 1073.327033 
C 889.382298 1074.165679 888.911086 1075.303287 888.911086 1076.489311 
C 888.911086 1077.675335 889.382298 1078.812943 890.220944 1079.651589 
C 891.05959 1080.490235 892.197197 1080.961447 893.383222 1080.961447 
z
" clip-path="url(#p862ebe6f0e)" style="fill: #ff0066; fill-opacity: 0.6; stroke: #ff0066; stroke-opacity: 0.6"/>
    <path d="M 1187.828581 697.331963 
C 1188.421593 697.331963 1188.990397 697.096356 1189.40972 696.677033 
C 1189.829043 696.257711 1190.064649 695.688907 1190.064649 695.095895 
C 1190.064649 694.502882 1189.829043 693.934079 1189.40972 693.514756 
C 1188.990397 693.095433 1188.421593 692.859827 1187.828581 692.859827 
C 1187.235569 692.859827 1186.666765 693.095433 1186.247442 693.514756 
C 1185.828119 693.934079 1185.592513 694.502882 1185.592513 695.095895 
C 1185.592513 695.688907 1185.828119 696.257711 1186.247442 696.677033 
C 1186.666765 697.096356 1187.235569 697.331963 1187.828581 697.331963 
z
" clip-path="url(#p862ebe6f0e)" style="fill: #ff0066; fill-opacity: 0.6; stroke: #ff0066; stroke-opacity: 0.6"/>
   </g>
   <g id="patch_3">
    <path d="M 600 1396.26388 
L 600 600 
" style="fill: none; stroke: #000000; stroke-width: 0.8; stroke-linejoin: miter; stroke-linecap: square"/>
   </g>
   <g id="patch_4">
    <path d="M 1396.26388 1396.26388 
L 1396.26388 600 
" style="fill: none; stroke: #000000; stroke-width: 0.8; stroke-linejoin: miter; stroke-linecap: square"/>
   </g>
   <g id="patch_5">
    <path d="M 600 1396.26388 
L 1396.26388 1396.26388 
" style="fill: none; stroke: #000000; stroke-width: 0.8; stroke-linejoin: miter; stroke-linecap: square"/>
   </g>
   <g id="patch_6">
    <path d="M 600 600 
L 1396.26388 600 
" style="fill: none; stroke: #000000; stroke-width: 0.8; stroke-linejoin: miter; stroke-linecap: square"/>
   </g>
   <g id="text_1">
    <g clip-path="url(#p862ebe6f0e)">
     <!-- Faculty of Law, German University in Prague -->
     <g style="opacity: 0.7" transform="translate(597.262234 972.174511) scale(0.1 -0.1)">
      <defs>
       <path id="DejaVuSans-46" d="M 628 4666 
L 3309 4666 
L 3309 4134 
L 1259 4134 
L 1259 2759 
L 3109 2759 
L 3109 2228 
L 1259 2228 
L 1259 0 
L 628 0 
L 628 4666 
z
" transform="scale(0.015625)"/>
       <path id="DejaVuSans-61" d="M 2194 1759 
Q 1497 1759 1228 1600 
Q 959 1441 959 1056 
Q 959 750 1161 570 
Q 1363 391 1709 391 
Q 2188 391 2477 730 
Q 2766 1069 2766 1631 
L 2766 1759 
L 2194 1759 
z
M 3341 1997 
L 3341 0 
L 2766 0 
L 2766 531 
Q 2569 213 2275 61 
Q 1981 -91 1556 -91 
Q 1019 -91 701 211 
Q 384 513 384 1019 
Q 384 1609 779 1909 
Q 1175 2209 1959 2209 
L 2766 2209 
L 2766 2266 
Q 2766 2663 2505 2880 
Q 2244 3097 1772 3097 
Q 1472 3097 1187 3025 
Q 903 2953 641 2809 
L 641 3341 
Q 956 3463 1253 3523 
Q 1550 3584 1831 3584 
Q 2591 3584 2966 3190 
Q 3341 2797 3341 1997 
z
" transform="scale(0.015625)"/>
       <path id="DejaVuSans-63" d="M 3122 3366 
L 3122 2828 
Q 2878 2963 2633 3030 
Q 2388 3097 2138 3097 
Q 1578 3097 1268 2742 
Q 959 2388 959 1747 
Q 959 1106 1268 751 
Q 1578 397 2138 397 
Q 2388 397 2633 464 
Q 2878 531 3122 666 
L 3122 134 
Q 2881 22 2623 -34 
Q 2366 -91 2075 -91 
Q 1284 -91 818 406 
Q 353 903 353 1747 
Q 353 2603 823 3093 
Q 1294 3584 2113 3584 
Q 2378 3584 2631 3529 
Q 2884 3475 3122 3366 
z
" transform="scale(0.015625)"/>
       <path id="DejaVuSans-75" d="M 544 1381 
L 544 3500 
L 1119 3500 
L 1119 1403 
Q 1119 906 1312 657 
Q 1506 409 1894 409 
Q 2359 409 2629 706 
Q 2900 1003 2900 1516 
L 2900 3500 
L 3475 3500 
L 3475 0 
L 2900 0 
L 2900 538 
Q 2691 219 2414 64 
Q 2138 -91 1772 -91 
Q 1169 -91 856 284 
Q 544 659 544 1381 
z
M 1991 3584 
L 1991 3584 
z
" transform="scale(0.015625)"/>
       <path id="DejaVuSans-6c" d="M 603 4863 
L 1178 4863 
L 1178 0 
L 603 0 
L 603 4863 
z
" transform="scale(0.015625)"/>
       <path id="DejaVuSans-74" d="M 1172 4494 
L 1172 3500 
L 2356 3500 
L 2356 3053 
L 1172 3053 
L 1172 1153 
Q 1172 725 1289 603 
Q 1406 481 1766 481 
L 2356 481 
L 2356 0 
L 1766 0 
Q 1100 0 847 248 
Q 594 497 594 1153 
L 594 3053 
L 172 3053 
L 172 3500 
L 594 3500 
L 594 4494 
L 1172 4494 
z
" transform="scale(0.015625)"/>
       <path id="DejaVuSans-79" d="M 2059 -325 
Q 1816 -950 1584 -1140 
Q 1353 -1331 966 -1331 
L 506 -1331 
L 506 -850 
L 844 -850 
Q 1081 -850 1212 -737 
Q 1344 -625 1503 -206 
L 1606 56 
L 191 3500 
L 800 3500 
L 1894 763 
L 2988 3500 
L 3597 3500 
L 2059 -325 
z
" transform="scale(0.015625)"/>
       <path id="DejaVuSans-20" transform="scale(0.015625)"/>
       <path id="DejaVuSans-6f" d="M 1959 3097 
Q 1497 3097 1228 2736 
Q 959 2375 959 1747 
Q 959 1119 1226 758 
Q 1494 397 1959 397 
Q 2419 397 2687 759 
Q 2956 1122 2956 1747 
Q 2956 2369 2687 2733 
Q 2419 3097 1959 3097 
z
M 1959 3584 
Q 2709 3584 3137 3096 
Q 3566 2609 3566 1747 
Q 3566 888 3137 398 
Q 2709 -91 1959 -91 
Q 1206 -91 779 398 
Q 353 888 353 1747 
Q 353 2609 779 3096 
Q 1206 3584 1959 3584 
z
" transform="scale(0.015625)"/>
       <path id="DejaVuSans-66" d="M 2375 4863 
L 2375 4384 
L 1825 4384 
Q 1516 4384 1395 4259 
Q 1275 4134 1275 3809 
L 1275 3500 
L 2222 3500 
L 2222 3053 
L 1275 3053 
L 1275 0 
L 697 0 
L 697 3053 
L 147 3053 
L 147 3500 
L 697 3500 
L 697 3744 
Q 697 4328 969 4595 
Q 1241 4863 1831 4863 
L 2375 4863 
z
" transform="scale(0.015625)"/>
       <path id="DejaVuSans-4c" d="M 628 4666 
L 1259 4666 
L 1259 531 
L 3531 531 
L 3531 0 
L 628 0 
L 628 4666 
z
" transform="scale(0.015625)"/>
       <path id="DejaVuSans-77" d="M 269 3500 
L 844 3500 
L 1563 769 
L 2278 3500 
L 2956 3500 
L 3675 769 
L 4391 3500 
L 4966 3500 
L 4050 0 
L 3372 0 
L 2619 2869 
L 1863 0 
L 1184 0 
L 269 3500 
z
" transform="scale(0.015625)"/>
       <path id="DejaVuSans-2c" d="M 750 794 
L 1409 794 
L 1409 256 
L 897 -744 
L 494 -744 
L 750 256 
L 750 794 
z
" transform="scale(0.015625)"/>
       <path id="DejaVuSans-47" d="M 3809 666 
L 3809 1919 
L 2778 1919 
L 2778 2438 
L 4434 2438 
L 4434 434 
Q 4069 175 3628 42 
Q 3188 -91 2688 -91 
Q 1594 -91 976 548 
Q 359 1188 359 2328 
Q 359 3472 976 4111 
Q 1594 4750 2688 4750 
Q 3144 4750 3555 4637 
Q 3966 4525 4313 4306 
L 4313 3634 
Q 3963 3931 3569 4081 
Q 3175 4231 2741 4231 
Q 1884 4231 1454 3753 
Q 1025 3275 1025 2328 
Q 1025 1384 1454 906 
Q 1884 428 2741 428 
Q 3075 428 3337 486 
Q 3600 544 3809 666 
z
" transform="scale(0.015625)"/>
       <path id="DejaVuSans-65" d="M 3597 1894 
L 3597 1613 
L 953 1613 
Q 991 1019 1311 708 
Q 1631 397 2203 397 
Q 2534 397 2845 478 
Q 3156 559 3463 722 
L 3463 178 
Q 3153 47 2828 -22 
Q 2503 -91 2169 -91 
Q 1331 -91 842 396 
Q 353 884 353 1716 
Q 353 2575 817 3079 
Q 1281 3584 2069 3584 
Q 2775 3584 3186 3129 
Q 3597 2675 3597 1894 
z
M 3022 2063 
Q 3016 2534 2758 2815 
Q 2500 3097 2075 3097 
Q 1594 3097 1305 2825 
Q 1016 2553 972 2059 
L 3022 2063 
z
" transform="scale(0.015625)"/>
       <path id="DejaVuSans-72" d="M 2631 2963 
Q 2534 3019 2420 3045 
Q 2306 3072 2169 3072 
Q 1681 3072 1420 2755 
Q 1159 2438 1159 1844 
L 1159 0 
L 581 0 
L 581 3500 
L 1159 3500 
L 1159 2956 
Q 1341 3275 1631 3429 
Q 1922 3584 2338 3584 
Q 2397 3584 2469 3576 
Q 2541 3569 2628 3553 
L 2631 2963 
z
" transform="scale(0.015625)"/>
       <path id="DejaVuSans-6d" d="M 3328 2828 
Q 3544 3216 3844 3400 
Q 4144 3584 4550 3584 
Q 5097 3584 5394 3201 
Q 5691 2819 5691 2113 
L 5691 0 
L 5113 0 
L 5113 2094 
Q 5113 2597 4934 2840 
Q 4756 3084 4391 3084 
Q 3944 3084 3684 2787 
Q 3425 2491 3425 1978 
L 3425 0 
L 2847 0 
L 2847 2094 
Q 2847 2600 2669 2842 
Q 2491 3084 2119 3084 
Q 1678 3084 1418 2786 
Q 1159 2488 1159 1978 
L 1159 0 
L 581 0 
L 581 3500 
L 1159 3500 
L 1159 2956 
Q 1356 3278 1631 3431 
Q 1906 3584 2284 3584 
Q 2666 3584 2933 3390 
Q 3200 3197 3328 2828 
z
" transform="scale(0.015625)"/>
       <path id="DejaVuSans-6e" d="M 3513 2113 
L 3513 0 
L 2938 0 
L 2938 2094 
Q 2938 2591 2744 2837 
Q 2550 3084 2163 3084 
Q 1697 3084 1428 2787 
Q 1159 2491 1159 1978 
L 1159 0 
L 581 0 
L 581 3500 
L 1159 3500 
L 1159 2956 
Q 1366 3272 1645 3428 
Q 1925 3584 2291 3584 
Q 2894 3584 3203 3211 
Q 3513 2838 3513 2113 
z
" transform="scale(0.015625)"/>
       <path id="DejaVuSans-55" d="M 556 4666 
L 1191 4666 
L 1191 1831 
Q 1191 1081 1462 751 
Q 1734 422 2344 422 
Q 2950 422 3222 751 
Q 3494 1081 3494 1831 
L 3494 4666 
L 4128 4666 
L 4128 1753 
Q 4128 841 3676 375 
Q 3225 -91 2344 -91 
Q 1459 -91 1007 375 
Q 556 841 556 1753 
L 556 4666 
z
" transform="scale(0.015625)"/>
       <path id="DejaVuSans-69" d="M 603 3500 
L 1178 3500 
L 1178 0 
L 603 0 
L 603 3500 
z
M 603 4863 
L 1178 4863 
L 1178 4134 
L 603 4134 
L 603 4863 
z
" transform="scale(0.015625)"/>
       <path id="DejaVuSans-76" d="M 191 3500 
L 800 3500 
L 1894 563 
L 2988 3500 
L 3597 3500 
L 2284 0 
L 1503 0 
L 191 3500 
z
" transform="scale(0.015625)"/>
       <path id="DejaVuSans-73" d="M 2834 3397 
L 2834 2853 
Q 2591 2978 2328 3040 
Q 2066 3103 1784 3103 
Q 1356 3103 1142 2972 
Q 928 2841 928 2578 
Q 928 2378 1081 2264 
Q 1234 2150 1697 2047 
L 1894 2003 
Q 2506 1872 2764 1633 
Q 3022 1394 3022 966 
Q 3022 478 2636 193 
Q 2250 -91 1575 -91 
Q 1294 -91 989 -36 
Q 684 19 347 128 
L 347 722 
Q 666 556 975 473 
Q 1284 391 1588 391 
Q 1994 391 2212 530 
Q 2431 669 2431 922 
Q 2431 1156 2273 1281 
Q 2116 1406 1581 1522 
L 1381 1569 
Q 847 1681 609 1914 
Q 372 2147 372 2553 
Q 372 3047 722 3315 
Q 1072 3584 1716 3584 
Q 2034 3584 2315 3537 
Q 2597 3491 2834 3397 
z
" transform="scale(0.015625)"/>
       <path id="DejaVuSans-50" d="M 1259 4147 
L 1259 2394 
L 2053 2394 
Q 2494 2394 2734 2622 
Q 2975 2850 2975 3272 
Q 2975 3691 2734 3919 
Q 2494 4147 2053 4147 
L 1259 4147 
z
M 628 4666 
L 2053 4666 
Q 2838 4666 3239 4311 
Q 3641 3956 3641 3272 
Q 3641 2581 3239 2228 
Q 2838 1875 2053 1875 
L 1259 1875 
L 1259 0 
L 628 0 
L 628 4666 
z
" transform="scale(0.015625)"/>
       <path id="DejaVuSans-67" d="M 2906 1791 
Q 2906 2416 2648 2759 
Q 2391 3103 1925 3103 
Q 1463 3103 1205 2759 
Q 947 2416 947 1791 
Q 947 1169 1205 825 
Q 1463 481 1925 481 
Q 2391 481 2648 825 
Q 2906 1169 2906 1791 
z
M 3481 434 
Q 3481 -459 3084 -895 
Q 2688 -1331 1869 -1331 
Q 1566 -1331 1297 -1286 
Q 1028 -1241 775 -1147 
L 775 -588 
Q 1028 -725 1275 -790 
Q 1522 -856 1778 -856 
Q 2344 -856 2625 -561 
Q 2906 -266 2906 331 
L 2906 616 
Q 2728 306 2450 153 
Q 2172 0 1784 0 
Q 1141 0 747 490 
Q 353 981 353 1791 
Q 353 2603 747 3093 
Q 1141 3584 1784 3584 
Q 2172 3584 2450 3431 
Q 2728 3278 2906 2969 
L 2906 3500 
L 3481 3500 
L 3481 434 
z
" transform="scale(0.015625)"/>
      </defs>
      <use xlink:href="#DejaVuSans-46"/>
      <use xlink:href="#DejaVuSans-61" transform="translate(48.394531 0)"/>
      <use xlink:href="#DejaVuSans-63" transform="translate(109.673828 0)"/>
      <use xlink:href="#DejaVuSans-75" transform="translate(164.654297 0)"/>
      <use xlink:href="#DejaVuSans-6c" transform="translate(228.033203 0)"/>
      <use xlink:href="#DejaVuSans-74" transform="translate(255.816406 0)"/>
      <use xlink:href="#DejaVuSans-79" transform="translate(295.025391 0)"/>
      <use xlink:href="#DejaVuSans-20" transform="translate(354.205078 0)"/>
      <use xlink:href="#DejaVuSans-6f" transform="translate(385.992188 0)"/>
      <use xlink:href="#DejaVuSans-66" transform="translate(447.173828 0)"/>
      <use xlink:href="#DejaVuSans-20" transform="translate(482.378906 0)"/>
      <use xlink:href="#DejaVuSans-4c" transform="translate(514.166016 0)"/>
      <use xlink:href="#DejaVuSans-61" transform="translate(569.878906 0)"/>
      <use xlink:href="#DejaVuSans-77" transform="translate(631.158203 0)"/>
      <use xlink:href="#DejaVuSans-2c" transform="translate(712.945312 0)"/>
      <use xlink:href="#DejaVuSans-20" transform="translate(744.732422 0)"/>
      <use xlink:href="#DejaVuSans-47" transform="translate(776.519531 0)"/>
      <use xlink:href="#DejaVuSans-65" transform="translate(854.009766 0)"/>
      <use xlink:href="#DejaVuSans-72" transform="translate(915.533203 0)"/>
      <use xlink:href="#DejaVuSans-6d" transform="translate(954.896484 0)"/>
      <use xlink:href="#DejaVuSans-61" transform="translate(1052.308594 0)"/>
      <use xlink:href="#DejaVuSans-6e" transform="translate(1113.587891 0)"/>
      <use xlink:href="#DejaVuSans-20" transform="translate(1176.966797 0)"/>
      <use xlink:href="#DejaVuSans-55" transform="translate(1208.753906 0)"/>
      <use xlink:href="#DejaVuSans-6e" transform="translate(1281.947266 0)"/>
      <use xlink:href="#DejaVuSans-69" transform="translate(1345.326172 0)"/>
      <use xlink:href="#DejaVuSans-76" transform="translate(1373.109375 0)"/>
      <use xlink:href="#DejaVuSans-65" transform="translate(1432.289062 0)"/>
      <use xlink:href="#DejaVuSans-72" transform="translate(1493.8125 0)"/>
      <use xlink:href="#DejaVuSans-73" transform="translate(1534.925781 0)"/>
      <use xlink:href="#DejaVuSans-69" transform="translate(1587.025391 0)"/>
      <use xlink:href="#DejaVuSans-74" transform="translate(1614.808594 0)"/>
      <use xlink:href="#DejaVuSans-79" transform="translate(1654.017578 0)"/>
      <use xlink:href="#DejaVuSans-20" transform="translate(1713.197266 0)"/>
      <use xlink:href="#DejaVuSans-69" transform="translate(1744.984375 0)"/>
      <use xlink:href="#DejaVuSans-6e" transform="translate(1772.767578 0)"/>
      <use xlink:href="#DejaVuSans-20" transform="translate(1836.146484 0)"/>
      <use xlink:href="#DejaVuSans-50" transform="translate(1867.933594 0)"/>
      <use xlink:href="#DejaVuSans-72" transform="translate(1926.486328 0)"/>
      <use xlink:href="#DejaVuSans-61" transform="translate(1967.599609 0)"/>
      <use xlink:href="#DejaVuSans-67" transform="translate(2028.878906 0)"/>
      <use xlink:href="#DejaVuSans-75" transform="translate(2092.355469 0)"/>
      <use xlink:href="#DejaVuSans-65" transform="translate(2155.734375 0)"/>
     </g>
    </g>
   </g>
   <g id="text_2">
    <g clip-path="url(#p862ebe6f0e)">
     <!-- Leipzig University -->
     <g style="opacity: 0.7" transform="translate(1095.128457 1060.037888) scale(0.1 -0.1)">
      <defs>
       <path id="DejaVuSans-70" d="M 1159 525 
L 1159 -1331 
L 581 -1331 
L 581 3500 
L 1159 3500 
L 1159 2969 
Q 1341 3281 1617 3432 
Q 1894 3584 2278 3584 
Q 2916 3584 3314 3078 
Q 3713 2572 3713 1747 
Q 3713 922 3314 415 
Q 2916 -91 2278 -91 
Q 1894 -91 1617 61 
Q 1341 213 1159 525 
z
M 3116 1747 
Q 3116 2381 2855 2742 
Q 2594 3103 2138 3103 
Q 1681 3103 1420 2742 
Q 1159 2381 1159 1747 
Q 1159 1113 1420 752 
Q 1681 391 2138 391 
Q 2594 391 2855 752 
Q 3116 1113 3116 1747 
z
" transform="scale(0.015625)"/>
       <path id="DejaVuSans-7a" d="M 353 3500 
L 3084 3500 
L 3084 2975 
L 922 459 
L 3084 459 
L 3084 0 
L 275 0 
L 275 525 
L 2438 3041 
L 353 3041 
L 353 3500 
z
" transform="scale(0.015625)"/>
      </defs>
      <use xlink:href="#DejaVuSans-4c"/>
      <use xlink:href="#DejaVuSans-65" transform="translate(53.962891 0)"/>
      <use xlink:href="#DejaVuSans-69" transform="translate(115.486328 0)"/>
      <use xlink:href="#DejaVuSans-70" transform="translate(143.269531 0)"/>
      <use xlink:href="#DejaVuSans-7a" transform="translate(206.746094 0)"/>
      <use xlink:href="#DejaVuSans-69" transform="translate(259.236328 0)"/>
      <use xlink:href="#DejaVuSans-67" transform="translate(287.019531 0)"/>
      <use xlink:href="#DejaVuSans-20" transform="translate(350.496094 0)"/>
      <use xlink:href="#DejaVuSans-55" transform="translate(382.283203 0)"/>
      <use xlink:href="#DejaVuSans-6e" transform="translate(455.476562 0)"/>
      <use xlink:href="#DejaVuSans-69" transform="translate(518.855469 0)"/>
      <use xlink:href="#DejaVuSans-76" transform="translate(546.638672 0)"/>
      <use xlink:href="#DejaVuSans-65" transform="translate(605.818359 0)"/>
      <use xlink:href="#DejaVuSans-72" transform="translate(667.341797 0)"/>
      <use xlink:href="#DejaVuSans-73" transform="translate(708.455078 0)"/>
      <use xlink:href="#DejaVuSans-69" transform="translate(760.554688 0)"/>
      <use xlink:href="#DejaVuSans-74" transform="translate(788.337891 0)"/>
      <use xlink:href="#DejaVuSans-79" transform="translate(827.546875 0)"/>
     </g>
    </g>
   </g>
   <g id="text_3">
    <g clip-path="url(#p862ebe6f0e)">
     <!-- Heidelberg University -->
     <g style="opacity: 0.7" transform="translate(1082.496922 1149.85763) scale(0.1 -0.1)">
      <defs>
       <path id="DejaVuSans-48" d="M 628 4666 
L 1259 4666 
L 1259 2753 
L 3553 2753 
L 3553 4666 
L 4184 4666 
L 4184 0 
L 3553 0 
L 3553 2222 
L 1259 2222 
L 1259 0 
L 628 0 
L 628 4666 
z
" transform="scale(0.015625)"/>
       <path id="DejaVuSans-64" d="M 2906 2969 
L 2906 4863 
L 3481 4863 
L 3481 0 
L 2906 0 
L 2906 525 
Q 2725 213 2448 61 
Q 2172 -91 1784 -91 
Q 1150 -91 751 415 
Q 353 922 353 1747 
Q 353 2572 751 3078 
Q 1150 3584 1784 3584 
Q 2172 3584 2448 3432 
Q 2725 3281 2906 2969 
z
M 947 1747 
Q 947 1113 1208 752 
Q 1469 391 1925 391 
Q 2381 391 2643 752 
Q 2906 1113 2906 1747 
Q 2906 2381 2643 2742 
Q 2381 3103 1925 3103 
Q 1469 3103 1208 2742 
Q 947 2381 947 1747 
z
" transform="scale(0.015625)"/>
       <path id="DejaVuSans-62" d="M 3116 1747 
Q 3116 2381 2855 2742 
Q 2594 3103 2138 3103 
Q 1681 3103 1420 2742 
Q 1159 2381 1159 1747 
Q 1159 1113 1420 752 
Q 1681 391 2138 391 
Q 2594 391 2855 752 
Q 3116 1113 3116 1747 
z
M 1159 2969 
Q 1341 3281 1617 3432 
Q 1894 3584 2278 3584 
Q 2916 3584 3314 3078 
Q 3713 2572 3713 1747 
Q 3713 922 3314 415 
Q 2916 -91 2278 -91 
Q 1894 -91 1617 61 
Q 1341 213 1159 525 
L 1159 0 
L 581 0 
L 581 4863 
L 1159 4863 
L 1159 2969 
z
" transform="scale(0.015625)"/>
      </defs>
      <use xlink:href="#DejaVuSans-48"/>
      <use xlink:href="#DejaVuSans-65" transform="translate(75.195312 0)"/>
      <use xlink:href="#DejaVuSans-69" transform="translate(136.71875 0)"/>
      <use xlink:href="#DejaVuSans-64" transform="translate(164.501953 0)"/>
      <use xlink:href="#DejaVuSans-65" transform="translate(227.978516 0)"/>
      <use xlink:href="#DejaVuSans-6c" transform="translate(289.501953 0)"/>
      <use xlink:href="#DejaVuSans-62" transform="translate(317.285156 0)"/>
      <use xlink:href="#DejaVuSans-65" transform="translate(380.761719 0)"/>
      <use xlink:href="#DejaVuSans-72" transform="translate(442.285156 0)"/>
      <use xlink:href="#DejaVuSans-67" transform="translate(481.648438 0)"/>
      <use xlink:href="#DejaVuSans-20" transform="translate(545.125 0)"/>
      <use xlink:href="#DejaVuSans-55" transform="translate(576.912109 0)"/>
      <use xlink:href="#DejaVuSans-6e" transform="translate(650.105469 0)"/>
      <use xlink:href="#DejaVuSans-69" transform="translate(713.484375 0)"/>
      <use xlink:href="#DejaVuSans-76" transform="translate(741.267578 0)"/>
      <use xlink:href="#DejaVuSans-65" transform="translate(800.447266 0)"/>
      <use xlink:href="#DejaVuSans-72" transform="translate(861.970703 0)"/>
      <use xlink:href="#DejaVuSans-73" transform="translate(903.083984 0)"/>
      <use xlink:href="#DejaVuSans-69" transform="translate(955.183594 0)"/>
      <use xlink:href="#DejaVuSans-74" transform="translate(982.966797 0)"/>
      <use xlink:href="#DejaVuSans-79" transform="translate(1022.175781 0)"/>
     </g>
    </g>
   </g>
   <g id="text_4">
    <g clip-path="url(#p862ebe6f0e)">
     <!-- University of Münster -->
     <g style="opacity: 0.7" transform="translate(1223.123514 1329.925976) scale(0.1 -0.1)">
      <defs>
       <path id="DejaVuSans-4d" d="M 628 4666 
L 1569 4666 
L 2759 1491 
L 3956 4666 
L 4897 4666 
L 4897 0 
L 4281 0 
L 4281 4097 
L 3078 897 
L 2444 897 
L 1241 4097 
L 1241 0 
L 628 0 
L 628 4666 
z
" transform="scale(0.015625)"/>
       <path id="DejaVuSans-fc" d="M 544 1381 
L 544 3500 
L 1119 3500 
L 1119 1403 
Q 1119 906 1312 657 
Q 1506 409 1894 409 
Q 2359 409 2629 706 
Q 2900 1003 2900 1516 
L 2900 3500 
L 3475 3500 
L 3475 0 
L 2900 0 
L 2900 538 
Q 2691 219 2414 64 
Q 2138 -91 1772 -91 
Q 1169 -91 856 284 
Q 544 659 544 1381 
z
M 1991 3584 
L 1991 3584 
z
M 2278 4850 
L 2912 4850 
L 2912 4219 
L 2278 4219 
L 2278 4850 
z
M 1056 4850 
L 1690 4850 
L 1690 4219 
L 1056 4219 
L 1056 4850 
z
" transform="scale(0.015625)"/>
      </defs>
      <use xlink:href="#DejaVuSans-55"/>
      <use xlink:href="#DejaVuSans-6e" transform="translate(73.193359 0)"/>
      <use xlink:href="#DejaVuSans-69" transform="translate(136.572266 0)"/>
      <use xlink:href="#DejaVuSans-76" transform="translate(164.355469 0)"/>
      <use xlink:href="#DejaVuSans-65" transform="translate(223.535156 0)"/>
      <use xlink:href="#DejaVuSans-72" transform="translate(285.058594 0)"/>
      <use xlink:href="#DejaVuSans-73" transform="translate(326.171875 0)"/>
      <use xlink:href="#DejaVuSans-69" transform="translate(378.271484 0)"/>
      <use xlink:href="#DejaVuSans-74" transform="translate(406.054688 0)"/>
      <use xlink:href="#DejaVuSans-79" transform="translate(445.263672 0)"/>
      <use xlink:href="#DejaVuSans-20" transform="translate(504.443359 0)"/>
      <use xlink:href="#DejaVuSans-6f" transform="translate(536.230469 0)"/>
      <use xlink:href="#DejaVuSans-66" transform="translate(597.412109 0)"/>
      <use xlink:href="#DejaVuSans-20" transform="translate(632.617188 0)"/>
      <use xlink:href="#DejaVuSans-4d" transform="translate(664.404297 0)"/>
      <use xlink:href="#DejaVuSans-fc" transform="translate(750.683594 0)"/>
      <use xlink:href="#DejaVuSans-6e" transform="translate(814.0625 0)"/>
      <use xlink:href="#DejaVuSans-73" transform="translate(877.441406 0)"/>
      <use xlink:href="#DejaVuSans-74" transform="translate(929.541016 0)"/>
      <use xlink:href="#DejaVuSans-65" transform="translate(968.75 0)"/>
      <use xlink:href="#DejaVuSans-72" transform="translate(1030.273438 0)"/>
     </g>
    </g>
   </g>
   <g id="text_5">
    <g clip-path="url(#p862ebe6f0e)">
     <!-- University of Vienna -->
     <g style="opacity: 0.7" transform="translate(1182.163144 833.887157) scale(0.1 -0.1)">
      <defs>
       <path id="DejaVuSans-56" d="M 1831 0 
L 50 4666 
L 709 4666 
L 2188 738 
L 3669 4666 
L 4325 4666 
L 2547 0 
L 1831 0 
z
" transform="scale(0.015625)"/>
      </defs>
      <use xlink:href="#DejaVuSans-55"/>
      <use xlink:href="#DejaVuSans-6e" transform="translate(73.193359 0)"/>
      <use xlink:href="#DejaVuSans-69" transform="translate(136.572266 0)"/>
      <use xlink:href="#DejaVuSans-76" transform="translate(164.355469 0)"/>
      <use xlink:href="#DejaVuSans-65" transform="translate(223.535156 0)"/>
      <use xlink:href="#DejaVuSans-72" transform="translate(285.058594 0)"/>
      <use xlink:href="#DejaVuSans-73" transform="translate(326.171875 0)"/>
      <use xlink:href="#DejaVuSans-69" transform="translate(378.271484 0)"/>
      <use xlink:href="#DejaVuSans-74" transform="translate(406.054688 0)"/>
      <use xlink:href="#DejaVuSans-79" transform="translate(445.263672 0)"/>
      <use xlink:href="#DejaVuSans-20" transform="translate(504.443359 0)"/>
      <use xlink:href="#DejaVuSans-6f" transform="translate(536.230469 0)"/>
      <use xlink:href="#DejaVuSans-66" transform="translate(597.412109 0)"/>
      <use xlink:href="#DejaVuSans-20" transform="translate(632.617188 0)"/>
      <use xlink:href="#DejaVuSans-56" transform="translate(664.404297 0)"/>
      <use xlink:href="#DejaVuSans-69" transform="translate(730.5625 0)"/>
      <use xlink:href="#DejaVuSans-65" transform="translate(758.345703 0)"/>
      <use xlink:href="#DejaVuSans-6e" transform="translate(819.869141 0)"/>
      <use xlink:href="#DejaVuSans-6e" transform="translate(883.248047 0)"/>
      <use xlink:href="#DejaVuSans-61" transform="translate(946.626953 0)"/>
     </g>
    </g>
   </g>
   <g id="text_6">
    <g clip-path="url(#p862ebe6f0e)">
     <!-- University of Greifswald -->
     <g style="opacity: 0.7" transform="translate(1020.236489 1168.388915) scale(0.1 -0.1)">
      <use xlink:href="#DejaVuSans-55"/>
      <use xlink:href="#DejaVuSans-6e" transform="translate(73.193359 0)"/>
      <use xlink:href="#DejaVuSans-69" transform="translate(136.572266 0)"/>
      <use xlink:href="#DejaVuSans-76" transform="translate(164.355469 0)"/>
      <use xlink:href="#DejaVuSans-65" transform="translate(223.535156 0)"/>
      <use xlink:href="#DejaVuSans-72" transform="translate(285.058594 0)"/>
      <use xlink:href="#DejaVuSans-73" transform="translate(326.171875 0)"/>
      <use xlink:href="#DejaVuSans-69" transform="translate(378.271484 0)"/>
      <use xlink:href="#DejaVuSans-74" transform="translate(406.054688 0)"/>
      <use xlink:href="#DejaVuSans-79" transform="translate(445.263672 0)"/>
      <use xlink:href="#DejaVuSans-20" transform="translate(504.443359 0)"/>
      <use xlink:href="#DejaVuSans-6f" transform="translate(536.230469 0)"/>
      <use xlink:href="#DejaVuSans-66" transform="translate(597.412109 0)"/>
      <use xlink:href="#DejaVuSans-20" transform="translate(632.617188 0)"/>
      <use xlink:href="#DejaVuSans-47" transform="translate(664.404297 0)"/>
      <use xlink:href="#DejaVuSans-72" transform="translate(741.894531 0)"/>
      <use xlink:href="#DejaVuSans-65" transform="translate(780.757812 0)"/>
      <use xlink:href="#DejaVuSans-69" transform="translate(842.28125 0)"/>
      <use xlink:href="#DejaVuSans-66" transform="translate(870.064453 0)"/>
      <use xlink:href="#DejaVuSans-73" transform="translate(905.269531 0)"/>
      <use xlink:href="#DejaVuSans-77" transform="translate(957.369141 0)"/>
      <use xlink:href="#DejaVuSans-61" transform="translate(1039.15625 0)"/>
      <use xlink:href="#DejaVuSans-6c" transform="translate(1100.435547 0)"/>
      <use xlink:href="#DejaVuSans-64" transform="translate(1128.21875 0)"/>
     </g>
    </g>
   </g>
   <g id="text_7">
    <g clip-path="url(#p862ebe6f0e)">
     <!-- University of Innsbruck -->
     <g style="opacity: 0.7" transform="translate(1269.486914 858.780246) scale(0.1 -0.1)">
      <defs>
       <path id="DejaVuSans-49" d="M 628 4666 
L 1259 4666 
L 1259 0 
L 628 0 
L 628 4666 
z
" transform="scale(0.015625)"/>
       <path id="DejaVuSans-6b" d="M 581 4863 
L 1159 4863 
L 1159 1991 
L 2875 3500 
L 3609 3500 
L 1753 1863 
L 3688 0 
L 2938 0 
L 1159 1709 
L 1159 0 
L 581 0 
L 581 4863 
z
" transform="scale(0.015625)"/>
      </defs>
      <use xlink:href="#DejaVuSans-55"/>
      <use xlink:href="#DejaVuSans-6e" transform="translate(73.193359 0)"/>
      <use xlink:href="#DejaVuSans-69" transform="translate(136.572266 0)"/>
      <use xlink:href="#DejaVuSans-76" transform="translate(164.355469 0)"/>
      <use xlink:href="#DejaVuSans-65" transform="translate(223.535156 0)"/>
      <use xlink:href="#DejaVuSans-72" transform="translate(285.058594 0)"/>
      <use xlink:href="#DejaVuSans-73" transform="translate(326.171875 0)"/>
      <use xlink:href="#DejaVuSans-69" transform="translate(378.271484 0)"/>
      <use xlink:href="#DejaVuSans-74" transform="translate(406.054688 0)"/>
      <use xlink:href="#DejaVuSans-79" transform="translate(445.263672 0)"/>
      <use xlink:href="#DejaVuSans-20" transform="translate(504.443359 0)"/>
      <use xlink:href="#DejaVuSans-6f" transform="translate(536.230469 0)"/>
      <use xlink:href="#DejaVuSans-66" transform="translate(597.412109 0)"/>
      <use xlink:href="#DejaVuSans-20" transform="translate(632.617188 0)"/>
      <use xlink:href="#DejaVuSans-49" transform="translate(664.404297 0)"/>
      <use xlink:href="#DejaVuSans-6e" transform="translate(693.896484 0)"/>
      <use xlink:href="#DejaVuSans-6e" transform="translate(757.275391 0)"/>
      <use xlink:href="#DejaVuSans-73" transform="translate(820.654297 0)"/>
      <use xlink:href="#DejaVuSans-62" transform="translate(872.753906 0)"/>
      <use xlink:href="#DejaVuSans-72" transform="translate(936.230469 0)"/>
      <use xlink:href="#DejaVuSans-75" transform="translate(977.34375 0)"/>
      <use xlink:href="#DejaVuSans-63" transform="translate(1040.722656 0)"/>
      <use xlink:href="#DejaVuSans-6b" transform="translate(1095.703125 0)"/>
     </g>
    </g>
   </g>
   <g id="text_8">
    <g clip-path="url(#p862ebe6f0e)">
     <!-- philosophy faculty of the German university of Prague -->
     <g style="opacity: 0.7" transform="translate(625.253368 1041.745829) scale(0.1 -0.1)">
      <defs>
       <path id="DejaVuSans-68" d="M 3513 2113 
L 3513 0 
L 2938 0 
L 2938 2094 
Q 2938 2591 2744 2837 
Q 2550 3084 2163 3084 
Q 1697 3084 1428 2787 
Q 1159 2491 1159 1978 
L 1159 0 
L 581 0 
L 581 4863 
L 1159 4863 
L 1159 2956 
Q 1366 3272 1645 3428 
Q 1925 3584 2291 3584 
Q 2894 3584 3203 3211 
Q 3513 2838 3513 2113 
z
" transform="scale(0.015625)"/>
      </defs>
      <use xlink:href="#DejaVuSans-70"/>
      <use xlink:href="#DejaVuSans-68" transform="translate(63.476562 0)"/>
      <use xlink:href="#DejaVuSans-69" transform="translate(126.855469 0)"/>
      <use xlink:href="#DejaVuSans-6c" transform="translate(154.638672 0)"/>
      <use xlink:href="#DejaVuSans-6f" transform="translate(182.421875 0)"/>
      <use xlink:href="#DejaVuSans-73" transform="translate(243.603516 0)"/>
      <use xlink:href="#DejaVuSans-6f" transform="translate(295.703125 0)"/>
      <use xlink:href="#DejaVuSans-70" transform="translate(356.884766 0)"/>
      <use xlink:href="#DejaVuSans-68" transform="translate(420.361328 0)"/>
      <use xlink:href="#DejaVuSans-79" transform="translate(483.740234 0)"/>
      <use xlink:href="#DejaVuSans-20" transform="translate(542.919922 0)"/>
      <use xlink:href="#DejaVuSans-66" transform="translate(574.707031 0)"/>
      <use xlink:href="#DejaVuSans-61" transform="translate(609.912109 0)"/>
      <use xlink:href="#DejaVuSans-63" transform="translate(671.191406 0)"/>
      <use xlink:href="#DejaVuSans-75" transform="translate(726.171875 0)"/>
      <use xlink:href="#DejaVuSans-6c" transform="translate(789.550781 0)"/>
      <use xlink:href="#DejaVuSans-74" transform="translate(817.333984 0)"/>
      <use xlink:href="#DejaVuSans-79" transform="translate(856.542969 0)"/>
      <use xlink:href="#DejaVuSans-20" transform="translate(915.722656 0)"/>
      <use xlink:href="#DejaVuSans-6f" transform="translate(947.509766 0)"/>
      <use xlink:href="#DejaVuSans-66" transform="translate(1008.691406 0)"/>
      <use xlink:href="#DejaVuSans-20" transform="translate(1043.896484 0)"/>
      <use xlink:href="#DejaVuSans-74" transform="translate(1075.683594 0)"/>
      <use xlink:href="#DejaVuSans-68" transform="translate(1114.892578 0)"/>
      <use xlink:href="#DejaVuSans-65" transform="translate(1178.271484 0)"/>
      <use xlink:href="#DejaVuSans-20" transform="translate(1239.794922 0)"/>
      <use xlink:href="#DejaVuSans-47" transform="translate(1271.582031 0)"/>
      <use xlink:href="#DejaVuSans-65" transform="translate(1349.072266 0)"/>
      <use xlink:href="#DejaVuSans-72" transform="translate(1410.595703 0)"/>
      <use xlink:href="#DejaVuSans-6d" transform="translate(1449.958984 0)"/>
      <use xlink:href="#DejaVuSans-61" transform="translate(1547.371094 0)"/>
      <use xlink:href="#DejaVuSans-6e" transform="translate(1608.650391 0)"/>
      <use xlink:href="#DejaVuSans-20" transform="translate(1672.029297 0)"/>
      <use xlink:href="#DejaVuSans-75" transform="translate(1703.816406 0)"/>
      <use xlink:href="#DejaVuSans-6e" transform="translate(1767.195312 0)"/>
      <use xlink:href="#DejaVuSans-69" transform="translate(1830.574219 0)"/>
      <use xlink:href="#DejaVuSans-76" transform="translate(1858.357422 0)"/>
      <use xlink:href="#DejaVuSans-65" transform="translate(1917.537109 0)"/>
      <use xlink:href="#DejaVuSans-72" transform="translate(1979.060547 0)"/>
      <use xlink:href="#DejaVuSans-73" transform="translate(2020.173828 0)"/>
      <use xlink:href="#DejaVuSans-69" transform="translate(2072.273438 0)"/>
      <use xlink:href="#DejaVuSans-74" transform="translate(2100.056641 0)"/>
      <use xlink:href="#DejaVuSans-79" transform="translate(2139.265625 0)"/>
      <use xlink:href="#DejaVuSans-20" transform="translate(2198.445312 0)"/>
      <use xlink:href="#DejaVuSans-6f" transform="translate(2230.232422 0)"/>
      <use xlink:href="#DejaVuSans-66" transform="translate(2291.414062 0)"/>
      <use xlink:href="#DejaVuSans-20" transform="translate(2326.619141 0)"/>
      <use xlink:href="#DejaVuSans-50" transform="translate(2358.40625 0)"/>
      <use xlink:href="#DejaVuSans-72" transform="translate(2416.958984 0)"/>
      <use xlink:href="#DejaVuSans-61" transform="translate(2458.072266 0)"/>
      <use xlink:href="#DejaVuSans-67" transform="translate(2519.351562 0)"/>
      <use xlink:href="#DejaVuSans-75" transform="translate(2582.828125 0)"/>
      <use xlink:href="#DejaVuSans-65" transform="translate(2646.207031 0)"/>
     </g>
    </g>
   </g>
   <g id="text_9">
    <g clip-path="url(#p862ebe6f0e)">
     <!-- University of Marburg -->
     <g style="opacity: 0.7" transform="translate(1204.941437 671.856654) scale(0.1 -0.1)">
      <use xlink:href="#DejaVuSans-55"/>
      <use xlink:href="#DejaVuSans-6e" transform="translate(73.193359 0)"/>
      <use xlink:href="#DejaVuSans-69" transform="translate(136.572266 0)"/>
      <use xlink:href="#DejaVuSans-76" transform="translate(164.355469 0)"/>
      <use xlink:href="#DejaVuSans-65" transform="translate(223.535156 0)"/>
      <use xlink:href="#DejaVuSans-72" transform="translate(285.058594 0)"/>
      <use xlink:href="#DejaVuSans-73" transform="translate(326.171875 0)"/>
      <use xlink:href="#DejaVuSans-69" transform="translate(378.271484 0)"/>
      <use xlink:href="#DejaVuSans-74" transform="translate(406.054688 0)"/>
      <use xlink:href="#DejaVuSans-79" transform="translate(445.263672 0)"/>
      <use xlink:href="#DejaVuSans-20" transform="translate(504.443359 0)"/>
      <use xlink:href="#DejaVuSans-6f" transform="translate(536.230469 0)"/>
      <use xlink:href="#DejaVuSans-66" transform="translate(597.412109 0)"/>
      <use xlink:href="#DejaVuSans-20" transform="translate(632.617188 0)"/>
      <use xlink:href="#DejaVuSans-4d" transform="translate(664.404297 0)"/>
      <use xlink:href="#DejaVuSans-61" transform="translate(750.683594 0)"/>
      <use xlink:href="#DejaVuSans-72" transform="translate(811.962891 0)"/>
      <use xlink:href="#DejaVuSans-62" transform="translate(853.076172 0)"/>
      <use xlink:href="#DejaVuSans-75" transform="translate(916.552734 0)"/>
      <use xlink:href="#DejaVuSans-72" transform="translate(979.931641 0)"/>
      <use xlink:href="#DejaVuSans-67" transform="translate(1019.294922 0)"/>
     </g>
    </g>
   </g>
   <g id="text_10">
    <g clip-path="url(#p862ebe6f0e)">
     <!-- faculty of science, German University in Prague -->
     <g style="opacity: 0.7" transform="translate(550.021498 1090.58562) scale(0.1 -0.1)">
      <use xlink:href="#DejaVuSans-66"/>
      <use xlink:href="#DejaVuSans-61" transform="translate(35.205078 0)"/>
      <use xlink:href="#DejaVuSans-63" transform="translate(96.484375 0)"/>
      <use xlink:href="#DejaVuSans-75" transform="translate(151.464844 0)"/>
      <use xlink:href="#DejaVuSans-6c" transform="translate(214.84375 0)"/>
      <use xlink:href="#DejaVuSans-74" transform="translate(242.626953 0)"/>
      <use xlink:href="#DejaVuSans-79" transform="translate(281.835938 0)"/>
      <use xlink:href="#DejaVuSans-20" transform="translate(341.015625 0)"/>
      <use xlink:href="#DejaVuSans-6f" transform="translate(372.802734 0)"/>
      <use xlink:href="#DejaVuSans-66" transform="translate(433.984375 0)"/>
      <use xlink:href="#DejaVuSans-20" transform="translate(469.189453 0)"/>
      <use xlink:href="#DejaVuSans-73" transform="translate(500.976562 0)"/>
      <use xlink:href="#DejaVuSans-63" transform="translate(553.076172 0)"/>
      <use xlink:href="#DejaVuSans-69" transform="translate(608.056641 0)"/>
      <use xlink:href="#DejaVuSans-65" transform="translate(635.839844 0)"/>
      <use xlink:href="#DejaVuSans-6e" transform="translate(697.363281 0)"/>
      <use xlink:href="#DejaVuSans-63" transform="translate(760.742188 0)"/>
      <use xlink:href="#DejaVuSans-65" transform="translate(815.722656 0)"/>
      <use xlink:href="#DejaVuSans-2c" transform="translate(877.246094 0)"/>
      <use xlink:href="#DejaVuSans-20" transform="translate(909.033203 0)"/>
      <use xlink:href="#DejaVuSans-47" transform="translate(940.820312 0)"/>
      <use xlink:href="#DejaVuSans-65" transform="translate(1018.310547 0)"/>
      <use xlink:href="#DejaVuSans-72" transform="translate(1079.833984 0)"/>
      <use xlink:href="#DejaVuSans-6d" transform="translate(1119.197266 0)"/>
      <use xlink:href="#DejaVuSans-61" transform="translate(1216.609375 0)"/>
      <use xlink:href="#DejaVuSans-6e" transform="translate(1277.888672 0)"/>
      <use xlink:href="#DejaVuSans-20" transform="translate(1341.267578 0)"/>
      <use xlink:href="#DejaVuSans-55" transform="translate(1373.054688 0)"/>
      <use xlink:href="#DejaVuSans-6e" transform="translate(1446.248047 0)"/>
      <use xlink:href="#DejaVuSans-69" transform="translate(1509.626953 0)"/>
      <use xlink:href="#DejaVuSans-76" transform="translate(1537.410156 0)"/>
      <use xlink:href="#DejaVuSans-65" transform="translate(1596.589844 0)"/>
      <use xlink:href="#DejaVuSans-72" transform="translate(1658.113281 0)"/>
      <use xlink:href="#DejaVuSans-73" transform="translate(1699.226562 0)"/>
      <use xlink:href="#DejaVuSans-69" transform="translate(1751.326172 0)"/>
      <use xlink:href="#DejaVuSans-74" transform="translate(1779.109375 0)"/>
      <use xlink:href="#DejaVuSans-79" transform="translate(1818.318359 0)"/>
      <use xlink:href="#DejaVuSans-20" transform="translate(1877.498047 0)"/>
      <use xlink:href="#DejaVuSans-69" transform="translate(1909.285156 0)"/>
      <use xlink:href="#DejaVuSans-6e" transform="translate(1937.068359 0)"/>
      <use xlink:href="#DejaVuSans-20" transform="translate(2000.447266 0)"/>
      <use xlink:href="#DejaVuSans-50" transform="translate(2032.234375 0)"/>
      <use xlink:href="#DejaVuSans-72" transform="translate(2090.787109 0)"/>
      <use xlink:href="#DejaVuSans-61" transform="translate(2131.900391 0)"/>
      <use xlink:href="#DejaVuSans-67" transform="translate(2193.179688 0)"/>
      <use xlink:href="#DejaVuSans-75" transform="translate(2256.65625 0)"/>
      <use xlink:href="#DejaVuSans-65" transform="translate(2320.035156 0)"/>
     </g>
    </g>
   </g>
   <g id="text_11">
    <g clip-path="url(#p862ebe6f0e)">
     <!-- Ludwig-Maximilians-Universität München -->
     <g style="opacity: 0.7" transform="translate(1105.329004 1208.900647) scale(0.1 -0.1)">
      <defs>
       <path id="DejaVuSans-2d" d="M 313 2009 
L 1997 2009 
L 1997 1497 
L 313 1497 
L 313 2009 
z
" transform="scale(0.015625)"/>
       <path id="DejaVuSans-78" d="M 3513 3500 
L 2247 1797 
L 3578 0 
L 2900 0 
L 1881 1375 
L 863 0 
L 184 0 
L 1544 1831 
L 300 3500 
L 978 3500 
L 1906 2253 
L 2834 3500 
L 3513 3500 
z
" transform="scale(0.015625)"/>
       <path id="DejaVuSans-e4" d="M 2194 1759 
Q 1497 1759 1228 1600 
Q 959 1441 959 1056 
Q 959 750 1161 570 
Q 1363 391 1709 391 
Q 2188 391 2477 730 
Q 2766 1069 2766 1631 
L 2766 1759 
L 2194 1759 
z
M 3341 1997 
L 3341 0 
L 2766 0 
L 2766 531 
Q 2569 213 2275 61 
Q 1981 -91 1556 -91 
Q 1019 -91 701 211 
Q 384 513 384 1019 
Q 384 1609 779 1909 
Q 1175 2209 1959 2209 
L 2766 2209 
L 2766 2266 
Q 2766 2663 2505 2880 
Q 2244 3097 1772 3097 
Q 1472 3097 1187 3025 
Q 903 2953 641 2809 
L 641 3341 
Q 956 3463 1253 3523 
Q 1550 3584 1831 3584 
Q 2591 3584 2966 3190 
Q 3341 2797 3341 1997 
z
M 2150 4850 
L 2784 4850 
L 2784 4219 
L 2150 4219 
L 2150 4850 
z
M 928 4850 
L 1562 4850 
L 1562 4219 
L 928 4219 
L 928 4850 
z
" transform="scale(0.015625)"/>
      </defs>
      <use xlink:href="#DejaVuSans-4c"/>
      <use xlink:href="#DejaVuSans-75" transform="translate(53.962891 0)"/>
      <use xlink:href="#DejaVuSans-64" transform="translate(117.341797 0)"/>
      <use xlink:href="#DejaVuSans-77" transform="translate(180.818359 0)"/>
      <use xlink:href="#DejaVuSans-69" transform="translate(262.605469 0)"/>
      <use xlink:href="#DejaVuSans-67" transform="translate(290.388672 0)"/>
      <use xlink:href="#DejaVuSans-2d" transform="translate(353.865234 0)"/>
      <use xlink:href="#DejaVuSans-4d" transform="translate(389.949219 0)"/>
      <use xlink:href="#DejaVuSans-61" transform="translate(476.228516 0)"/>
      <use xlink:href="#DejaVuSans-78" transform="translate(537.507812 0)"/>
      <use xlink:href="#DejaVuSans-69" transform="translate(596.6875 0)"/>
      <use xlink:href="#DejaVuSans-6d" transform="translate(624.470703 0)"/>
      <use xlink:href="#DejaVuSans-69" transform="translate(721.882812 0)"/>
      <use xlink:href="#DejaVuSans-6c" transform="translate(749.666016 0)"/>
      <use xlink:href="#DejaVuSans-69" transform="translate(777.449219 0)"/>
      <use xlink:href="#DejaVuSans-61" transform="translate(805.232422 0)"/>
      <use xlink:href="#DejaVuSans-6e" transform="translate(866.511719 0)"/>
      <use xlink:href="#DejaVuSans-73" transform="translate(929.890625 0)"/>
      <use xlink:href="#DejaVuSans-2d" transform="translate(981.990234 0)"/>
      <use xlink:href="#DejaVuSans-55" transform="translate(1018.074219 0)"/>
      <use xlink:href="#DejaVuSans-6e" transform="translate(1091.267578 0)"/>
      <use xlink:href="#DejaVuSans-69" transform="translate(1154.646484 0)"/>
      <use xlink:href="#DejaVuSans-76" transform="translate(1182.429688 0)"/>
      <use xlink:href="#DejaVuSans-65" transform="translate(1241.609375 0)"/>
      <use xlink:href="#DejaVuSans-72" transform="translate(1303.132812 0)"/>
      <use xlink:href="#DejaVuSans-73" transform="translate(1344.246094 0)"/>
      <use xlink:href="#DejaVuSans-69" transform="translate(1396.345703 0)"/>
      <use xlink:href="#DejaVuSans-74" transform="translate(1424.128906 0)"/>
      <use xlink:href="#DejaVuSans-e4" transform="translate(1463.337891 0)"/>
      <use xlink:href="#DejaVuSans-74" transform="translate(1524.617188 0)"/>
      <use xlink:href="#DejaVuSans-20" transform="translate(1563.826172 0)"/>
      <use xlink:href="#DejaVuSans-4d" transform="translate(1595.613281 0)"/>
      <use xlink:href="#DejaVuSans-fc" transform="translate(1681.892578 0)"/>
      <use xlink:href="#DejaVuSans-6e" transform="translate(1745.271484 0)"/>
      <use xlink:href="#DejaVuSans-63" transform="translate(1808.650391 0)"/>
      <use xlink:href="#DejaVuSans-68" transform="translate(1863.630859 0)"/>
      <use xlink:href="#DejaVuSans-65" transform="translate(1927.009766 0)"/>
      <use xlink:href="#DejaVuSans-6e" transform="translate(1988.533203 0)"/>
     </g>
    </g>
   </g>
   <g id="text_12">
    <g clip-path="url(#p862ebe6f0e)">
     <!-- Lviv University -->
     <g style="opacity: 0.7" transform="translate(1280.893208 739.553095) scale(0.1 -0.1)">
      <use xlink:href="#DejaVuSans-4c"/>
      <use xlink:href="#DejaVuSans-76" transform="translate(55.712891 0)"/>
      <use xlink:href="#DejaVuSans-69" transform="translate(114.892578 0)"/>
      <use xlink:href="#DejaVuSans-76" transform="translate(142.675781 0)"/>
      <use xlink:href="#DejaVuSans-20" transform="translate(201.855469 0)"/>
      <use xlink:href="#DejaVuSans-55" transform="translate(233.642578 0)"/>
      <use xlink:href="#DejaVuSans-6e" transform="translate(306.835938 0)"/>
      <use xlink:href="#DejaVuSans-69" transform="translate(370.214844 0)"/>
      <use xlink:href="#DejaVuSans-76" transform="translate(397.998047 0)"/>
      <use xlink:href="#DejaVuSans-65" transform="translate(457.177734 0)"/>
      <use xlink:href="#DejaVuSans-72" transform="translate(518.701172 0)"/>
      <use xlink:href="#DejaVuSans-73" transform="translate(559.814453 0)"/>
      <use xlink:href="#DejaVuSans-69" transform="translate(611.914062 0)"/>
      <use xlink:href="#DejaVuSans-74" transform="translate(639.697266 0)"/>
      <use xlink:href="#DejaVuSans-79" transform="translate(678.90625 0)"/>
     </g>
    </g>
   </g>
   <g id="text_13">
    <g clip-path="url(#p862ebe6f0e)">
     <!-- University of Lausanne -->
     <g style="opacity: 0.7" transform="translate(892.206842 1135.44509) scale(0.1 -0.1)">
      <use xlink:href="#DejaVuSans-55"/>
      <use xlink:href="#DejaVuSans-6e" transform="translate(73.193359 0)"/>
      <use xlink:href="#DejaVuSans-69" transform="translate(136.572266 0)"/>
      <use xlink:href="#DejaVuSans-76" transform="translate(164.355469 0)"/>
      <use xlink:href="#DejaVuSans-65" transform="translate(223.535156 0)"/>
      <use xlink:href="#DejaVuSans-72" transform="translate(285.058594 0)"/>
      <use xlink:href="#DejaVuSans-73" transform="translate(326.171875 0)"/>
      <use xlink:href="#DejaVuSans-69" transform="translate(378.271484 0)"/>
      <use xlink:href="#DejaVuSans-74" transform="translate(406.054688 0)"/>
      <use xlink:href="#DejaVuSans-79" transform="translate(445.263672 0)"/>
      <use xlink:href="#DejaVuSans-20" transform="translate(504.443359 0)"/>
      <use xlink:href="#DejaVuSans-6f" transform="translate(536.230469 0)"/>
      <use xlink:href="#DejaVuSans-66" transform="translate(597.412109 0)"/>
      <use xlink:href="#DejaVuSans-20" transform="translate(632.617188 0)"/>
      <use xlink:href="#DejaVuSans-4c" transform="translate(664.404297 0)"/>
      <use xlink:href="#DejaVuSans-61" transform="translate(720.117188 0)"/>
      <use xlink:href="#DejaVuSans-75" transform="translate(781.396484 0)"/>
      <use xlink:href="#DejaVuSans-73" transform="translate(844.775391 0)"/>
      <use xlink:href="#DejaVuSans-61" transform="translate(896.875 0)"/>
      <use xlink:href="#DejaVuSans-6e" transform="translate(958.154297 0)"/>
      <use xlink:href="#DejaVuSans-6e" transform="translate(1021.533203 0)"/>
      <use xlink:href="#DejaVuSans-65" transform="translate(1084.912109 0)"/>
     </g>
    </g>
   </g>
   <g id="text_14">
    <g clip-path="url(#p862ebe6f0e)">
     <!-- University of Göttingen -->
     <g style="opacity: 0.7" transform="translate(981.862562 1099.24927) scale(0.1 -0.1)">
      <defs>
       <path id="DejaVuSans-f6" d="M 1959 3097 
Q 1497 3097 1228 2736 
Q 959 2375 959 1747 
Q 959 1119 1226 758 
Q 1494 397 1959 397 
Q 2419 397 2687 759 
Q 2956 1122 2956 1747 
Q 2956 2369 2687 2733 
Q 2419 3097 1959 3097 
z
M 1959 3584 
Q 2709 3584 3137 3096 
Q 3566 2609 3566 1747 
Q 3566 888 3137 398 
Q 2709 -91 1959 -91 
Q 1206 -91 779 398 
Q 353 888 353 1747 
Q 353 2609 779 3096 
Q 1206 3584 1959 3584 
z
M 2254 4850 
L 2888 4850 
L 2888 4219 
L 2254 4219 
L 2254 4850 
z
M 1032 4850 
L 1666 4850 
L 1666 4219 
L 1032 4219 
L 1032 4850 
z
" transform="scale(0.015625)"/>
      </defs>
      <use xlink:href="#DejaVuSans-55"/>
      <use xlink:href="#DejaVuSans-6e" transform="translate(73.193359 0)"/>
      <use xlink:href="#DejaVuSans-69" transform="translate(136.572266 0)"/>
      <use xlink:href="#DejaVuSans-76" transform="translate(164.355469 0)"/>
      <use xlink:href="#DejaVuSans-65" transform="translate(223.535156 0)"/>
      <use xlink:href="#DejaVuSans-72" transform="translate(285.058594 0)"/>
      <use xlink:href="#DejaVuSans-73" transform="translate(326.171875 0)"/>
      <use xlink:href="#DejaVuSans-69" transform="translate(378.271484 0)"/>
      <use xlink:href="#DejaVuSans-74" transform="translate(406.054688 0)"/>
      <use xlink:href="#DejaVuSans-79" transform="translate(445.263672 0)"/>
      <use xlink:href="#DejaVuSans-20" transform="translate(504.443359 0)"/>
      <use xlink:href="#DejaVuSans-6f" transform="translate(536.230469 0)"/>
      <use xlink:href="#DejaVuSans-66" transform="translate(597.412109 0)"/>
      <use xlink:href="#DejaVuSans-20" transform="translate(632.617188 0)"/>
      <use xlink:href="#DejaVuSans-47" transform="translate(664.404297 0)"/>
      <use xlink:href="#DejaVuSans-f6" transform="translate(741.894531 0)"/>
      <use xlink:href="#DejaVuSans-74" transform="translate(803.076172 0)"/>
      <use xlink:href="#DejaVuSans-74" transform="translate(842.285156 0)"/>
      <use xlink:href="#DejaVuSans-69" transform="translate(881.494141 0)"/>
      <use xlink:href="#DejaVuSans-6e" transform="translate(909.277344 0)"/>
      <use xlink:href="#DejaVuSans-67" transform="translate(972.65625 0)"/>
      <use xlink:href="#DejaVuSans-65" transform="translate(1036.132812 0)"/>
      <use xlink:href="#DejaVuSans-6e" transform="translate(1097.65625 0)"/>
     </g>
    </g>
   </g>
   <g id="text_15">
    <g clip-path="url(#p862ebe6f0e)">
     <!-- University of Basel -->
     <g style="opacity: 0.7" transform="translate(846.598847 1079.248686) scale(0.1 -0.1)">
      <defs>
       <path id="DejaVuSans-42" d="M 1259 2228 
L 1259 519 
L 2272 519 
Q 2781 519 3026 730 
Q 3272 941 3272 1375 
Q 3272 1813 3026 2020 
Q 2781 2228 2272 2228 
L 1259 2228 
z
M 1259 4147 
L 1259 2741 
L 2194 2741 
Q 2656 2741 2882 2914 
Q 3109 3088 3109 3444 
Q 3109 3797 2882 3972 
Q 2656 4147 2194 4147 
L 1259 4147 
z
M 628 4666 
L 2241 4666 
Q 2963 4666 3353 4366 
Q 3744 4066 3744 3513 
Q 3744 3084 3544 2831 
Q 3344 2578 2956 2516 
Q 3422 2416 3680 2098 
Q 3938 1781 3938 1306 
Q 3938 681 3513 340 
Q 3088 0 2303 0 
L 628 0 
L 628 4666 
z
" transform="scale(0.015625)"/>
      </defs>
      <use xlink:href="#DejaVuSans-55"/>
      <use xlink:href="#DejaVuSans-6e" transform="translate(73.193359 0)"/>
      <use xlink:href="#DejaVuSans-69" transform="translate(136.572266 0)"/>
      <use xlink:href="#DejaVuSans-76" transform="translate(164.355469 0)"/>
      <use xlink:href="#DejaVuSans-65" transform="translate(223.535156 0)"/>
      <use xlink:href="#DejaVuSans-72" transform="translate(285.058594 0)"/>
      <use xlink:href="#DejaVuSans-73" transform="translate(326.171875 0)"/>
      <use xlink:href="#DejaVuSans-69" transform="translate(378.271484 0)"/>
      <use xlink:href="#DejaVuSans-74" transform="translate(406.054688 0)"/>
      <use xlink:href="#DejaVuSans-79" transform="translate(445.263672 0)"/>
      <use xlink:href="#DejaVuSans-20" transform="translate(504.443359 0)"/>
      <use xlink:href="#DejaVuSans-6f" transform="translate(536.230469 0)"/>
      <use xlink:href="#DejaVuSans-66" transform="translate(597.412109 0)"/>
      <use xlink:href="#DejaVuSans-20" transform="translate(632.617188 0)"/>
      <use xlink:href="#DejaVuSans-42" transform="translate(664.404297 0)"/>
      <use xlink:href="#DejaVuSans-61" transform="translate(733.007812 0)"/>
      <use xlink:href="#DejaVuSans-73" transform="translate(794.287109 0)"/>
      <use xlink:href="#DejaVuSans-65" transform="translate(846.386719 0)"/>
      <use xlink:href="#DejaVuSans-6c" transform="translate(907.910156 0)"/>
     </g>
    </g>
   </g>
   <g id="text_16">
    <g clip-path="url(#p862ebe6f0e)">
     <!-- Q61066842 -->
     <g style="opacity: 0.7" transform="translate(1158.442643 697.85527) scale(0.1 -0.1)">
      <defs>
       <path id="DejaVuSans-51" d="M 2522 4238 
Q 1834 4238 1429 3725 
Q 1025 3213 1025 2328 
Q 1025 1447 1429 934 
Q 1834 422 2522 422 
Q 3209 422 3611 934 
Q 4013 1447 4013 2328 
Q 4013 3213 3611 3725 
Q 3209 4238 2522 4238 
z
M 3406 84 
L 4238 -825 
L 3475 -825 
L 2784 -78 
Q 2681 -84 2626 -87 
Q 2572 -91 2522 -91 
Q 1538 -91 948 567 
Q 359 1225 359 2328 
Q 359 3434 948 4092 
Q 1538 4750 2522 4750 
Q 3503 4750 4090 4092 
Q 4678 3434 4678 2328 
Q 4678 1516 4351 937 
Q 4025 359 3406 84 
z
" transform="scale(0.015625)"/>
       <path id="DejaVuSans-36" d="M 2113 2584 
Q 1688 2584 1439 2293 
Q 1191 2003 1191 1497 
Q 1191 994 1439 701 
Q 1688 409 2113 409 
Q 2538 409 2786 701 
Q 3034 994 3034 1497 
Q 3034 2003 2786 2293 
Q 2538 2584 2113 2584 
z
M 3366 4563 
L 3366 3988 
Q 3128 4100 2886 4159 
Q 2644 4219 2406 4219 
Q 1781 4219 1451 3797 
Q 1122 3375 1075 2522 
Q 1259 2794 1537 2939 
Q 1816 3084 2150 3084 
Q 2853 3084 3261 2657 
Q 3669 2231 3669 1497 
Q 3669 778 3244 343 
Q 2819 -91 2113 -91 
Q 1303 -91 875 529 
Q 447 1150 447 2328 
Q 447 3434 972 4092 
Q 1497 4750 2381 4750 
Q 2619 4750 2861 4703 
Q 3103 4656 3366 4563 
z
" transform="scale(0.015625)"/>
       <path id="DejaVuSans-31" d="M 794 531 
L 1825 531 
L 1825 4091 
L 703 3866 
L 703 4441 
L 1819 4666 
L 2450 4666 
L 2450 531 
L 3481 531 
L 3481 0 
L 794 0 
L 794 531 
z
" transform="scale(0.015625)"/>
       <path id="DejaVuSans-30" d="M 2034 4250 
Q 1547 4250 1301 3770 
Q 1056 3291 1056 2328 
Q 1056 1369 1301 889 
Q 1547 409 2034 409 
Q 2525 409 2770 889 
Q 3016 1369 3016 2328 
Q 3016 3291 2770 3770 
Q 2525 4250 2034 4250 
z
M 2034 4750 
Q 2819 4750 3233 4129 
Q 3647 3509 3647 2328 
Q 3647 1150 3233 529 
Q 2819 -91 2034 -91 
Q 1250 -91 836 529 
Q 422 1150 422 2328 
Q 422 3509 836 4129 
Q 1250 4750 2034 4750 
z
" transform="scale(0.015625)"/>
       <path id="DejaVuSans-38" d="M 2034 2216 
Q 1584 2216 1326 1975 
Q 1069 1734 1069 1313 
Q 1069 891 1326 650 
Q 1584 409 2034 409 
Q 2484 409 2743 651 
Q 3003 894 3003 1313 
Q 3003 1734 2745 1975 
Q 2488 2216 2034 2216 
z
M 1403 2484 
Q 997 2584 770 2862 
Q 544 3141 544 3541 
Q 544 4100 942 4425 
Q 1341 4750 2034 4750 
Q 2731 4750 3128 4425 
Q 3525 4100 3525 3541 
Q 3525 3141 3298 2862 
Q 3072 2584 2669 2484 
Q 3125 2378 3379 2068 
Q 3634 1759 3634 1313 
Q 3634 634 3220 271 
Q 2806 -91 2034 -91 
Q 1263 -91 848 271 
Q 434 634 434 1313 
Q 434 1759 690 2068 
Q 947 2378 1403 2484 
z
M 1172 3481 
Q 1172 3119 1398 2916 
Q 1625 2713 2034 2713 
Q 2441 2713 2670 2916 
Q 2900 3119 2900 3481 
Q 2900 3844 2670 4047 
Q 2441 4250 2034 4250 
Q 1625 4250 1398 4047 
Q 1172 3844 1172 3481 
z
" transform="scale(0.015625)"/>
       <path id="DejaVuSans-34" d="M 2419 4116 
L 825 1625 
L 2419 1625 
L 2419 4116 
z
M 2253 4666 
L 3047 4666 
L 3047 1625 
L 3713 1625 
L 3713 1100 
L 3047 1100 
L 3047 0 
L 2419 0 
L 2419 1100 
L 313 1100 
L 313 1709 
L 2253 4666 
z
" transform="scale(0.015625)"/>
       <path id="DejaVuSans-32" d="M 1228 531 
L 3431 531 
L 3431 0 
L 469 0 
L 469 531 
Q 828 903 1448 1529 
Q 2069 2156 2228 2338 
Q 2531 2678 2651 2914 
Q 2772 3150 2772 3378 
Q 2772 3750 2511 3984 
Q 2250 4219 1831 4219 
Q 1534 4219 1204 4116 
Q 875 4013 500 3803 
L 500 4441 
Q 881 4594 1212 4672 
Q 1544 4750 1819 4750 
Q 2544 4750 2975 4387 
Q 3406 4025 3406 3419 
Q 3406 3131 3298 2873 
Q 3191 2616 2906 2266 
Q 2828 2175 2409 1742 
Q 1991 1309 1228 531 
z
" transform="scale(0.015625)"/>
      </defs>
      <use xlink:href="#DejaVuSans-51"/>
      <use xlink:href="#DejaVuSans-36" transform="translate(78.710938 0)"/>
      <use xlink:href="#DejaVuSans-31" transform="translate(142.333984 0)"/>
      <use xlink:href="#DejaVuSans-30" transform="translate(205.957031 0)"/>
      <use xlink:href="#DejaVuSans-36" transform="translate(269.580078 0)"/>
      <use xlink:href="#DejaVuSans-36" transform="translate(333.203125 0)"/>
      <use xlink:href="#DejaVuSans-38" transform="translate(396.826172 0)"/>
      <use xlink:href="#DejaVuSans-34" transform="translate(460.449219 0)"/>
      <use xlink:href="#DejaVuSans-32" transform="translate(524.072266 0)"/>
     </g>
    </g>
   </g>
   <g id="legend_1">
    <g id="patch_7">
     <path d="M 1243.865755 1390.26388 
L 1387.86388 1390.26388 
Q 1390.26388 1390.26388 1390.26388 1387.86388 
L 1390.26388 1336.22263 
Q 1390.26388 1333.82263 1387.86388 1333.82263 
L 1243.865755 1333.82263 
Q 1241.465755 1333.82263 1241.465755 1336.22263 
L 1241.465755 1387.86388 
Q 1241.465755 1390.26388 1243.865755 1390.26388 
z
" style="fill: #ffffff; opacity: 0.8; stroke: #cccccc; stroke-linejoin: miter"/>
    </g>
    <g id="line2d_1">
     <path d="M 1246.265755 1343.540755 
L 1258.265755 1343.540755 
L 1270.265755 1343.540755 
" style="fill: none; stroke: #ffffff; stroke-opacity: 0.5; stroke-width: 1.5; stroke-linecap: square"/>
     <defs>
      <path id="ma931230059" d="M 0 6 
C 1.591219 6 3.117479 5.367802 4.242641 4.242641 
C 5.367802 3.117479 6 1.591219 6 0 
C 6 -1.591219 5.367802 -3.117479 4.242641 -4.242641 
C 3.117479 -5.367802 1.591219 -6 0 -6 
C -1.591219 -6 -3.117479 -5.367802 -4.242641 -4.242641 
C -5.367802 -3.117479 -6 -1.591219 -6 0 
C -6 1.591219 -5.367802 3.117479 -4.242641 4.242641 
C -3.117479 5.367802 -1.591219 6 0 6 
z
" style="stroke: #ffffff; stroke-opacity: 0.5"/>
     </defs>
     <g>
      <use xlink:href="#ma931230059" x="1258.265755" y="1343.540755" style="fill: #8c005e; fill-opacity: 0.5; stroke: #ffffff; stroke-opacity: 0.5"/>
     </g>
    </g>
    <g id="text_17">
     <!-- private university -->
     <g transform="translate(1279.865755 1347.740755) scale(0.12 -0.12)">
      <use xlink:href="#DejaVuSans-70"/>
      <use xlink:href="#DejaVuSans-72" transform="translate(63.476562 0)"/>
      <use xlink:href="#DejaVuSans-69" transform="translate(104.589844 0)"/>
      <use xlink:href="#DejaVuSans-76" transform="translate(132.373047 0)"/>
      <use xlink:href="#DejaVuSans-61" transform="translate(191.552734 0)"/>
      <use xlink:href="#DejaVuSans-74" transform="translate(252.832031 0)"/>
      <use xlink:href="#DejaVuSans-65" transform="translate(292.041016 0)"/>
      <use xlink:href="#DejaVuSans-20" transform="translate(353.564453 0)"/>
      <use xlink:href="#DejaVuSans-75" transform="translate(385.351562 0)"/>
      <use xlink:href="#DejaVuSans-6e" transform="translate(448.730469 0)"/>
      <use xlink:href="#DejaVuSans-69" transform="translate(512.109375 0)"/>
      <use xlink:href="#DejaVuSans-76" transform="translate(539.892578 0)"/>
      <use xlink:href="#DejaVuSans-65" transform="translate(599.072266 0)"/>
      <use xlink:href="#DejaVuSans-72" transform="translate(660.595703 0)"/>
      <use xlink:href="#DejaVuSans-73" transform="translate(701.708984 0)"/>
      <use xlink:href="#DejaVuSans-69" transform="translate(753.808594 0)"/>
      <use xlink:href="#DejaVuSans-74" transform="translate(781.591797 0)"/>
      <use xlink:href="#DejaVuSans-79" transform="translate(820.800781 0)"/>
     </g>
    </g>
    <g id="line2d_2">
     <path d="M 1246.265755 1361.154505 
L 1258.265755 1361.154505 
L 1270.265755 1361.154505 
" style="fill: none; stroke: #ffffff; stroke-opacity: 0.5; stroke-width: 1.5; stroke-linecap: square"/>
     <defs>
      <path id="m116f4bc743" d="M 0 6 
C 1.591219 6 3.117479 5.367802 4.242641 4.242641 
C 5.367802 3.117479 6 1.591219 6 0 
C 6 -1.591219 5.367802 -3.117479 4.242641 -4.242641 
C 3.117479 -5.367802 1.591219 -6 0 -6 
C -1.591219 -6 -3.117479 -5.367802 -4.242641 -4.242641 
C -5.367802 -3.117479 -6 -1.591219 -6 0 
C -6 1.591219 -5.367802 3.117479 -4.242641 4.242641 
C -3.117479 5.367802 -1.591219 6 0 6 
z
" style="stroke: #ffffff; stroke-opacity: 0.5"/>
     </defs>
     <g>
      <use xlink:href="#m116f4bc743" x="1258.265755" y="1361.154505" style="fill: #0000ff; fill-opacity: 0.5; stroke: #ffffff; stroke-opacity: 0.5"/>
     </g>
    </g>
    <g id="text_18">
     <!-- public university -->
     <g transform="translate(1279.865755 1365.354505) scale(0.12 -0.12)">
      <use xlink:href="#DejaVuSans-70"/>
      <use xlink:href="#DejaVuSans-75" transform="translate(63.476562 0)"/>
      <use xlink:href="#DejaVuSans-62" transform="translate(126.855469 0)"/>
      <use xlink:href="#DejaVuSans-6c" transform="translate(190.332031 0)"/>
      <use xlink:href="#DejaVuSans-69" transform="translate(218.115234 0)"/>
      <use xlink:href="#DejaVuSans-63" transform="translate(245.898438 0)"/>
      <use xlink:href="#DejaVuSans-20" transform="translate(300.878906 0)"/>
      <use xlink:href="#DejaVuSans-75" transform="translate(332.666016 0)"/>
      <use xlink:href="#DejaVuSans-6e" transform="translate(396.044922 0)"/>
      <use xlink:href="#DejaVuSans-69" transform="translate(459.423828 0)"/>
      <use xlink:href="#DejaVuSans-76" transform="translate(487.207031 0)"/>
      <use xlink:href="#DejaVuSans-65" transform="translate(546.386719 0)"/>
      <use xlink:href="#DejaVuSans-72" transform="translate(607.910156 0)"/>
      <use xlink:href="#DejaVuSans-73" transform="translate(649.023438 0)"/>
      <use xlink:href="#DejaVuSans-69" transform="translate(701.123047 0)"/>
      <use xlink:href="#DejaVuSans-74" transform="translate(728.90625 0)"/>
      <use xlink:href="#DejaVuSans-79" transform="translate(768.115234 0)"/>
     </g>
    </g>
    <g id="line2d_3">
     <path d="M 1246.265755 1378.768255 
L 1258.265755 1378.768255 
L 1270.265755 1378.768255 
" style="fill: none; stroke: #ffffff; stroke-opacity: 0.5; stroke-width: 1.5; stroke-linecap: square"/>
     <defs>
      <path id="m7d97193ba8" d="M 0 6 
C 1.591219 6 3.117479 5.367802 4.242641 4.242641 
C 5.367802 3.117479 6 1.591219 6 0 
C 6 -1.591219 5.367802 -3.117479 4.242641 -4.242641 
C 3.117479 -5.367802 1.591219 -6 0 -6 
C -1.591219 -6 -3.117479 -5.367802 -4.242641 -4.242641 
C -5.367802 -3.117479 -6 -1.591219 -6 0 
C -6 1.591219 -5.367802 3.117479 -4.242641 4.242641 
C -3.117479 5.367802 -1.591219 6 0 6 
z
" style="stroke: #ffffff; stroke-opacity: 0.5"/>
     </defs>
     <g>
      <use xlink:href="#m7d97193ba8" x="1258.265755" y="1378.768255" style="fill: #ff0066; fill-opacity: 0.5; stroke: #ffffff; stroke-opacity: 0.5"/>
     </g>
    </g>
    <g id="text_19">
     <!-- university -->
     <g transform="translate(1279.865755 1382.968255) scale(0.12 -0.12)">
      <use xlink:href="#DejaVuSans-75"/>
      <use xlink:href="#DejaVuSans-6e" transform="translate(63.378906 0)"/>
      <use xlink:href="#DejaVuSans-69" transform="translate(126.757812 0)"/>
      <use xlink:href="#DejaVuSans-76" transform="translate(154.541016 0)"/>
      <use xlink:href="#DejaVuSans-65" transform="translate(213.720703 0)"/>
      <use xlink:href="#DejaVuSans-72" transform="translate(275.244141 0)"/>
      <use xlink:href="#DejaVuSans-73" transform="translate(316.357422 0)"/>
      <use xlink:href="#DejaVuSans-69" transform="translate(368.457031 0)"/>
      <use xlink:href="#DejaVuSans-74" transform="translate(396.240234 0)"/>
      <use xlink:href="#DejaVuSans-79" transform="translate(435.449219 0)"/>
     </g>
    </g>
   </g>
  </g>
 </g>
 <defs>
  <clipPath id="p862ebe6f0e">
   <rect x="600" y="600" width="796.26388" height="796.26388"/>
  </clipPath>
 </defs>
</svg>
