<?xml version="1.0" encoding="utf-8" standalone="no"?>
<!DOCTYPE svg PUBLIC "-//W3C//DTD SVG 1.1//EN"
  "http://www.w3.org/Graphics/SVG/1.1/DTD/svg11.dtd">
<svg xmlns:xlink="http://www.w3.org/1999/xlink" width="1996.26388pt" height="1996.26388pt" viewBox="0 0 1996.26388 1996.26388" xmlns="http://www.w3.org/2000/svg" version="1.1">
 <metadata>
  <rdf:RDF xmlns:dc="http://purl.org/dc/elements/1.1/" xmlns:cc="http://creativecommons.org/ns#" xmlns:rdf="http://www.w3.org/1999/02/22-rdf-syntax-ns#">
   <cc:Work>
    <dc:type rdf:resource="http://purl.org/dc/dcmitype/StillImage"/>
    <dc:date>2025-08-28T19:19:35.567568</dc:date>
    <dc:format>image/svg+xml</dc:format>
    <dc:creator>
     <cc:Agent>
      <dc:title>Matplotlib v3.10.5, https://matplotlib.org/</dc:title>
     </cc:Agent>
    </dc:creator>
   </cc:Work>
  </rdf:RDF>
 </metadata>
 <defs>
  <style type="text/css">*{stroke-linejoin: round; stroke-linecap: butt}</style>
 </defs>
 <g id="figure_1">
  <g id="patch_1">
   <path d="M 0 1996.26388 
L 1996.26388 1996.26388 
L 1996.26388 0 
L 0 0 
z
" style="fill: #ffffff"/>
  </g>
  <g id="axes_1">
   <g id="patch_2">
    <path d="M 600 1396.26388 
L 1396.26388 1396.26388 
L 1396.26388 600 
L 600 600 
z
" style="fill: #ffffff"/>
   </g>
   <g id="LineCollection_1">
    <path d="M 1316.326133 951.420507 
L 1254.970432 917.991352 
" clip-path="url(#p45ea1c7dbd)" style="fill: none; stroke: #000000; stroke-opacity: 0.02; stroke-width: 2"/>
    <path d="M 892.633482 992.232096 
L 917.468991 1084.210249 
" clip-path="url(#p45ea1c7dbd)" style="fill: none; stroke: #000000; stroke-opacity: 0.02; stroke-width: 2"/>
    <path d="M 892.633482 992.232096 
L 992.578093 1006.349528 
" clip-path="url(#p45ea1c7dbd)" style="fill: none; stroke: #000000; stroke-opacity: 0.02; stroke-width: 2"/>
    <path d="M 892.633482 992.232096 
L 950.093613 924.235722 
" clip-path="url(#p45ea1c7dbd)" style="fill: none; stroke: #000000; stroke-opacity: 0.02"/>
    <path d="M 892.633482 992.232096 
L 763.797595 820.837191 
" clip-path="url(#p45ea1c7dbd)" style="fill: none; stroke: #000000; stroke-opacity: 0.02"/>
    <path d="M 892.633482 992.232096 
L 866.517273 1175.038401 
" clip-path="url(#p45ea1c7dbd)" style="fill: none; stroke: #000000; stroke-opacity: 0.02"/>
    <path d="M 917.468991 1084.210249 
L 992.578093 1006.349528 
" clip-path="url(#p45ea1c7dbd)" style="fill: none; stroke: #000000; stroke-opacity: 0.02"/>
    <path d="M 917.468991 1084.210249 
L 866.517273 1175.038401 
" clip-path="url(#p45ea1c7dbd)" style="fill: none; stroke: #000000; stroke-opacity: 0.02"/>
    <path d="M 835.392235 1327.166601 
L 866.517273 1175.038401 
" clip-path="url(#p45ea1c7dbd)" style="fill: none; stroke: #000000; stroke-opacity: 0.02"/>
    <path d="M 763.797595 820.837191 
L 681.680823 889.172977 
" clip-path="url(#p45ea1c7dbd)" style="fill: none; stroke: #000000; stroke-opacity: 0.02"/>
    <path d="M 763.797595 820.837191 
L 669.097279 772.676202 
" clip-path="url(#p45ea1c7dbd)" style="fill: none; stroke: #000000; stroke-opacity: 0.02"/>
    <path d="M 763.797595 820.837191 
L 711.138746 679.697407 
" clip-path="url(#p45ea1c7dbd)" style="fill: none; stroke: #000000; stroke-opacity: 0.02"/>
    <path d="M 763.797595 820.837191 
L 780.325447 669.097279 
" clip-path="url(#p45ea1c7dbd)" style="fill: none; stroke: #000000; stroke-opacity: 0.02"/>
    <path d="M 950.093613 924.235722 
L 992.578093 1006.349528 
" clip-path="url(#p45ea1c7dbd)" style="fill: none; stroke: #000000; stroke-opacity: 0.02"/>
    <path d="M 1254.970432 917.991352 
L 1327.166601 819.904956 
" clip-path="url(#p45ea1c7dbd)" style="fill: none; stroke: #000000; stroke-opacity: 0.02"/>
    <path d="M 1254.970432 917.991352 
L 1129.261484 971.552722 
" clip-path="url(#p45ea1c7dbd)" style="fill: none; stroke: #000000; stroke-opacity: 0.02"/>
    <path d="M 1078.112537 1037.952971 
L 992.578093 1006.349528 
" clip-path="url(#p45ea1c7dbd)" style="fill: none; stroke: #000000; stroke-opacity: 0.02"/>
    <path d="M 1078.112537 1037.952971 
L 1129.261484 971.552722 
" clip-path="url(#p45ea1c7dbd)" style="fill: none; stroke: #000000; stroke-opacity: 0.02"/>
    <path d="M 992.578093 1006.349528 
L 1129.261484 971.552722 
" clip-path="url(#p45ea1c7dbd)" style="fill: none; stroke: #000000; stroke-opacity: 0.02"/>
   </g>
   <g id="matplotlib.axis_1">
    <g id="xtick_1"/>
    <g id="xtick_2"/>
    <g id="xtick_3"/>
    <g id="xtick_4"/>
    <g id="xtick_5"/>
    <g id="xtick_6"/>
    <g id="xtick_7"/>
    <g id="xtick_8"/>
   </g>
   <g id="matplotlib.axis_2">
    <g id="ytick_1"/>
    <g id="ytick_2"/>
    <g id="ytick_3"/>
    <g id="ytick_4"/>
    <g id="ytick_5"/>
    <g id="ytick_6"/>
   </g>
   <g id="PathCollection_1">
    <path d="M 1316.326133 955.892643 
C 1317.512157 955.892643 1318.649765 955.421431 1319.48841 954.582785 
C 1320.327056 953.744139 1320.798269 952.606532 1320.798269 951.420507 
C 1320.798269 950.234483 1320.327056 949.096876 1319.48841 948.25823 
C 1318.649765 947.419584 1317.512157 946.948371 1316.326133 946.948371 
C 1315.140108 946.948371 1314.002501 947.419584 1313.163855 948.25823 
C 1312.325209 949.096876 1311.853997 950.234483 1311.853997 951.420507 
C 1311.853997 952.606532 1312.325209 953.744139 1313.163855 954.582785 
C 1314.002501 955.421431 1315.140108 955.892643 1316.326133 955.892643 
z
" clip-path="url(#p45ea1c7dbd)" style="fill: #008000; fill-opacity: 0.6; stroke: #008000; stroke-opacity: 0.6"/>
    <path d="M 892.633482 998.556651 
C 894.310774 998.556651 895.919594 997.890256 897.105618 996.704231 
C 898.291643 995.518207 898.958038 993.909387 898.958038 992.232096 
C 898.958038 990.554804 898.291643 988.945984 897.105618 987.75996 
C 895.919594 986.573935 894.310774 985.90754 892.633482 985.90754 
C 890.956191 985.90754 889.347371 986.573935 888.161346 987.75996 
C 886.975322 988.945984 886.308927 990.554804 886.308927 992.232096 
C 886.308927 993.909387 886.975322 995.518207 888.161346 996.704231 
C 889.347371 997.890256 890.956191 998.556651 892.633482 998.556651 
z
" clip-path="url(#p45ea1c7dbd)" style="fill: #ff0000; fill-opacity: 0.6; stroke: #ff0000; stroke-opacity: 0.6"/>
    <path d="M 917.468991 1089.210249 
C 918.795006 1089.210249 920.06689 1088.683418 921.004524 1087.745783 
C 921.942159 1086.808149 922.468991 1085.536265 922.468991 1084.210249 
C 922.468991 1082.884234 921.942159 1081.61235 921.004524 1080.674715 
C 920.06689 1079.737081 918.795006 1079.210249 917.468991 1079.210249 
C 916.142975 1079.210249 914.871091 1079.737081 913.933457 1080.674715 
C 912.995822 1081.61235 912.468991 1082.884234 912.468991 1084.210249 
C 912.468991 1085.536265 912.995822 1086.808149 913.933457 1087.745783 
C 914.871091 1088.683418 916.142975 1089.210249 917.468991 1089.210249 
z
" clip-path="url(#p45ea1c7dbd)" style="fill: #ff0000; fill-opacity: 0.6; stroke: #ff0000; stroke-opacity: 0.6"/>
    <path d="M 835.392235 1331.638737 
C 836.578259 1331.638737 837.715867 1331.167525 838.554512 1330.328879 
C 839.393158 1329.490233 839.864371 1328.352625 839.864371 1327.166601 
C 839.864371 1325.980577 839.393158 1324.842969 838.554512 1324.004324 
C 837.715867 1323.165678 836.578259 1322.694465 835.392235 1322.694465 
C 834.206211 1322.694465 833.068603 1323.165678 832.229957 1324.004324 
C 831.391311 1324.842969 830.920099 1325.980577 830.920099 1327.166601 
C 830.920099 1328.352625 831.391311 1329.490233 832.229957 1330.328879 
C 833.068603 1331.167525 834.206211 1331.638737 835.392235 1331.638737 
z
" clip-path="url(#p45ea1c7dbd)" style="fill: #ff0000; fill-opacity: 0.6; stroke: #ff0000; stroke-opacity: 0.6"/>
    <path d="M 763.797595 832.456141 
C 766.878977 832.456141 769.834568 831.231895 772.013434 829.05303 
C 774.192299 826.874164 775.416545 823.918573 775.416545 820.837191 
C 775.416545 817.75581 774.192299 814.800219 772.013434 812.621353 
C 769.834568 810.442487 766.878977 809.218241 763.797595 809.218241 
C 760.716214 809.218241 757.760623 810.442487 755.581757 812.621353 
C 753.402891 814.800219 752.178645 817.75581 752.178645 820.837191 
C 752.178645 823.918573 753.402891 826.874164 755.581757 829.05303 
C 757.760623 831.231895 760.716214 832.456141 763.797595 832.456141 
z
" clip-path="url(#p45ea1c7dbd)" style="fill: #0000ff; fill-opacity: 0.6; stroke: #0000ff; stroke-opacity: 0.6"/>
    <path d="M 950.093613 928.108705 
C 951.12074 928.108705 952.105937 927.700623 952.832226 926.974334 
C 953.558514 926.248046 953.966596 925.262849 953.966596 924.235722 
C 953.966596 923.208594 953.558514 922.223397 952.832226 921.497109 
C 952.105937 920.77082 951.12074 920.362738 950.093613 920.362738 
C 949.066486 920.362738 948.081289 920.77082 947.355 921.497109 
C 946.628712 922.223397 946.22063 923.208594 946.22063 924.235722 
C 946.22063 925.262849 946.628712 926.248046 947.355 926.974334 
C 948.081289 927.700623 949.066486 928.108705 950.093613 928.108705 
z
" clip-path="url(#p45ea1c7dbd)" style="fill: #ff0000; fill-opacity: 0.6; stroke: #ff0000; stroke-opacity: 0.6"/>
    <path d="M 780.325447 674.574504 
C 781.778024 674.574504 783.171303 673.997389 784.198431 672.970262 
C 785.225558 671.943135 785.802673 670.549856 785.802673 669.097279 
C 785.802673 667.644702 785.225558 666.251423 784.198431 665.224295 
C 783.171303 664.197168 781.778024 663.620053 780.325447 663.620053 
C 778.87287 663.620053 777.479591 664.197168 776.452464 665.224295 
C 775.425337 666.251423 774.848222 667.644702 774.848222 669.097279 
C 774.848222 670.549856 775.425337 671.943135 776.452464 672.970262 
C 777.479591 673.997389 778.87287 674.574504 780.325447 674.574504 
z
" clip-path="url(#p45ea1c7dbd)" style="fill: #0000ff; fill-opacity: 0.6; stroke: #0000ff; stroke-opacity: 0.6"/>
    <path d="M 1254.970432 922.991352 
C 1256.296448 922.991352 1257.568332 922.46452 1258.505966 921.526886 
C 1259.443601 920.589251 1259.970432 919.317367 1259.970432 917.991352 
C 1259.970432 916.665336 1259.443601 915.393453 1258.505966 914.455818 
C 1257.568332 913.518183 1256.296448 912.991352 1254.970432 912.991352 
C 1253.644417 912.991352 1252.372533 913.518183 1251.434899 914.455818 
C 1250.497264 915.393453 1249.970432 916.665336 1249.970432 917.991352 
C 1249.970432 919.317367 1250.497264 920.589251 1251.434899 921.526886 
C 1252.372533 922.46452 1253.644417 922.991352 1254.970432 922.991352 
z
" clip-path="url(#p45ea1c7dbd)" style="fill: #008000; fill-opacity: 0.6; stroke: #008000; stroke-opacity: 0.6"/>
    <path d="M 681.680823 894.172977 
C 683.006839 894.172977 684.278723 893.646146 685.216357 892.708511 
C 686.153992 891.770877 686.680823 890.498993 686.680823 889.172977 
C 686.680823 887.846962 686.153992 886.575078 685.216357 885.637443 
C 684.278723 884.699809 683.006839 884.172977 681.680823 884.172977 
C 680.354808 884.172977 679.082924 884.699809 678.145289 885.637443 
C 677.207655 886.575078 676.680823 887.846962 676.680823 889.172977 
C 676.680823 890.498993 677.207655 891.770877 678.145289 892.708511 
C 679.082924 893.646146 680.354808 894.172977 681.680823 894.172977 
z
" clip-path="url(#p45ea1c7dbd)" style="fill: #0000ff; fill-opacity: 0.6; stroke: #0000ff; stroke-opacity: 0.6"/>
    <path d="M 1327.166601 822.141024 
C 1327.759613 822.141024 1328.328417 821.905418 1328.74774 821.486095 
C 1329.167063 821.066772 1329.402669 820.497968 1329.402669 819.904956 
C 1329.402669 819.311944 1329.167063 818.74314 1328.74774 818.323817 
C 1328.328417 817.904494 1327.759613 817.668888 1327.166601 817.668888 
C 1326.573589 817.668888 1326.004785 817.904494 1325.585462 818.323817 
C 1325.166139 818.74314 1324.930533 819.311944 1324.930533 819.904956 
C 1324.930533 820.497968 1325.166139 821.066772 1325.585462 821.486095 
C 1326.004785 821.905418 1326.573589 822.141024 1327.166601 822.141024 
z
" clip-path="url(#p45ea1c7dbd)" style="fill: #008000; fill-opacity: 0.6; stroke: #008000; stroke-opacity: 0.6"/>
    <path d="M 866.517273 1180.954481 
C 868.086236 1180.954481 869.591149 1180.331126 870.700573 1179.221702 
C 871.809997 1178.112277 872.433353 1176.607364 872.433353 1175.038401 
C 872.433353 1173.469439 871.809997 1171.964526 870.700573 1170.855101 
C 869.591149 1169.745677 868.086236 1169.122322 866.517273 1169.122322 
C 864.94831 1169.122322 863.443397 1169.745677 862.333973 1170.855101 
C 861.224549 1171.964526 860.601193 1173.469439 860.601193 1175.038401 
C 860.601193 1176.607364 861.224549 1178.112277 862.333973 1179.221702 
C 863.443397 1180.331126 864.94831 1180.954481 866.517273 1180.954481 
z
" clip-path="url(#p45ea1c7dbd)" style="fill: #ff0000; fill-opacity: 0.6; stroke: #ff0000; stroke-opacity: 0.6"/>
    <path d="M 711.138746 687.443374 
C 713.193 687.443374 715.163394 686.62721 716.615971 685.174633 
C 718.068549 683.722056 718.884713 681.751662 718.884713 679.697407 
C 718.884713 677.643153 718.068549 675.672759 716.615971 674.220182 
C 715.163394 672.767604 713.193 671.951441 711.138746 671.951441 
C 709.084491 671.951441 707.114097 672.767604 705.66152 674.220182 
C 704.208943 675.672759 703.392779 677.643153 703.392779 679.697407 
C 703.392779 681.751662 704.208943 683.722056 705.66152 685.174633 
C 707.114097 686.62721 709.084491 687.443374 711.138746 687.443374 
z
" clip-path="url(#p45ea1c7dbd)" style="fill: #0000ff; fill-opacity: 0.6; stroke: #0000ff; stroke-opacity: 0.6"/>
    <path d="M 1078.112537 1041.115248 
C 1078.951182 1041.115248 1079.755592 1040.782051 1080.348604 1040.189039 
C 1080.941617 1039.596027 1081.274814 1038.791617 1081.274814 1037.952971 
C 1081.274814 1037.114325 1080.941617 1036.309915 1080.348604 1035.716903 
C 1079.755592 1035.123891 1078.951182 1034.790693 1078.112537 1034.790693 
C 1077.273891 1034.790693 1076.469481 1035.123891 1075.876469 1035.716903 
C 1075.283456 1036.309915 1074.950259 1037.114325 1074.950259 1037.952971 
C 1074.950259 1038.791617 1075.283456 1039.596027 1075.876469 1040.189039 
C 1076.469481 1040.782051 1077.273891 1041.115248 1078.112537 1041.115248 
z
" clip-path="url(#p45ea1c7dbd)" style="fill: #ff0000; fill-opacity: 0.6; stroke: #ff0000; stroke-opacity: 0.6"/>
    <path d="M 992.578093 1011.349528 
C 993.904109 1011.349528 995.175993 1010.822697 996.113627 1009.885062 
C 997.051262 1008.947427 997.578093 1007.675544 997.578093 1006.349528 
C 997.578093 1005.023513 997.051262 1003.751629 996.113627 1002.813994 
C 995.175993 1001.87636 993.904109 1001.349528 992.578093 1001.349528 
C 991.252078 1001.349528 989.980194 1001.87636 989.04256 1002.813994 
C 988.104925 1003.751629 987.578093 1005.023513 987.578093 1006.349528 
C 987.578093 1007.675544 988.104925 1008.947427 989.04256 1009.885062 
C 989.980194 1010.822697 991.252078 1011.349528 992.578093 1011.349528 
z
" clip-path="url(#p45ea1c7dbd)" style="fill: #ff0000; fill-opacity: 0.6; stroke: #ff0000; stroke-opacity: 0.6"/>
    <path d="M 1129.261484 976.024858 
C 1130.447508 976.024858 1131.585116 975.553646 1132.423761 974.715 
C 1133.262407 973.876354 1133.73362 972.738747 1133.73362 971.552722 
C 1133.73362 970.366698 1133.262407 969.22909 1132.423761 968.390445 
C 1131.585116 967.551799 1130.447508 967.080586 1129.261484 967.080586 
C 1128.075459 967.080586 1126.937852 967.551799 1126.099206 968.390445 
C 1125.26056 969.22909 1124.789348 970.366698 1124.789348 971.552722 
C 1124.789348 972.738747 1125.26056 973.876354 1126.099206 974.715 
C 1126.937852 975.553646 1128.075459 976.024858 1129.261484 976.024858 
z
" clip-path="url(#p45ea1c7dbd)" style="fill: #ff0000; fill-opacity: 0.6; stroke: #ff0000; stroke-opacity: 0.6"/>
    <path d="M 669.097279 774.91227 
C 669.690291 774.91227 670.259095 774.676664 670.678418 774.257341 
C 671.097741 773.838018 671.333347 773.269214 671.333347 772.676202 
C 671.333347 772.08319 671.097741 771.514386 670.678418 771.095063 
C 670.259095 770.67574 669.690291 770.440134 669.097279 770.440134 
C 668.504267 770.440134 667.935463 770.67574 667.51614 771.095063 
C 667.096817 771.514386 666.861211 772.08319 666.861211 772.676202 
C 666.861211 773.269214 667.096817 773.838018 667.51614 774.257341 
C 667.935463 774.676664 668.504267 774.91227 669.097279 774.91227 
z
" clip-path="url(#p45ea1c7dbd)" style="fill: #0000ff; fill-opacity: 0.6; stroke: #0000ff; stroke-opacity: 0.6"/>
   </g>
   <g id="patch_3">
    <path d="M 600 1396.26388 
L 600 600 
" style="fill: none; stroke: #000000; stroke-width: 0.8; stroke-linejoin: miter; stroke-linecap: square"/>
   </g>
   <g id="patch_4">
    <path d="M 1396.26388 1396.26388 
L 1396.26388 600 
" style="fill: none; stroke: #000000; stroke-width: 0.8; stroke-linejoin: miter; stroke-linecap: square"/>
   </g>
   <g id="patch_5">
    <path d="M 600 1396.26388 
L 1396.26388 1396.26388 
" style="fill: none; stroke: #000000; stroke-width: 0.8; stroke-linejoin: miter; stroke-linecap: square"/>
   </g>
   <g id="patch_6">
    <path d="M 600 600 
L 1396.26388 600 
" style="fill: none; stroke: #000000; stroke-width: 0.8; stroke-linejoin: miter; stroke-linecap: square"/>
   </g>
   <g id="text_1">
    <g clip-path="url(#p45ea1c7dbd)">
     <!-- Faculty of Law, German University in Prague -->
     <g style="opacity: 0.7" transform="translate(1205.465977 954.179882) scale(0.1 -0.1)">
      <defs>
       <path id="DejaVuSans-46" d="M 628 4666 
L 3309 4666 
L 3309 4134 
L 1259 4134 
L 1259 2759 
L 3109 2759 
L 3109 2228 
L 1259 2228 
L 1259 0 
L 628 0 
L 628 4666 
z
" transform="scale(0.015625)"/>
       <path id="DejaVuSans-61" d="M 2194 1759 
Q 1497 1759 1228 1600 
Q 959 1441 959 1056 
Q 959 750 1161 570 
Q 1363 391 1709 391 
Q 2188 391 2477 730 
Q 2766 1069 2766 1631 
L 2766 1759 
L 2194 1759 
z
M 3341 1997 
L 3341 0 
L 2766 0 
L 2766 531 
Q 2569 213 2275 61 
Q 1981 -91 1556 -91 
Q 1019 -91 701 211 
Q 384 513 384 1019 
Q 384 1609 779 1909 
Q 1175 2209 1959 2209 
L 2766 2209 
L 2766 2266 
Q 2766 2663 2505 2880 
Q 2244 3097 1772 3097 
Q 1472 3097 1187 3025 
Q 903 2953 641 2809 
L 641 3341 
Q 956 3463 1253 3523 
Q 1550 3584 1831 3584 
Q 2591 3584 2966 3190 
Q 3341 2797 3341 1997 
z
" transform="scale(0.015625)"/>
       <path id="DejaVuSans-63" d="M 3122 3366 
L 3122 2828 
Q 2878 2963 2633 3030 
Q 2388 3097 2138 3097 
Q 1578 3097 1268 2742 
Q 959 2388 959 1747 
Q 959 1106 1268 751 
Q 1578 397 2138 397 
Q 2388 397 2633 464 
Q 2878 531 3122 666 
L 3122 134 
Q 2881 22 2623 -34 
Q 2366 -91 2075 -91 
Q 1284 -91 818 406 
Q 353 903 353 1747 
Q 353 2603 823 3093 
Q 1294 3584 2113 3584 
Q 2378 3584 2631 3529 
Q 2884 3475 3122 3366 
z
" transform="scale(0.015625)"/>
       <path id="DejaVuSans-75" d="M 544 1381 
L 544 3500 
L 1119 3500 
L 1119 1403 
Q 1119 906 1312 657 
Q 1506 409 1894 409 
Q 2359 409 2629 706 
Q 2900 1003 2900 1516 
L 2900 3500 
L 3475 3500 
L 3475 0 
L 2900 0 
L 2900 538 
Q 2691 219 2414 64 
Q 2138 -91 1772 -91 
Q 1169 -91 856 284 
Q 544 659 544 1381 
z
M 1991 3584 
L 1991 3584 
z
" transform="scale(0.015625)"/>
       <path id="DejaVuSans-6c" d="M 603 4863 
L 1178 4863 
L 1178 0 
L 603 0 
L 603 4863 
z
" transform="scale(0.015625)"/>
       <path id="DejaVuSans-74" d="M 1172 4494 
L 1172 3500 
L 2356 3500 
L 2356 3053 
L 1172 3053 
L 1172 1153 
Q 1172 725 1289 603 
Q 1406 481 1766 481 
L 2356 481 
L 2356 0 
L 1766 0 
Q 1100 0 847 248 
Q 594 497 594 1153 
L 594 3053 
L 172 3053 
L 172 3500 
L 594 3500 
L 594 4494 
L 1172 4494 
z
" transform="scale(0.015625)"/>
       <path id="DejaVuSans-79" d="M 2059 -325 
Q 1816 -950 1584 -1140 
Q 1353 -1331 966 -1331 
L 506 -1331 
L 506 -850 
L 844 -850 
Q 1081 -850 1212 -737 
Q 1344 -625 1503 -206 
L 1606 56 
L 191 3500 
L 800 3500 
L 1894 763 
L 2988 3500 
L 3597 3500 
L 2059 -325 
z
" transform="scale(0.015625)"/>
       <path id="DejaVuSans-20" transform="scale(0.015625)"/>
       <path id="DejaVuSans-6f" d="M 1959 3097 
Q 1497 3097 1228 2736 
Q 959 2375 959 1747 
Q 959 1119 1226 758 
Q 1494 397 1959 397 
Q 2419 397 2687 759 
Q 2956 1122 2956 1747 
Q 2956 2369 2687 2733 
Q 2419 3097 1959 3097 
z
M 1959 3584 
Q 2709 3584 3137 3096 
Q 3566 2609 3566 1747 
Q 3566 888 3137 398 
Q 2709 -91 1959 -91 
Q 1206 -91 779 398 
Q 353 888 353 1747 
Q 353 2609 779 3096 
Q 1206 3584 1959 3584 
z
" transform="scale(0.015625)"/>
       <path id="DejaVuSans-66" d="M 2375 4863 
L 2375 4384 
L 1825 4384 
Q 1516 4384 1395 4259 
Q 1275 4134 1275 3809 
L 1275 3500 
L 2222 3500 
L 2222 3053 
L 1275 3053 
L 1275 0 
L 697 0 
L 697 3053 
L 147 3053 
L 147 3500 
L 697 3500 
L 697 3744 
Q 697 4328 969 4595 
Q 1241 4863 1831 4863 
L 2375 4863 
z
" transform="scale(0.015625)"/>
       <path id="DejaVuSans-4c" d="M 628 4666 
L 1259 4666 
L 1259 531 
L 3531 531 
L 3531 0 
L 628 0 
L 628 4666 
z
" transform="scale(0.015625)"/>
       <path id="DejaVuSans-77" d="M 269 3500 
L 844 3500 
L 1563 769 
L 2278 3500 
L 2956 3500 
L 3675 769 
L 4391 3500 
L 4966 3500 
L 4050 0 
L 3372 0 
L 2619 2869 
L 1863 0 
L 1184 0 
L 269 3500 
z
" transform="scale(0.015625)"/>
       <path id="DejaVuSans-2c" d="M 750 794 
L 1409 794 
L 1409 256 
L 897 -744 
L 494 -744 
L 750 256 
L 750 794 
z
" transform="scale(0.015625)"/>
       <path id="DejaVuSans-47" d="M 3809 666 
L 3809 1919 
L 2778 1919 
L 2778 2438 
L 4434 2438 
L 4434 434 
Q 4069 175 3628 42 
Q 3188 -91 2688 -91 
Q 1594 -91 976 548 
Q 359 1188 359 2328 
Q 359 3472 976 4111 
Q 1594 4750 2688 4750 
Q 3144 4750 3555 4637 
Q 3966 4525 4313 4306 
L 4313 3634 
Q 3963 3931 3569 4081 
Q 3175 4231 2741 4231 
Q 1884 4231 1454 3753 
Q 1025 3275 1025 2328 
Q 1025 1384 1454 906 
Q 1884 428 2741 428 
Q 3075 428 3337 486 
Q 3600 544 3809 666 
z
" transform="scale(0.015625)"/>
       <path id="DejaVuSans-65" d="M 3597 1894 
L 3597 1613 
L 953 1613 
Q 991 1019 1311 708 
Q 1631 397 2203 397 
Q 2534 397 2845 478 
Q 3156 559 3463 722 
L 3463 178 
Q 3153 47 2828 -22 
Q 2503 -91 2169 -91 
Q 1331 -91 842 396 
Q 353 884 353 1716 
Q 353 2575 817 3079 
Q 1281 3584 2069 3584 
Q 2775 3584 3186 3129 
Q 3597 2675 3597 1894 
z
M 3022 2063 
Q 3016 2534 2758 2815 
Q 2500 3097 2075 3097 
Q 1594 3097 1305 2825 
Q 1016 2553 972 2059 
L 3022 2063 
z
" transform="scale(0.015625)"/>
       <path id="DejaVuSans-72" d="M 2631 2963 
Q 2534 3019 2420 3045 
Q 2306 3072 2169 3072 
Q 1681 3072 1420 2755 
Q 1159 2438 1159 1844 
L 1159 0 
L 581 0 
L 581 3500 
L 1159 3500 
L 1159 2956 
Q 1341 3275 1631 3429 
Q 1922 3584 2338 3584 
Q 2397 3584 2469 3576 
Q 2541 3569 2628 3553 
L 2631 2963 
z
" transform="scale(0.015625)"/>
       <path id="DejaVuSans-6d" d="M 3328 2828 
Q 3544 3216 3844 3400 
Q 4144 3584 4550 3584 
Q 5097 3584 5394 3201 
Q 5691 2819 5691 2113 
L 5691 0 
L 5113 0 
L 5113 2094 
Q 5113 2597 4934 2840 
Q 4756 3084 4391 3084 
Q 3944 3084 3684 2787 
Q 3425 2491 3425 1978 
L 3425 0 
L 2847 0 
L 2847 2094 
Q 2847 2600 2669 2842 
Q 2491 3084 2119 3084 
Q 1678 3084 1418 2786 
Q 1159 2488 1159 1978 
L 1159 0 
L 581 0 
L 581 3500 
L 1159 3500 
L 1159 2956 
Q 1356 3278 1631 3431 
Q 1906 3584 2284 3584 
Q 2666 3584 2933 3390 
Q 3200 3197 3328 2828 
z
" transform="scale(0.015625)"/>
       <path id="DejaVuSans-6e" d="M 3513 2113 
L 3513 0 
L 2938 0 
L 2938 2094 
Q 2938 2591 2744 2837 
Q 2550 3084 2163 3084 
Q 1697 3084 1428 2787 
Q 1159 2491 1159 1978 
L 1159 0 
L 581 0 
L 581 3500 
L 1159 3500 
L 1159 2956 
Q 1366 3272 1645 3428 
Q 1925 3584 2291 3584 
Q 2894 3584 3203 3211 
Q 3513 2838 3513 2113 
z
" transform="scale(0.015625)"/>
       <path id="DejaVuSans-55" d="M 556 4666 
L 1191 4666 
L 1191 1831 
Q 1191 1081 1462 751 
Q 1734 422 2344 422 
Q 2950 422 3222 751 
Q 3494 1081 3494 1831 
L 3494 4666 
L 4128 4666 
L 4128 1753 
Q 4128 841 3676 375 
Q 3225 -91 2344 -91 
Q 1459 -91 1007 375 
Q 556 841 556 1753 
L 556 4666 
z
" transform="scale(0.015625)"/>
       <path id="DejaVuSans-69" d="M 603 3500 
L 1178 3500 
L 1178 0 
L 603 0 
L 603 3500 
z
M 603 4863 
L 1178 4863 
L 1178 4134 
L 603 4134 
L 603 4863 
z
" transform="scale(0.015625)"/>
       <path id="DejaVuSans-76" d="M 191 3500 
L 800 3500 
L 1894 563 
L 2988 3500 
L 3597 3500 
L 2284 0 
L 1503 0 
L 191 3500 
z
" transform="scale(0.015625)"/>
       <path id="DejaVuSans-73" d="M 2834 3397 
L 2834 2853 
Q 2591 2978 2328 3040 
Q 2066 3103 1784 3103 
Q 1356 3103 1142 2972 
Q 928 2841 928 2578 
Q 928 2378 1081 2264 
Q 1234 2150 1697 2047 
L 1894 2003 
Q 2506 1872 2764 1633 
Q 3022 1394 3022 966 
Q 3022 478 2636 193 
Q 2250 -91 1575 -91 
Q 1294 -91 989 -36 
Q 684 19 347 128 
L 347 722 
Q 666 556 975 473 
Q 1284 391 1588 391 
Q 1994 391 2212 530 
Q 2431 669 2431 922 
Q 2431 1156 2273 1281 
Q 2116 1406 1581 1522 
L 1381 1569 
Q 847 1681 609 1914 
Q 372 2147 372 2553 
Q 372 3047 722 3315 
Q 1072 3584 1716 3584 
Q 2034 3584 2315 3537 
Q 2597 3491 2834 3397 
z
" transform="scale(0.015625)"/>
       <path id="DejaVuSans-50" d="M 1259 4147 
L 1259 2394 
L 2053 2394 
Q 2494 2394 2734 2622 
Q 2975 2850 2975 3272 
Q 2975 3691 2734 3919 
Q 2494 4147 2053 4147 
L 1259 4147 
z
M 628 4666 
L 2053 4666 
Q 2838 4666 3239 4311 
Q 3641 3956 3641 3272 
Q 3641 2581 3239 2228 
Q 2838 1875 2053 1875 
L 1259 1875 
L 1259 0 
L 628 0 
L 628 4666 
z
" transform="scale(0.015625)"/>
       <path id="DejaVuSans-67" d="M 2906 1791 
Q 2906 2416 2648 2759 
Q 2391 3103 1925 3103 
Q 1463 3103 1205 2759 
Q 947 2416 947 1791 
Q 947 1169 1205 825 
Q 1463 481 1925 481 
Q 2391 481 2648 825 
Q 2906 1169 2906 1791 
z
M 3481 434 
Q 3481 -459 3084 -895 
Q 2688 -1331 1869 -1331 
Q 1566 -1331 1297 -1286 
Q 1028 -1241 775 -1147 
L 775 -588 
Q 1028 -725 1275 -790 
Q 1522 -856 1778 -856 
Q 2344 -856 2625 -561 
Q 2906 -266 2906 331 
L 2906 616 
Q 2728 306 2450 153 
Q 2172 0 1784 0 
Q 1141 0 747 490 
Q 353 981 353 1791 
Q 353 2603 747 3093 
Q 1141 3584 1784 3584 
Q 2172 3584 2450 3431 
Q 2728 3278 2906 2969 
L 2906 3500 
L 3481 3500 
L 3481 434 
z
" transform="scale(0.015625)"/>
      </defs>
      <use xlink:href="#DejaVuSans-46"/>
      <use xlink:href="#DejaVuSans-61" transform="translate(48.394531 0)"/>
      <use xlink:href="#DejaVuSans-63" transform="translate(109.673828 0)"/>
      <use xlink:href="#DejaVuSans-75" transform="translate(164.654297 0)"/>
      <use xlink:href="#DejaVuSans-6c" transform="translate(228.033203 0)"/>
      <use xlink:href="#DejaVuSans-74" transform="translate(255.816406 0)"/>
      <use xlink:href="#DejaVuSans-79" transform="translate(295.025391 0)"/>
      <use xlink:href="#DejaVuSans-20" transform="translate(354.205078 0)"/>
      <use xlink:href="#DejaVuSans-6f" transform="translate(385.992188 0)"/>
      <use xlink:href="#DejaVuSans-66" transform="translate(447.173828 0)"/>
      <use xlink:href="#DejaVuSans-20" transform="translate(482.378906 0)"/>
      <use xlink:href="#DejaVuSans-4c" transform="translate(514.166016 0)"/>
      <use xlink:href="#DejaVuSans-61" transform="translate(569.878906 0)"/>
      <use xlink:href="#DejaVuSans-77" transform="translate(631.158203 0)"/>
      <use xlink:href="#DejaVuSans-2c" transform="translate(712.945312 0)"/>
      <use xlink:href="#DejaVuSans-20" transform="translate(744.732422 0)"/>
      <use xlink:href="#DejaVuSans-47" transform="translate(776.519531 0)"/>
      <use xlink:href="#DejaVuSans-65" transform="translate(854.009766 0)"/>
      <use xlink:href="#DejaVuSans-72" transform="translate(915.533203 0)"/>
      <use xlink:href="#DejaVuSans-6d" transform="translate(954.896484 0)"/>
      <use xlink:href="#DejaVuSans-61" transform="translate(1052.308594 0)"/>
      <use xlink:href="#DejaVuSans-6e" transform="translate(1113.587891 0)"/>
      <use xlink:href="#DejaVuSans-20" transform="translate(1176.966797 0)"/>
      <use xlink:href="#DejaVuSans-55" transform="translate(1208.753906 0)"/>
      <use xlink:href="#DejaVuSans-6e" transform="translate(1281.947266 0)"/>
      <use xlink:href="#DejaVuSans-69" transform="translate(1345.326172 0)"/>
      <use xlink:href="#DejaVuSans-76" transform="translate(1373.109375 0)"/>
      <use xlink:href="#DejaVuSans-65" transform="translate(1432.289062 0)"/>
      <use xlink:href="#DejaVuSans-72" transform="translate(1493.8125 0)"/>
      <use xlink:href="#DejaVuSans-73" transform="translate(1534.925781 0)"/>
      <use xlink:href="#DejaVuSans-69" transform="translate(1587.025391 0)"/>
      <use xlink:href="#DejaVuSans-74" transform="translate(1614.808594 0)"/>
      <use xlink:href="#DejaVuSans-79" transform="translate(1654.017578 0)"/>
      <use xlink:href="#DejaVuSans-20" transform="translate(1713.197266 0)"/>
      <use xlink:href="#DejaVuSans-69" transform="translate(1744.984375 0)"/>
      <use xlink:href="#DejaVuSans-6e" transform="translate(1772.767578 0)"/>
      <use xlink:href="#DejaVuSans-20" transform="translate(1836.146484 0)"/>
      <use xlink:href="#DejaVuSans-50" transform="translate(1867.933594 0)"/>
      <use xlink:href="#DejaVuSans-72" transform="translate(1926.486328 0)"/>
      <use xlink:href="#DejaVuSans-61" transform="translate(1967.599609 0)"/>
      <use xlink:href="#DejaVuSans-67" transform="translate(2028.878906 0)"/>
      <use xlink:href="#DejaVuSans-75" transform="translate(2092.355469 0)"/>
      <use xlink:href="#DejaVuSans-65" transform="translate(2155.734375 0)"/>
     </g>
    </g>
   </g>
   <g id="text_2">
    <g clip-path="url(#p45ea1c7dbd)">
     <!-- Leipzig University -->
     <g style="opacity: 0.7" transform="translate(848.296764 994.991471) scale(0.1 -0.1)">
      <defs>
       <path id="DejaVuSans-70" d="M 1159 525 
L 1159 -1331 
L 581 -1331 
L 581 3500 
L 1159 3500 
L 1159 2969 
Q 1341 3281 1617 3432 
Q 1894 3584 2278 3584 
Q 2916 3584 3314 3078 
Q 3713 2572 3713 1747 
Q 3713 922 3314 415 
Q 2916 -91 2278 -91 
Q 1894 -91 1617 61 
Q 1341 213 1159 525 
z
M 3116 1747 
Q 3116 2381 2855 2742 
Q 2594 3103 2138 3103 
Q 1681 3103 1420 2742 
Q 1159 2381 1159 1747 
Q 1159 1113 1420 752 
Q 1681 391 2138 391 
Q 2594 391 2855 752 
Q 3116 1113 3116 1747 
z
" transform="scale(0.015625)"/>
       <path id="DejaVuSans-7a" d="M 353 3500 
L 3084 3500 
L 3084 2975 
L 922 459 
L 3084 459 
L 3084 0 
L 275 0 
L 275 525 
L 2438 3041 
L 353 3041 
L 353 3500 
z
" transform="scale(0.015625)"/>
      </defs>
      <use xlink:href="#DejaVuSans-4c"/>
      <use xlink:href="#DejaVuSans-65" transform="translate(53.962891 0)"/>
      <use xlink:href="#DejaVuSans-69" transform="translate(115.486328 0)"/>
      <use xlink:href="#DejaVuSans-70" transform="translate(143.269531 0)"/>
      <use xlink:href="#DejaVuSans-7a" transform="translate(206.746094 0)"/>
      <use xlink:href="#DejaVuSans-69" transform="translate(259.236328 0)"/>
      <use xlink:href="#DejaVuSans-67" transform="translate(287.019531 0)"/>
      <use xlink:href="#DejaVuSans-20" transform="translate(350.496094 0)"/>
      <use xlink:href="#DejaVuSans-55" transform="translate(382.283203 0)"/>
      <use xlink:href="#DejaVuSans-6e" transform="translate(455.476562 0)"/>
      <use xlink:href="#DejaVuSans-69" transform="translate(518.855469 0)"/>
      <use xlink:href="#DejaVuSans-76" transform="translate(546.638672 0)"/>
      <use xlink:href="#DejaVuSans-65" transform="translate(605.818359 0)"/>
      <use xlink:href="#DejaVuSans-72" transform="translate(667.341797 0)"/>
      <use xlink:href="#DejaVuSans-73" transform="translate(708.455078 0)"/>
      <use xlink:href="#DejaVuSans-69" transform="translate(760.554688 0)"/>
      <use xlink:href="#DejaVuSans-74" transform="translate(788.337891 0)"/>
      <use xlink:href="#DejaVuSans-79" transform="translate(827.546875 0)"/>
     </g>
    </g>
   </g>
   <g id="text_3">
    <g clip-path="url(#p45ea1c7dbd)">
     <!-- Heidelberg University -->
     <g style="opacity: 0.7" transform="translate(863.399459 1086.969624) scale(0.1 -0.1)">
      <defs>
       <path id="DejaVuSans-48" d="M 628 4666 
L 1259 4666 
L 1259 2753 
L 3553 2753 
L 3553 4666 
L 4184 4666 
L 4184 0 
L 3553 0 
L 3553 2222 
L 1259 2222 
L 1259 0 
L 628 0 
L 628 4666 
z
" transform="scale(0.015625)"/>
       <path id="DejaVuSans-64" d="M 2906 2969 
L 2906 4863 
L 3481 4863 
L 3481 0 
L 2906 0 
L 2906 525 
Q 2725 213 2448 61 
Q 2172 -91 1784 -91 
Q 1150 -91 751 415 
Q 353 922 353 1747 
Q 353 2572 751 3078 
Q 1150 3584 1784 3584 
Q 2172 3584 2448 3432 
Q 2725 3281 2906 2969 
z
M 947 1747 
Q 947 1113 1208 752 
Q 1469 391 1925 391 
Q 2381 391 2643 752 
Q 2906 1113 2906 1747 
Q 2906 2381 2643 2742 
Q 2381 3103 1925 3103 
Q 1469 3103 1208 2742 
Q 947 2381 947 1747 
z
" transform="scale(0.015625)"/>
       <path id="DejaVuSans-62" d="M 3116 1747 
Q 3116 2381 2855 2742 
Q 2594 3103 2138 3103 
Q 1681 3103 1420 2742 
Q 1159 2381 1159 1747 
Q 1159 1113 1420 752 
Q 1681 391 2138 391 
Q 2594 391 2855 752 
Q 3116 1113 3116 1747 
z
M 1159 2969 
Q 1341 3281 1617 3432 
Q 1894 3584 2278 3584 
Q 2916 3584 3314 3078 
Q 3713 2572 3713 1747 
Q 3713 922 3314 415 
Q 2916 -91 2278 -91 
Q 1894 -91 1617 61 
Q 1341 213 1159 525 
L 1159 0 
L 581 0 
L 581 4863 
L 1159 4863 
L 1159 2969 
z
" transform="scale(0.015625)"/>
      </defs>
      <use xlink:href="#DejaVuSans-48"/>
      <use xlink:href="#DejaVuSans-65" transform="translate(75.195312 0)"/>
      <use xlink:href="#DejaVuSans-69" transform="translate(136.71875 0)"/>
      <use xlink:href="#DejaVuSans-64" transform="translate(164.501953 0)"/>
      <use xlink:href="#DejaVuSans-65" transform="translate(227.978516 0)"/>
      <use xlink:href="#DejaVuSans-6c" transform="translate(289.501953 0)"/>
      <use xlink:href="#DejaVuSans-62" transform="translate(317.285156 0)"/>
      <use xlink:href="#DejaVuSans-65" transform="translate(380.761719 0)"/>
      <use xlink:href="#DejaVuSans-72" transform="translate(442.285156 0)"/>
      <use xlink:href="#DejaVuSans-67" transform="translate(481.648438 0)"/>
      <use xlink:href="#DejaVuSans-20" transform="translate(545.125 0)"/>
      <use xlink:href="#DejaVuSans-55" transform="translate(576.912109 0)"/>
      <use xlink:href="#DejaVuSans-6e" transform="translate(650.105469 0)"/>
      <use xlink:href="#DejaVuSans-69" transform="translate(713.484375 0)"/>
      <use xlink:href="#DejaVuSans-76" transform="translate(741.267578 0)"/>
      <use xlink:href="#DejaVuSans-65" transform="translate(800.447266 0)"/>
      <use xlink:href="#DejaVuSans-72" transform="translate(861.970703 0)"/>
      <use xlink:href="#DejaVuSans-73" transform="translate(903.083984 0)"/>
      <use xlink:href="#DejaVuSans-69" transform="translate(955.183594 0)"/>
      <use xlink:href="#DejaVuSans-74" transform="translate(982.966797 0)"/>
      <use xlink:href="#DejaVuSans-79" transform="translate(1022.175781 0)"/>
     </g>
    </g>
   </g>
   <g id="text_4">
    <g clip-path="url(#p45ea1c7dbd)">
     <!-- University of Münster -->
     <g style="opacity: 0.7" transform="translate(781.824266 1329.925976) scale(0.1 -0.1)">
      <defs>
       <path id="DejaVuSans-4d" d="M 628 4666 
L 1569 4666 
L 2759 1491 
L 3956 4666 
L 4897 4666 
L 4897 0 
L 4281 0 
L 4281 4097 
L 3078 897 
L 2444 897 
L 1241 4097 
L 1241 0 
L 628 0 
L 628 4666 
z
" transform="scale(0.015625)"/>
       <path id="DejaVuSans-fc" d="M 544 1381 
L 544 3500 
L 1119 3500 
L 1119 1403 
Q 1119 906 1312 657 
Q 1506 409 1894 409 
Q 2359 409 2629 706 
Q 2900 1003 2900 1516 
L 2900 3500 
L 3475 3500 
L 3475 0 
L 2900 0 
L 2900 538 
Q 2691 219 2414 64 
Q 2138 -91 1772 -91 
Q 1169 -91 856 284 
Q 544 659 544 1381 
z
M 1991 3584 
L 1991 3584 
z
M 2278 4850 
L 2912 4850 
L 2912 4219 
L 2278 4219 
L 2278 4850 
z
M 1056 4850 
L 1690 4850 
L 1690 4219 
L 1056 4219 
L 1056 4850 
z
" transform="scale(0.015625)"/>
      </defs>
      <use xlink:href="#DejaVuSans-55"/>
      <use xlink:href="#DejaVuSans-6e" transform="translate(73.193359 0)"/>
      <use xlink:href="#DejaVuSans-69" transform="translate(136.572266 0)"/>
      <use xlink:href="#DejaVuSans-76" transform="translate(164.355469 0)"/>
      <use xlink:href="#DejaVuSans-65" transform="translate(223.535156 0)"/>
      <use xlink:href="#DejaVuSans-72" transform="translate(285.058594 0)"/>
      <use xlink:href="#DejaVuSans-73" transform="translate(326.171875 0)"/>
      <use xlink:href="#DejaVuSans-69" transform="translate(378.271484 0)"/>
      <use xlink:href="#DejaVuSans-74" transform="translate(406.054688 0)"/>
      <use xlink:href="#DejaVuSans-79" transform="translate(445.263672 0)"/>
      <use xlink:href="#DejaVuSans-20" transform="translate(504.443359 0)"/>
      <use xlink:href="#DejaVuSans-6f" transform="translate(536.230469 0)"/>
      <use xlink:href="#DejaVuSans-66" transform="translate(597.412109 0)"/>
      <use xlink:href="#DejaVuSans-20" transform="translate(632.617188 0)"/>
      <use xlink:href="#DejaVuSans-4d" transform="translate(664.404297 0)"/>
      <use xlink:href="#DejaVuSans-fc" transform="translate(750.683594 0)"/>
      <use xlink:href="#DejaVuSans-6e" transform="translate(814.0625 0)"/>
      <use xlink:href="#DejaVuSans-73" transform="translate(877.441406 0)"/>
      <use xlink:href="#DejaVuSans-74" transform="translate(929.541016 0)"/>
      <use xlink:href="#DejaVuSans-65" transform="translate(968.75 0)"/>
      <use xlink:href="#DejaVuSans-72" transform="translate(1030.273438 0)"/>
     </g>
    </g>
   </g>
   <g id="text_5">
    <g clip-path="url(#p45ea1c7dbd)">
     <!-- University of Vienna -->
     <g style="opacity: 0.7" transform="translate(713.403064 823.596566) scale(0.1 -0.1)">
      <defs>
       <path id="DejaVuSans-56" d="M 1831 0 
L 50 4666 
L 709 4666 
L 2188 738 
L 3669 4666 
L 4325 4666 
L 2547 0 
L 1831 0 
z
" transform="scale(0.015625)"/>
      </defs>
      <use xlink:href="#DejaVuSans-55"/>
      <use xlink:href="#DejaVuSans-6e" transform="translate(73.193359 0)"/>
      <use xlink:href="#DejaVuSans-69" transform="translate(136.572266 0)"/>
      <use xlink:href="#DejaVuSans-76" transform="translate(164.355469 0)"/>
      <use xlink:href="#DejaVuSans-65" transform="translate(223.535156 0)"/>
      <use xlink:href="#DejaVuSans-72" transform="translate(285.058594 0)"/>
      <use xlink:href="#DejaVuSans-73" transform="translate(326.171875 0)"/>
      <use xlink:href="#DejaVuSans-69" transform="translate(378.271484 0)"/>
      <use xlink:href="#DejaVuSans-74" transform="translate(406.054688 0)"/>
      <use xlink:href="#DejaVuSans-79" transform="translate(445.263672 0)"/>
      <use xlink:href="#DejaVuSans-20" transform="translate(504.443359 0)"/>
      <use xlink:href="#DejaVuSans-6f" transform="translate(536.230469 0)"/>
      <use xlink:href="#DejaVuSans-66" transform="translate(597.412109 0)"/>
      <use xlink:href="#DejaVuSans-20" transform="translate(632.617188 0)"/>
      <use xlink:href="#DejaVuSans-56" transform="translate(664.404297 0)"/>
      <use xlink:href="#DejaVuSans-69" transform="translate(730.5625 0)"/>
      <use xlink:href="#DejaVuSans-65" transform="translate(758.345703 0)"/>
      <use xlink:href="#DejaVuSans-6e" transform="translate(819.869141 0)"/>
      <use xlink:href="#DejaVuSans-6e" transform="translate(883.248047 0)"/>
      <use xlink:href="#DejaVuSans-61" transform="translate(946.626953 0)"/>
     </g>
    </g>
   </g>
   <g id="text_6">
    <g clip-path="url(#p45ea1c7dbd)">
     <!-- University of Greifswald -->
     <g style="opacity: 0.7" transform="translate(890.510019 926.995097) scale(0.1 -0.1)">
      <use xlink:href="#DejaVuSans-55"/>
      <use xlink:href="#DejaVuSans-6e" transform="translate(73.193359 0)"/>
      <use xlink:href="#DejaVuSans-69" transform="translate(136.572266 0)"/>
      <use xlink:href="#DejaVuSans-76" transform="translate(164.355469 0)"/>
      <use xlink:href="#DejaVuSans-65" transform="translate(223.535156 0)"/>
      <use xlink:href="#DejaVuSans-72" transform="translate(285.058594 0)"/>
      <use xlink:href="#DejaVuSans-73" transform="translate(326.171875 0)"/>
      <use xlink:href="#DejaVuSans-69" transform="translate(378.271484 0)"/>
      <use xlink:href="#DejaVuSans-74" transform="translate(406.054688 0)"/>
      <use xlink:href="#DejaVuSans-79" transform="translate(445.263672 0)"/>
      <use xlink:href="#DejaVuSans-20" transform="translate(504.443359 0)"/>
      <use xlink:href="#DejaVuSans-6f" transform="translate(536.230469 0)"/>
      <use xlink:href="#DejaVuSans-66" transform="translate(597.412109 0)"/>
      <use xlink:href="#DejaVuSans-20" transform="translate(632.617188 0)"/>
      <use xlink:href="#DejaVuSans-47" transform="translate(664.404297 0)"/>
      <use xlink:href="#DejaVuSans-72" transform="translate(741.894531 0)"/>
      <use xlink:href="#DejaVuSans-65" transform="translate(780.757812 0)"/>
      <use xlink:href="#DejaVuSans-69" transform="translate(842.28125 0)"/>
      <use xlink:href="#DejaVuSans-66" transform="translate(870.064453 0)"/>
      <use xlink:href="#DejaVuSans-73" transform="translate(905.269531 0)"/>
      <use xlink:href="#DejaVuSans-77" transform="translate(957.369141 0)"/>
      <use xlink:href="#DejaVuSans-61" transform="translate(1039.15625 0)"/>
      <use xlink:href="#DejaVuSans-6c" transform="translate(1100.435547 0)"/>
      <use xlink:href="#DejaVuSans-64" transform="translate(1128.21875 0)"/>
     </g>
    </g>
   </g>
   <g id="text_7">
    <g clip-path="url(#p45ea1c7dbd)">
     <!-- University of Innsbruck -->
     <g style="opacity: 0.7" transform="translate(722.64576 671.856654) scale(0.1 -0.1)">
      <defs>
       <path id="DejaVuSans-49" d="M 628 4666 
L 1259 4666 
L 1259 0 
L 628 0 
L 628 4666 
z
" transform="scale(0.015625)"/>
       <path id="DejaVuSans-6b" d="M 581 4863 
L 1159 4863 
L 1159 1991 
L 2875 3500 
L 3609 3500 
L 1753 1863 
L 3688 0 
L 2938 0 
L 1159 1709 
L 1159 0 
L 581 0 
L 581 4863 
z
" transform="scale(0.015625)"/>
      </defs>
      <use xlink:href="#DejaVuSans-55"/>
      <use xlink:href="#DejaVuSans-6e" transform="translate(73.193359 0)"/>
      <use xlink:href="#DejaVuSans-69" transform="translate(136.572266 0)"/>
      <use xlink:href="#DejaVuSans-76" transform="translate(164.355469 0)"/>
      <use xlink:href="#DejaVuSans-65" transform="translate(223.535156 0)"/>
      <use xlink:href="#DejaVuSans-72" transform="translate(285.058594 0)"/>
      <use xlink:href="#DejaVuSans-73" transform="translate(326.171875 0)"/>
      <use xlink:href="#DejaVuSans-69" transform="translate(378.271484 0)"/>
      <use xlink:href="#DejaVuSans-74" transform="translate(406.054688 0)"/>
      <use xlink:href="#DejaVuSans-79" transform="translate(445.263672 0)"/>
      <use xlink:href="#DejaVuSans-20" transform="translate(504.443359 0)"/>
      <use xlink:href="#DejaVuSans-6f" transform="translate(536.230469 0)"/>
      <use xlink:href="#DejaVuSans-66" transform="translate(597.412109 0)"/>
      <use xlink:href="#DejaVuSans-20" transform="translate(632.617188 0)"/>
      <use xlink:href="#DejaVuSans-49" transform="translate(664.404297 0)"/>
      <use xlink:href="#DejaVuSans-6e" transform="translate(693.896484 0)"/>
      <use xlink:href="#DejaVuSans-6e" transform="translate(757.275391 0)"/>
      <use xlink:href="#DejaVuSans-73" transform="translate(820.654297 0)"/>
      <use xlink:href="#DejaVuSans-62" transform="translate(872.753906 0)"/>
      <use xlink:href="#DejaVuSans-72" transform="translate(936.230469 0)"/>
      <use xlink:href="#DejaVuSans-75" transform="translate(977.34375 0)"/>
      <use xlink:href="#DejaVuSans-63" transform="translate(1040.722656 0)"/>
      <use xlink:href="#DejaVuSans-6b" transform="translate(1095.703125 0)"/>
     </g>
    </g>
   </g>
   <g id="text_8">
    <g clip-path="url(#p45ea1c7dbd)">
     <!-- philosophy faculty of the German university of Prague -->
     <g style="opacity: 0.7" transform="translate(1119.585276 920.750727) scale(0.1 -0.1)">
      <defs>
       <path id="DejaVuSans-68" d="M 3513 2113 
L 3513 0 
L 2938 0 
L 2938 2094 
Q 2938 2591 2744 2837 
Q 2550 3084 2163 3084 
Q 1697 3084 1428 2787 
Q 1159 2491 1159 1978 
L 1159 0 
L 581 0 
L 581 4863 
L 1159 4863 
L 1159 2956 
Q 1366 3272 1645 3428 
Q 1925 3584 2291 3584 
Q 2894 3584 3203 3211 
Q 3513 2838 3513 2113 
z
" transform="scale(0.015625)"/>
      </defs>
      <use xlink:href="#DejaVuSans-70"/>
      <use xlink:href="#DejaVuSans-68" transform="translate(63.476562 0)"/>
      <use xlink:href="#DejaVuSans-69" transform="translate(126.855469 0)"/>
      <use xlink:href="#DejaVuSans-6c" transform="translate(154.638672 0)"/>
      <use xlink:href="#DejaVuSans-6f" transform="translate(182.421875 0)"/>
      <use xlink:href="#DejaVuSans-73" transform="translate(243.603516 0)"/>
      <use xlink:href="#DejaVuSans-6f" transform="translate(295.703125 0)"/>
      <use xlink:href="#DejaVuSans-70" transform="translate(356.884766 0)"/>
      <use xlink:href="#DejaVuSans-68" transform="translate(420.361328 0)"/>
      <use xlink:href="#DejaVuSans-79" transform="translate(483.740234 0)"/>
      <use xlink:href="#DejaVuSans-20" transform="translate(542.919922 0)"/>
      <use xlink:href="#DejaVuSans-66" transform="translate(574.707031 0)"/>
      <use xlink:href="#DejaVuSans-61" transform="translate(609.912109 0)"/>
      <use xlink:href="#DejaVuSans-63" transform="translate(671.191406 0)"/>
      <use xlink:href="#DejaVuSans-75" transform="translate(726.171875 0)"/>
      <use xlink:href="#DejaVuSans-6c" transform="translate(789.550781 0)"/>
      <use xlink:href="#DejaVuSans-74" transform="translate(817.333984 0)"/>
      <use xlink:href="#DejaVuSans-79" transform="translate(856.542969 0)"/>
      <use xlink:href="#DejaVuSans-20" transform="translate(915.722656 0)"/>
      <use xlink:href="#DejaVuSans-6f" transform="translate(947.509766 0)"/>
      <use xlink:href="#DejaVuSans-66" transform="translate(1008.691406 0)"/>
      <use xlink:href="#DejaVuSans-20" transform="translate(1043.896484 0)"/>
      <use xlink:href="#DejaVuSans-74" transform="translate(1075.683594 0)"/>
      <use xlink:href="#DejaVuSans-68" transform="translate(1114.892578 0)"/>
      <use xlink:href="#DejaVuSans-65" transform="translate(1178.271484 0)"/>
      <use xlink:href="#DejaVuSans-20" transform="translate(1239.794922 0)"/>
      <use xlink:href="#DejaVuSans-47" transform="translate(1271.582031 0)"/>
      <use xlink:href="#DejaVuSans-65" transform="translate(1349.072266 0)"/>
      <use xlink:href="#DejaVuSans-72" transform="translate(1410.595703 0)"/>
      <use xlink:href="#DejaVuSans-6d" transform="translate(1449.958984 0)"/>
      <use xlink:href="#DejaVuSans-61" transform="translate(1547.371094 0)"/>
      <use xlink:href="#DejaVuSans-6e" transform="translate(1608.650391 0)"/>
      <use xlink:href="#DejaVuSans-20" transform="translate(1672.029297 0)"/>
      <use xlink:href="#DejaVuSans-75" transform="translate(1703.816406 0)"/>
      <use xlink:href="#DejaVuSans-6e" transform="translate(1767.195312 0)"/>
      <use xlink:href="#DejaVuSans-69" transform="translate(1830.574219 0)"/>
      <use xlink:href="#DejaVuSans-76" transform="translate(1858.357422 0)"/>
      <use xlink:href="#DejaVuSans-65" transform="translate(1917.537109 0)"/>
      <use xlink:href="#DejaVuSans-72" transform="translate(1979.060547 0)"/>
      <use xlink:href="#DejaVuSans-73" transform="translate(2020.173828 0)"/>
      <use xlink:href="#DejaVuSans-69" transform="translate(2072.273438 0)"/>
      <use xlink:href="#DejaVuSans-74" transform="translate(2100.056641 0)"/>
      <use xlink:href="#DejaVuSans-79" transform="translate(2139.265625 0)"/>
      <use xlink:href="#DejaVuSans-20" transform="translate(2198.445312 0)"/>
      <use xlink:href="#DejaVuSans-6f" transform="translate(2230.232422 0)"/>
      <use xlink:href="#DejaVuSans-66" transform="translate(2291.414062 0)"/>
      <use xlink:href="#DejaVuSans-20" transform="translate(2326.619141 0)"/>
      <use xlink:href="#DejaVuSans-50" transform="translate(2358.40625 0)"/>
      <use xlink:href="#DejaVuSans-72" transform="translate(2416.958984 0)"/>
      <use xlink:href="#DejaVuSans-61" transform="translate(2458.072266 0)"/>
      <use xlink:href="#DejaVuSans-67" transform="translate(2519.351562 0)"/>
      <use xlink:href="#DejaVuSans-75" transform="translate(2582.828125 0)"/>
      <use xlink:href="#DejaVuSans-65" transform="translate(2646.207031 0)"/>
     </g>
    </g>
   </g>
   <g id="text_9">
    <g clip-path="url(#p45ea1c7dbd)">
     <!-- University of Marburg -->
     <g style="opacity: 0.7" transform="translate(627.542542 891.932352) scale(0.1 -0.1)">
      <use xlink:href="#DejaVuSans-55"/>
      <use xlink:href="#DejaVuSans-6e" transform="translate(73.193359 0)"/>
      <use xlink:href="#DejaVuSans-69" transform="translate(136.572266 0)"/>
      <use xlink:href="#DejaVuSans-76" transform="translate(164.355469 0)"/>
      <use xlink:href="#DejaVuSans-65" transform="translate(223.535156 0)"/>
      <use xlink:href="#DejaVuSans-72" transform="translate(285.058594 0)"/>
      <use xlink:href="#DejaVuSans-73" transform="translate(326.171875 0)"/>
      <use xlink:href="#DejaVuSans-69" transform="translate(378.271484 0)"/>
      <use xlink:href="#DejaVuSans-74" transform="translate(406.054688 0)"/>
      <use xlink:href="#DejaVuSans-79" transform="translate(445.263672 0)"/>
      <use xlink:href="#DejaVuSans-20" transform="translate(504.443359 0)"/>
      <use xlink:href="#DejaVuSans-6f" transform="translate(536.230469 0)"/>
      <use xlink:href="#DejaVuSans-66" transform="translate(597.412109 0)"/>
      <use xlink:href="#DejaVuSans-20" transform="translate(632.617188 0)"/>
      <use xlink:href="#DejaVuSans-4d" transform="translate(664.404297 0)"/>
      <use xlink:href="#DejaVuSans-61" transform="translate(750.683594 0)"/>
      <use xlink:href="#DejaVuSans-72" transform="translate(811.962891 0)"/>
      <use xlink:href="#DejaVuSans-62" transform="translate(853.076172 0)"/>
      <use xlink:href="#DejaVuSans-75" transform="translate(916.552734 0)"/>
      <use xlink:href="#DejaVuSans-72" transform="translate(979.931641 0)"/>
      <use xlink:href="#DejaVuSans-67" transform="translate(1019.294922 0)"/>
     </g>
    </g>
   </g>
   <g id="text_10">
    <g clip-path="url(#p45ea1c7dbd)">
     <!-- faculty of science, German University in Prague -->
     <g style="opacity: 0.7" transform="translate(1208.09082 822.664331) scale(0.1 -0.1)">
      <use xlink:href="#DejaVuSans-66"/>
      <use xlink:href="#DejaVuSans-61" transform="translate(35.205078 0)"/>
      <use xlink:href="#DejaVuSans-63" transform="translate(96.484375 0)"/>
      <use xlink:href="#DejaVuSans-75" transform="translate(151.464844 0)"/>
      <use xlink:href="#DejaVuSans-6c" transform="translate(214.84375 0)"/>
      <use xlink:href="#DejaVuSans-74" transform="translate(242.626953 0)"/>
      <use xlink:href="#DejaVuSans-79" transform="translate(281.835938 0)"/>
      <use xlink:href="#DejaVuSans-20" transform="translate(341.015625 0)"/>
      <use xlink:href="#DejaVuSans-6f" transform="translate(372.802734 0)"/>
      <use xlink:href="#DejaVuSans-66" transform="translate(433.984375 0)"/>
      <use xlink:href="#DejaVuSans-20" transform="translate(469.189453 0)"/>
      <use xlink:href="#DejaVuSans-73" transform="translate(500.976562 0)"/>
      <use xlink:href="#DejaVuSans-63" transform="translate(553.076172 0)"/>
      <use xlink:href="#DejaVuSans-69" transform="translate(608.056641 0)"/>
      <use xlink:href="#DejaVuSans-65" transform="translate(635.839844 0)"/>
      <use xlink:href="#DejaVuSans-6e" transform="translate(697.363281 0)"/>
      <use xlink:href="#DejaVuSans-63" transform="translate(760.742188 0)"/>
      <use xlink:href="#DejaVuSans-65" transform="translate(815.722656 0)"/>
      <use xlink:href="#DejaVuSans-2c" transform="translate(877.246094 0)"/>
      <use xlink:href="#DejaVuSans-20" transform="translate(909.033203 0)"/>
      <use xlink:href="#DejaVuSans-47" transform="translate(940.820312 0)"/>
      <use xlink:href="#DejaVuSans-65" transform="translate(1018.310547 0)"/>
      <use xlink:href="#DejaVuSans-72" transform="translate(1079.833984 0)"/>
      <use xlink:href="#DejaVuSans-6d" transform="translate(1119.197266 0)"/>
      <use xlink:href="#DejaVuSans-61" transform="translate(1216.609375 0)"/>
      <use xlink:href="#DejaVuSans-6e" transform="translate(1277.888672 0)"/>
      <use xlink:href="#DejaVuSans-20" transform="translate(1341.267578 0)"/>
      <use xlink:href="#DejaVuSans-55" transform="translate(1373.054688 0)"/>
      <use xlink:href="#DejaVuSans-6e" transform="translate(1446.248047 0)"/>
      <use xlink:href="#DejaVuSans-69" transform="translate(1509.626953 0)"/>
      <use xlink:href="#DejaVuSans-76" transform="translate(1537.410156 0)"/>
      <use xlink:href="#DejaVuSans-65" transform="translate(1596.589844 0)"/>
      <use xlink:href="#DejaVuSans-72" transform="translate(1658.113281 0)"/>
      <use xlink:href="#DejaVuSans-73" transform="translate(1699.226562 0)"/>
      <use xlink:href="#DejaVuSans-69" transform="translate(1751.326172 0)"/>
      <use xlink:href="#DejaVuSans-74" transform="translate(1779.109375 0)"/>
      <use xlink:href="#DejaVuSans-79" transform="translate(1818.318359 0)"/>
      <use xlink:href="#DejaVuSans-20" transform="translate(1877.498047 0)"/>
      <use xlink:href="#DejaVuSans-69" transform="translate(1909.285156 0)"/>
      <use xlink:href="#DejaVuSans-6e" transform="translate(1937.068359 0)"/>
      <use xlink:href="#DejaVuSans-20" transform="translate(2000.447266 0)"/>
      <use xlink:href="#DejaVuSans-50" transform="translate(2032.234375 0)"/>
      <use xlink:href="#DejaVuSans-72" transform="translate(2090.787109 0)"/>
      <use xlink:href="#DejaVuSans-61" transform="translate(2131.900391 0)"/>
      <use xlink:href="#DejaVuSans-67" transform="translate(2193.179688 0)"/>
      <use xlink:href="#DejaVuSans-75" transform="translate(2256.65625 0)"/>
      <use xlink:href="#DejaVuSans-65" transform="translate(2320.035156 0)"/>
     </g>
    </g>
   </g>
   <g id="text_11">
    <g clip-path="url(#p45ea1c7dbd)">
     <!-- Ludwig-Maximilians-Universität München -->
     <g style="opacity: 0.7" transform="translate(763.923523 1177.797776) scale(0.1 -0.1)">
      <defs>
       <path id="DejaVuSans-2d" d="M 313 2009 
L 1997 2009 
L 1997 1497 
L 313 1497 
L 313 2009 
z
" transform="scale(0.015625)"/>
       <path id="DejaVuSans-78" d="M 3513 3500 
L 2247 1797 
L 3578 0 
L 2900 0 
L 1881 1375 
L 863 0 
L 184 0 
L 1544 1831 
L 300 3500 
L 978 3500 
L 1906 2253 
L 2834 3500 
L 3513 3500 
z
" transform="scale(0.015625)"/>
       <path id="DejaVuSans-e4" d="M 2194 1759 
Q 1497 1759 1228 1600 
Q 959 1441 959 1056 
Q 959 750 1161 570 
Q 1363 391 1709 391 
Q 2188 391 2477 730 
Q 2766 1069 2766 1631 
L 2766 1759 
L 2194 1759 
z
M 3341 1997 
L 3341 0 
L 2766 0 
L 2766 531 
Q 2569 213 2275 61 
Q 1981 -91 1556 -91 
Q 1019 -91 701 211 
Q 384 513 384 1019 
Q 384 1609 779 1909 
Q 1175 2209 1959 2209 
L 2766 2209 
L 2766 2266 
Q 2766 2663 2505 2880 
Q 2244 3097 1772 3097 
Q 1472 3097 1187 3025 
Q 903 2953 641 2809 
L 641 3341 
Q 956 3463 1253 3523 
Q 1550 3584 1831 3584 
Q 2591 3584 2966 3190 
Q 3341 2797 3341 1997 
z
M 2150 4850 
L 2784 4850 
L 2784 4219 
L 2150 4219 
L 2150 4850 
z
M 928 4850 
L 1562 4850 
L 1562 4219 
L 928 4219 
L 928 4850 
z
" transform="scale(0.015625)"/>
      </defs>
      <use xlink:href="#DejaVuSans-4c"/>
      <use xlink:href="#DejaVuSans-75" transform="translate(53.962891 0)"/>
      <use xlink:href="#DejaVuSans-64" transform="translate(117.341797 0)"/>
      <use xlink:href="#DejaVuSans-77" transform="translate(180.818359 0)"/>
      <use xlink:href="#DejaVuSans-69" transform="translate(262.605469 0)"/>
      <use xlink:href="#DejaVuSans-67" transform="translate(290.388672 0)"/>
      <use xlink:href="#DejaVuSans-2d" transform="translate(353.865234 0)"/>
      <use xlink:href="#DejaVuSans-4d" transform="translate(389.949219 0)"/>
      <use xlink:href="#DejaVuSans-61" transform="translate(476.228516 0)"/>
      <use xlink:href="#DejaVuSans-78" transform="translate(537.507812 0)"/>
      <use xlink:href="#DejaVuSans-69" transform="translate(596.6875 0)"/>
      <use xlink:href="#DejaVuSans-6d" transform="translate(624.470703 0)"/>
      <use xlink:href="#DejaVuSans-69" transform="translate(721.882812 0)"/>
      <use xlink:href="#DejaVuSans-6c" transform="translate(749.666016 0)"/>
      <use xlink:href="#DejaVuSans-69" transform="translate(777.449219 0)"/>
      <use xlink:href="#DejaVuSans-61" transform="translate(805.232422 0)"/>
      <use xlink:href="#DejaVuSans-6e" transform="translate(866.511719 0)"/>
      <use xlink:href="#DejaVuSans-73" transform="translate(929.890625 0)"/>
      <use xlink:href="#DejaVuSans-2d" transform="translate(981.990234 0)"/>
      <use xlink:href="#DejaVuSans-55" transform="translate(1018.074219 0)"/>
      <use xlink:href="#DejaVuSans-6e" transform="translate(1091.267578 0)"/>
      <use xlink:href="#DejaVuSans-69" transform="translate(1154.646484 0)"/>
      <use xlink:href="#DejaVuSans-76" transform="translate(1182.429688 0)"/>
      <use xlink:href="#DejaVuSans-65" transform="translate(1241.609375 0)"/>
      <use xlink:href="#DejaVuSans-72" transform="translate(1303.132812 0)"/>
      <use xlink:href="#DejaVuSans-73" transform="translate(1344.246094 0)"/>
      <use xlink:href="#DejaVuSans-69" transform="translate(1396.345703 0)"/>
      <use xlink:href="#DejaVuSans-74" transform="translate(1424.128906 0)"/>
      <use xlink:href="#DejaVuSans-e4" transform="translate(1463.337891 0)"/>
      <use xlink:href="#DejaVuSans-74" transform="translate(1524.617188 0)"/>
      <use xlink:href="#DejaVuSans-20" transform="translate(1563.826172 0)"/>
      <use xlink:href="#DejaVuSans-4d" transform="translate(1595.613281 0)"/>
      <use xlink:href="#DejaVuSans-fc" transform="translate(1681.892578 0)"/>
      <use xlink:href="#DejaVuSans-6e" transform="translate(1745.271484 0)"/>
      <use xlink:href="#DejaVuSans-63" transform="translate(1808.650391 0)"/>
      <use xlink:href="#DejaVuSans-68" transform="translate(1863.630859 0)"/>
      <use xlink:href="#DejaVuSans-65" transform="translate(1927.009766 0)"/>
      <use xlink:href="#DejaVuSans-6e" transform="translate(1988.533203 0)"/>
     </g>
    </g>
   </g>
   <g id="text_12">
    <g clip-path="url(#p45ea1c7dbd)">
     <!-- Lviv University -->
     <g style="opacity: 0.7" transform="translate(674.234058 682.456782) scale(0.1 -0.1)">
      <use xlink:href="#DejaVuSans-4c"/>
      <use xlink:href="#DejaVuSans-76" transform="translate(55.712891 0)"/>
      <use xlink:href="#DejaVuSans-69" transform="translate(114.892578 0)"/>
      <use xlink:href="#DejaVuSans-76" transform="translate(142.675781 0)"/>
      <use xlink:href="#DejaVuSans-20" transform="translate(201.855469 0)"/>
      <use xlink:href="#DejaVuSans-55" transform="translate(233.642578 0)"/>
      <use xlink:href="#DejaVuSans-6e" transform="translate(306.835938 0)"/>
      <use xlink:href="#DejaVuSans-69" transform="translate(370.214844 0)"/>
      <use xlink:href="#DejaVuSans-76" transform="translate(397.998047 0)"/>
      <use xlink:href="#DejaVuSans-65" transform="translate(457.177734 0)"/>
      <use xlink:href="#DejaVuSans-72" transform="translate(518.701172 0)"/>
      <use xlink:href="#DejaVuSans-73" transform="translate(559.814453 0)"/>
      <use xlink:href="#DejaVuSans-69" transform="translate(611.914062 0)"/>
      <use xlink:href="#DejaVuSans-74" transform="translate(639.697266 0)"/>
      <use xlink:href="#DejaVuSans-79" transform="translate(678.90625 0)"/>
     </g>
    </g>
   </g>
   <g id="text_13">
    <g clip-path="url(#p45ea1c7dbd)">
     <!-- University of Lausanne -->
     <g style="opacity: 0.7" transform="translate(1020.791443 1040.712346) scale(0.1 -0.1)">
      <use xlink:href="#DejaVuSans-55"/>
      <use xlink:href="#DejaVuSans-6e" transform="translate(73.193359 0)"/>
      <use xlink:href="#DejaVuSans-69" transform="translate(136.572266 0)"/>
      <use xlink:href="#DejaVuSans-76" transform="translate(164.355469 0)"/>
      <use xlink:href="#DejaVuSans-65" transform="translate(223.535156 0)"/>
      <use xlink:href="#DejaVuSans-72" transform="translate(285.058594 0)"/>
      <use xlink:href="#DejaVuSans-73" transform="translate(326.171875 0)"/>
      <use xlink:href="#DejaVuSans-69" transform="translate(378.271484 0)"/>
      <use xlink:href="#DejaVuSans-74" transform="translate(406.054688 0)"/>
      <use xlink:href="#DejaVuSans-79" transform="translate(445.263672 0)"/>
      <use xlink:href="#DejaVuSans-20" transform="translate(504.443359 0)"/>
      <use xlink:href="#DejaVuSans-6f" transform="translate(536.230469 0)"/>
      <use xlink:href="#DejaVuSans-66" transform="translate(597.412109 0)"/>
      <use xlink:href="#DejaVuSans-20" transform="translate(632.617188 0)"/>
      <use xlink:href="#DejaVuSans-4c" transform="translate(664.404297 0)"/>
      <use xlink:href="#DejaVuSans-61" transform="translate(720.117188 0)"/>
      <use xlink:href="#DejaVuSans-75" transform="translate(781.396484 0)"/>
      <use xlink:href="#DejaVuSans-73" transform="translate(844.775391 0)"/>
      <use xlink:href="#DejaVuSans-61" transform="translate(896.875 0)"/>
      <use xlink:href="#DejaVuSans-6e" transform="translate(958.154297 0)"/>
      <use xlink:href="#DejaVuSans-6e" transform="translate(1021.533203 0)"/>
      <use xlink:href="#DejaVuSans-65" transform="translate(1084.912109 0)"/>
     </g>
    </g>
   </g>
   <g id="text_14">
    <g clip-path="url(#p45ea1c7dbd)">
     <!-- University of Göttingen -->
     <g style="opacity: 0.7" transform="translate(934.527312 1009.108903) scale(0.1 -0.1)">
      <defs>
       <path id="DejaVuSans-f6" d="M 1959 3097 
Q 1497 3097 1228 2736 
Q 959 2375 959 1747 
Q 959 1119 1226 758 
Q 1494 397 1959 397 
Q 2419 397 2687 759 
Q 2956 1122 2956 1747 
Q 2956 2369 2687 2733 
Q 2419 3097 1959 3097 
z
M 1959 3584 
Q 2709 3584 3137 3096 
Q 3566 2609 3566 1747 
Q 3566 888 3137 398 
Q 2709 -91 1959 -91 
Q 1206 -91 779 398 
Q 353 888 353 1747 
Q 353 2609 779 3096 
Q 1206 3584 1959 3584 
z
M 2254 4850 
L 2888 4850 
L 2888 4219 
L 2254 4219 
L 2254 4850 
z
M 1032 4850 
L 1666 4850 
L 1666 4219 
L 1032 4219 
L 1032 4850 
z
" transform="scale(0.015625)"/>
      </defs>
      <use xlink:href="#DejaVuSans-55"/>
      <use xlink:href="#DejaVuSans-6e" transform="translate(73.193359 0)"/>
      <use xlink:href="#DejaVuSans-69" transform="translate(136.572266 0)"/>
      <use xlink:href="#DejaVuSans-76" transform="translate(164.355469 0)"/>
      <use xlink:href="#DejaVuSans-65" transform="translate(223.535156 0)"/>
      <use xlink:href="#DejaVuSans-72" transform="translate(285.058594 0)"/>
      <use xlink:href="#DejaVuSans-73" transform="translate(326.171875 0)"/>
      <use xlink:href="#DejaVuSans-69" transform="translate(378.271484 0)"/>
      <use xlink:href="#DejaVuSans-74" transform="translate(406.054688 0)"/>
      <use xlink:href="#DejaVuSans-79" transform="translate(445.263672 0)"/>
      <use xlink:href="#DejaVuSans-20" transform="translate(504.443359 0)"/>
      <use xlink:href="#DejaVuSans-6f" transform="translate(536.230469 0)"/>
      <use xlink:href="#DejaVuSans-66" transform="translate(597.412109 0)"/>
      <use xlink:href="#DejaVuSans-20" transform="translate(632.617188 0)"/>
      <use xlink:href="#DejaVuSans-47" transform="translate(664.404297 0)"/>
      <use xlink:href="#DejaVuSans-f6" transform="translate(741.894531 0)"/>
      <use xlink:href="#DejaVuSans-74" transform="translate(803.076172 0)"/>
      <use xlink:href="#DejaVuSans-74" transform="translate(842.285156 0)"/>
      <use xlink:href="#DejaVuSans-69" transform="translate(881.494141 0)"/>
      <use xlink:href="#DejaVuSans-6e" transform="translate(909.277344 0)"/>
      <use xlink:href="#DejaVuSans-67" transform="translate(972.65625 0)"/>
      <use xlink:href="#DejaVuSans-65" transform="translate(1036.132812 0)"/>
      <use xlink:href="#DejaVuSans-6e" transform="translate(1097.65625 0)"/>
     </g>
    </g>
   </g>
   <g id="text_15">
    <g clip-path="url(#p45ea1c7dbd)">
     <!-- University of Basel -->
     <g style="opacity: 0.7" transform="translate(1082.477109 974.312097) scale(0.1 -0.1)">
      <defs>
       <path id="DejaVuSans-42" d="M 1259 2228 
L 1259 519 
L 2272 519 
Q 2781 519 3026 730 
Q 3272 941 3272 1375 
Q 3272 1813 3026 2020 
Q 2781 2228 2272 2228 
L 1259 2228 
z
M 1259 4147 
L 1259 2741 
L 2194 2741 
Q 2656 2741 2882 2914 
Q 3109 3088 3109 3444 
Q 3109 3797 2882 3972 
Q 2656 4147 2194 4147 
L 1259 4147 
z
M 628 4666 
L 2241 4666 
Q 2963 4666 3353 4366 
Q 3744 4066 3744 3513 
Q 3744 3084 3544 2831 
Q 3344 2578 2956 2516 
Q 3422 2416 3680 2098 
Q 3938 1781 3938 1306 
Q 3938 681 3513 340 
Q 3088 0 2303 0 
L 628 0 
L 628 4666 
z
" transform="scale(0.015625)"/>
      </defs>
      <use xlink:href="#DejaVuSans-55"/>
      <use xlink:href="#DejaVuSans-6e" transform="translate(73.193359 0)"/>
      <use xlink:href="#DejaVuSans-69" transform="translate(136.572266 0)"/>
      <use xlink:href="#DejaVuSans-76" transform="translate(164.355469 0)"/>
      <use xlink:href="#DejaVuSans-65" transform="translate(223.535156 0)"/>
      <use xlink:href="#DejaVuSans-72" transform="translate(285.058594 0)"/>
      <use xlink:href="#DejaVuSans-73" transform="translate(326.171875 0)"/>
      <use xlink:href="#DejaVuSans-69" transform="translate(378.271484 0)"/>
      <use xlink:href="#DejaVuSans-74" transform="translate(406.054688 0)"/>
      <use xlink:href="#DejaVuSans-79" transform="translate(445.263672 0)"/>
      <use xlink:href="#DejaVuSans-20" transform="translate(504.443359 0)"/>
      <use xlink:href="#DejaVuSans-6f" transform="translate(536.230469 0)"/>
      <use xlink:href="#DejaVuSans-66" transform="translate(597.412109 0)"/>
      <use xlink:href="#DejaVuSans-20" transform="translate(632.617188 0)"/>
      <use xlink:href="#DejaVuSans-42" transform="translate(664.404297 0)"/>
      <use xlink:href="#DejaVuSans-61" transform="translate(733.007812 0)"/>
      <use xlink:href="#DejaVuSans-73" transform="translate(794.287109 0)"/>
      <use xlink:href="#DejaVuSans-65" transform="translate(846.386719 0)"/>
      <use xlink:href="#DejaVuSans-6c" transform="translate(907.910156 0)"/>
     </g>
    </g>
   </g>
   <g id="text_16">
    <g clip-path="url(#p45ea1c7dbd)">
     <!-- Q61066842 -->
     <g style="opacity: 0.7" transform="translate(639.711341 775.435577) scale(0.1 -0.1)">
      <defs>
       <path id="DejaVuSans-51" d="M 2522 4238 
Q 1834 4238 1429 3725 
Q 1025 3213 1025 2328 
Q 1025 1447 1429 934 
Q 1834 422 2522 422 
Q 3209 422 3611 934 
Q 4013 1447 4013 2328 
Q 4013 3213 3611 3725 
Q 3209 4238 2522 4238 
z
M 3406 84 
L 4238 -825 
L 3475 -825 
L 2784 -78 
Q 2681 -84 2626 -87 
Q 2572 -91 2522 -91 
Q 1538 -91 948 567 
Q 359 1225 359 2328 
Q 359 3434 948 4092 
Q 1538 4750 2522 4750 
Q 3503 4750 4090 4092 
Q 4678 3434 4678 2328 
Q 4678 1516 4351 937 
Q 4025 359 3406 84 
z
" transform="scale(0.015625)"/>
       <path id="DejaVuSans-36" d="M 2113 2584 
Q 1688 2584 1439 2293 
Q 1191 2003 1191 1497 
Q 1191 994 1439 701 
Q 1688 409 2113 409 
Q 2538 409 2786 701 
Q 3034 994 3034 1497 
Q 3034 2003 2786 2293 
Q 2538 2584 2113 2584 
z
M 3366 4563 
L 3366 3988 
Q 3128 4100 2886 4159 
Q 2644 4219 2406 4219 
Q 1781 4219 1451 3797 
Q 1122 3375 1075 2522 
Q 1259 2794 1537 2939 
Q 1816 3084 2150 3084 
Q 2853 3084 3261 2657 
Q 3669 2231 3669 1497 
Q 3669 778 3244 343 
Q 2819 -91 2113 -91 
Q 1303 -91 875 529 
Q 447 1150 447 2328 
Q 447 3434 972 4092 
Q 1497 4750 2381 4750 
Q 2619 4750 2861 4703 
Q 3103 4656 3366 4563 
z
" transform="scale(0.015625)"/>
       <path id="DejaVuSans-31" d="M 794 531 
L 1825 531 
L 1825 4091 
L 703 3866 
L 703 4441 
L 1819 4666 
L 2450 4666 
L 2450 531 
L 3481 531 
L 3481 0 
L 794 0 
L 794 531 
z
" transform="scale(0.015625)"/>
       <path id="DejaVuSans-30" d="M 2034 4250 
Q 1547 4250 1301 3770 
Q 1056 3291 1056 2328 
Q 1056 1369 1301 889 
Q 1547 409 2034 409 
Q 2525 409 2770 889 
Q 3016 1369 3016 2328 
Q 3016 3291 2770 3770 
Q 2525 4250 2034 4250 
z
M 2034 4750 
Q 2819 4750 3233 4129 
Q 3647 3509 3647 2328 
Q 3647 1150 3233 529 
Q 2819 -91 2034 -91 
Q 1250 -91 836 529 
Q 422 1150 422 2328 
Q 422 3509 836 4129 
Q 1250 4750 2034 4750 
z
" transform="scale(0.015625)"/>
       <path id="DejaVuSans-38" d="M 2034 2216 
Q 1584 2216 1326 1975 
Q 1069 1734 1069 1313 
Q 1069 891 1326 650 
Q 1584 409 2034 409 
Q 2484 409 2743 651 
Q 3003 894 3003 1313 
Q 3003 1734 2745 1975 
Q 2488 2216 2034 2216 
z
M 1403 2484 
Q 997 2584 770 2862 
Q 544 3141 544 3541 
Q 544 4100 942 4425 
Q 1341 4750 2034 4750 
Q 2731 4750 3128 4425 
Q 3525 4100 3525 3541 
Q 3525 3141 3298 2862 
Q 3072 2584 2669 2484 
Q 3125 2378 3379 2068 
Q 3634 1759 3634 1313 
Q 3634 634 3220 271 
Q 2806 -91 2034 -91 
Q 1263 -91 848 271 
Q 434 634 434 1313 
Q 434 1759 690 2068 
Q 947 2378 1403 2484 
z
M 1172 3481 
Q 1172 3119 1398 2916 
Q 1625 2713 2034 2713 
Q 2441 2713 2670 2916 
Q 2900 3119 2900 3481 
Q 2900 3844 2670 4047 
Q 2441 4250 2034 4250 
Q 1625 4250 1398 4047 
Q 1172 3844 1172 3481 
z
" transform="scale(0.015625)"/>
       <path id="DejaVuSans-34" d="M 2419 4116 
L 825 1625 
L 2419 1625 
L 2419 4116 
z
M 2253 4666 
L 3047 4666 
L 3047 1625 
L 3713 1625 
L 3713 1100 
L 3047 1100 
L 3047 0 
L 2419 0 
L 2419 1100 
L 313 1100 
L 313 1709 
L 2253 4666 
z
" transform="scale(0.015625)"/>
       <path id="DejaVuSans-32" d="M 1228 531 
L 3431 531 
L 3431 0 
L 469 0 
L 469 531 
Q 828 903 1448 1529 
Q 2069 2156 2228 2338 
Q 2531 2678 2651 2914 
Q 2772 3150 2772 3378 
Q 2772 3750 2511 3984 
Q 2250 4219 1831 4219 
Q 1534 4219 1204 4116 
Q 875 4013 500 3803 
L 500 4441 
Q 881 4594 1212 4672 
Q 1544 4750 1819 4750 
Q 2544 4750 2975 4387 
Q 3406 4025 3406 3419 
Q 3406 3131 3298 2873 
Q 3191 2616 2906 2266 
Q 2828 2175 2409 1742 
Q 1991 1309 1228 531 
z
" transform="scale(0.015625)"/>
      </defs>
      <use xlink:href="#DejaVuSans-51"/>
      <use xlink:href="#DejaVuSans-36" transform="translate(78.710938 0)"/>
      <use xlink:href="#DejaVuSans-31" transform="translate(142.333984 0)"/>
      <use xlink:href="#DejaVuSans-30" transform="translate(205.957031 0)"/>
      <use xlink:href="#DejaVuSans-36" transform="translate(269.580078 0)"/>
      <use xlink:href="#DejaVuSans-36" transform="translate(333.203125 0)"/>
      <use xlink:href="#DejaVuSans-38" transform="translate(396.826172 0)"/>
      <use xlink:href="#DejaVuSans-34" transform="translate(460.449219 0)"/>
      <use xlink:href="#DejaVuSans-32" transform="translate(524.072266 0)"/>
     </g>
    </g>
   </g>
  </g>
 </g>
 <defs>
  <clipPath id="p45ea1c7dbd">
   <rect x="600" y="600" width="796.26388" height="796.26388"/>
  </clipPath>
 </defs>
</svg>
