<?xml version="1.0" encoding="utf-8" standalone="no"?>
<!DOCTYPE svg PUBLIC "-//W3C//DTD SVG 1.1//EN"
  "http://www.w3.org/Graphics/SVG/1.1/DTD/svg11.dtd">
<svg xmlns:xlink="http://www.w3.org/1999/xlink" width="2039.913608pt" height="2039.913608pt" viewBox="0 0 2039.913608 2039.913608" xmlns="http://www.w3.org/2000/svg" version="1.1">
 <metadata>
  <rdf:RDF xmlns:dc="http://purl.org/dc/elements/1.1/" xmlns:cc="http://creativecommons.org/ns#" xmlns:rdf="http://www.w3.org/1999/02/22-rdf-syntax-ns#">
   <cc:Work>
    <dc:type rdf:resource="http://purl.org/dc/dcmitype/StillImage"/>
    <dc:date>2025-08-24T21:11:16.932978</dc:date>
    <dc:format>image/svg+xml</dc:format>
    <dc:creator>
     <cc:Agent>
      <dc:title>Matplotlib v3.9.2, https://matplotlib.org/</dc:title>
     </cc:Agent>
    </dc:creator>
   </cc:Work>
  </rdf:RDF>
 </metadata>
 <defs>
  <style type="text/css">*{stroke-linejoin: round; stroke-linecap: butt}</style>
 </defs>
 <g id="figure_1">
  <g id="patch_1">
   <path d="M 0 2039.913608 
L 2039.913608 2039.913608 
L 2039.913608 0 
L 0 0 
z
" style="fill: #ffffff"/>
  </g>
  <g id="axes_1">
   <g id="patch_2">
    <path d="M 600 1439.913608 
L 1439.913608 1439.913608 
L 1439.913608 600 
L 600 600 
z
" style="fill: #ffffff"/>
   </g>
   <g id="LineCollection_1">
    <path d="M 731.029152 1356.908435 
L 780.800886 1226.525375 
" clip-path="url(#pf286227482)" style="fill: none; stroke: #000000; stroke-opacity: 0.02"/>
    <path d="M 780.800886 1226.525375 
L 672.885065 1218.212522 
" clip-path="url(#pf286227482)" style="fill: none; stroke: #000000; stroke-opacity: 0.02"/>
    <path d="M 780.800886 1226.525375 
L 863.707665 1003.725398 
" clip-path="url(#pf286227482)" style="fill: none; stroke: #000000; stroke-opacity: 0.02"/>
    <path d="M 780.800886 1226.525375 
L 674.612325 1282.973032 
" clip-path="url(#pf286227482)" style="fill: none; stroke: #000000; stroke-opacity: 0.02"/>
    <path d="M 780.800886 1226.525375 
L 808.568231 1367.028543 
" clip-path="url(#pf286227482)" style="fill: none; stroke: #000000; stroke-opacity: 0.02"/>
    <path d="M 780.800886 1226.525375 
L 868.998602 1303.287668 
" clip-path="url(#pf286227482)" style="fill: none; stroke: #000000; stroke-opacity: 0.02"/>
    <path d="M 679.86364 805.093286 
L 770.029165 889.527253 
" clip-path="url(#pf286227482)" style="fill: none; stroke: #000000; stroke-opacity: 0.02"/>
    <path d="M 1367.028543 754.766959 
L 1255.749293 746.094899 
" clip-path="url(#pf286227482)" style="fill: none; stroke: #000000; stroke-opacity: 0.02"/>
    <path d="M 1110.179724 817.743008 
L 1255.749293 746.094899 
" clip-path="url(#pf286227482)" style="fill: none; stroke: #000000; stroke-opacity: 0.02"/>
    <path d="M 1110.179724 817.743008 
L 961.947238 910.542113 
" clip-path="url(#pf286227482)" style="fill: none; stroke: #000000; stroke-opacity: 0.02"/>
    <path d="M 1110.179724 817.743008 
L 1033.193312 815.460698 
" clip-path="url(#pf286227482)" style="fill: none; stroke: #000000; stroke-opacity: 0.02"/>
    <path d="M 770.029165 889.527253 
L 859.001307 916.896641 
" clip-path="url(#pf286227482)" style="fill: none; stroke: #000000; stroke-opacity: 0.02"/>
    <path d="M 770.029165 889.527253 
L 863.707665 1003.725398 
" clip-path="url(#pf286227482)" style="fill: none; stroke: #000000; stroke-opacity: 0.02"/>
    <path d="M 1302.139538 672.885065 
L 1255.749293 746.094899 
" clip-path="url(#pf286227482)" style="fill: none; stroke: #000000; stroke-opacity: 0.02; stroke-width: 2"/>
    <path d="M 954.509956 1002.138132 
L 961.947238 910.542113 
" clip-path="url(#pf286227482)" style="fill: none; stroke: #000000; stroke-opacity: 0.02"/>
    <path d="M 954.509956 1002.138132 
L 863.707665 1003.725398 
" clip-path="url(#pf286227482)" style="fill: none; stroke: #000000; stroke-opacity: 0.02"/>
    <path d="M 859.001307 916.896641 
L 961.947238 910.542113 
" clip-path="url(#pf286227482)" style="fill: none; stroke: #000000; stroke-opacity: 0.02"/>
    <path d="M 859.001307 916.896641 
L 863.707665 1003.725398 
" clip-path="url(#pf286227482)" style="fill: none; stroke: #000000; stroke-opacity: 0.02; stroke-width: 2"/>
    <path d="M 961.947238 910.542113 
L 863.707665 1003.725398 
" clip-path="url(#pf286227482)" style="fill: none; stroke: #000000; stroke-opacity: 0.02; stroke-width: 2"/>
    <path d="M 961.947238 910.542113 
L 1033.193312 815.460698 
" clip-path="url(#pf286227482)" style="fill: none; stroke: #000000; stroke-opacity: 0.02"/>
    <path d="M 674.612325 1282.973032 
L 672.885065 1218.212522 
" clip-path="url(#pf286227482)" style="fill: none; stroke: #000000; stroke-opacity: 0.02"/>
   </g>
   <g id="matplotlib.axis_1">
    <g id="xtick_1"/>
    <g id="xtick_2"/>
    <g id="xtick_3"/>
    <g id="xtick_4"/>
    <g id="xtick_5"/>
    <g id="xtick_6"/>
    <g id="xtick_7"/>
   </g>
   <g id="matplotlib.axis_2">
    <g id="ytick_1"/>
    <g id="ytick_2"/>
    <g id="ytick_3"/>
    <g id="ytick_4"/>
    <g id="ytick_5"/>
    <g id="ytick_6"/>
    <g id="ytick_7"/>
    <g id="ytick_8"/>
   </g>
   <g id="PathCollection_1">
    <path d="M 731.029152 1362.385661 
C 732.481729 1362.385661 733.875008 1361.808546 734.902135 1360.781419 
C 735.929263 1359.754291 736.506378 1358.361012 736.506378 1356.908435 
C 736.506378 1355.455858 735.929263 1354.062579 734.902135 1353.035452 
C 733.875008 1352.008325 732.481729 1351.43121 731.029152 1351.43121 
C 729.576575 1351.43121 728.183296 1352.008325 727.156169 1353.035452 
C 726.129041 1354.062579 725.551926 1355.455858 725.551926 1356.908435 
C 725.551926 1358.361012 726.129041 1359.754291 727.156169 1360.781419 
C 728.183296 1361.808546 729.576575 1362.385661 731.029152 1362.385661 
z
" clip-path="url(#pf286227482)" style="fill: #ff0000; fill-opacity: 0.6; stroke: #ff0000; stroke-opacity: 0.6"/>
    <path d="M 780.800886 1238.144325 
C 783.882268 1238.144325 786.837859 1236.920079 789.016724 1234.741214 
C 791.19559 1232.562348 792.419836 1229.606757 792.419836 1226.525375 
C 792.419836 1223.443994 791.19559 1220.488403 789.016724 1218.309537 
C 786.837859 1216.130671 783.882268 1214.906425 780.800886 1214.906425 
C 777.719504 1214.906425 774.763913 1216.130671 772.585048 1218.309537 
C 770.406182 1220.488403 769.181936 1223.443994 769.181936 1226.525375 
C 769.181936 1229.606757 770.406182 1232.562348 772.585048 1234.741214 
C 774.763913 1236.920079 777.719504 1238.144325 780.800886 1238.144325 
z
" clip-path="url(#pf286227482)" style="fill: #ff0000; fill-opacity: 0.6; stroke: #ff0000; stroke-opacity: 0.6"/>
    <path d="M 679.86364 809.565422 
C 681.049665 809.565422 682.187272 809.094209 683.025918 808.255563 
C 683.864564 807.416917 684.335776 806.27931 684.335776 805.093286 
C 684.335776 803.907261 683.864564 802.769654 683.025918 801.931008 
C 682.187272 801.092362 681.049665 800.62115 679.86364 800.62115 
C 678.677616 800.62115 677.540009 801.092362 676.701363 801.931008 
C 675.862717 802.769654 675.391504 803.907261 675.391504 805.093286 
C 675.391504 806.27931 675.862717 807.416917 676.701363 808.255563 
C 677.540009 809.094209 678.677616 809.565422 679.86364 809.565422 
z
" clip-path="url(#pf286227482)" style="fill: #0000ff; fill-opacity: 0.6; stroke: #0000ff; stroke-opacity: 0.6"/>
    <path d="M 808.568231 1369.264611 
C 809.161244 1369.264611 809.730047 1369.029004 810.14937 1368.609681 
C 810.568693 1368.190358 810.804299 1367.621555 810.804299 1367.028543 
C 810.804299 1366.43553 810.568693 1365.866727 810.14937 1365.447404 
C 809.730047 1365.028081 809.161244 1364.792475 808.568231 1364.792475 
C 807.975219 1364.792475 807.406416 1365.028081 806.987093 1365.447404 
C 806.56777 1365.866727 806.332163 1366.43553 806.332163 1367.028543 
C 806.332163 1367.621555 806.56777 1368.190358 806.987093 1368.609681 
C 807.406416 1369.029004 807.975219 1369.264611 808.568231 1369.264611 
z
" clip-path="url(#pf286227482)" style="fill: #ff0000; fill-opacity: 0.6; stroke: #ff0000; stroke-opacity: 0.6"/>
    <path d="M 1367.028543 757.003027 
C 1367.621555 757.003027 1368.190358 756.767421 1368.609681 756.348098 
C 1369.029004 755.928775 1369.264611 755.359971 1369.264611 754.766959 
C 1369.264611 754.173947 1369.029004 753.605143 1368.609681 753.18582 
C 1368.190358 752.766497 1367.621555 752.530891 1367.028543 752.530891 
C 1366.43553 752.530891 1365.866727 752.766497 1365.447404 753.18582 
C 1365.028081 753.605143 1364.792475 754.173947 1364.792475 754.766959 
C 1364.792475 755.359971 1365.028081 755.928775 1365.447404 756.348098 
C 1365.866727 756.767421 1366.43553 757.003027 1367.028543 757.003027 
z
" clip-path="url(#pf286227482)" style="fill: #008000; fill-opacity: 0.6; stroke: #008000; stroke-opacity: 0.6"/>
    <path d="M 1110.179724 822.215144 
C 1111.365748 822.215144 1112.503356 821.743931 1113.342002 820.905286 
C 1114.180648 820.06664 1114.65186 818.929032 1114.65186 817.743008 
C 1114.65186 816.556984 1114.180648 815.419376 1113.342002 814.58073 
C 1112.503356 813.742084 1111.365748 813.270872 1110.179724 813.270872 
C 1108.9937 813.270872 1107.856092 813.742084 1107.017446 814.58073 
C 1106.178801 815.419376 1105.707588 816.556984 1105.707588 817.743008 
C 1105.707588 818.929032 1106.178801 820.06664 1107.017446 820.905286 
C 1107.856092 821.743931 1108.9937 822.215144 1110.179724 822.215144 
z
" clip-path="url(#pf286227482)" style="fill: #008000; fill-opacity: 0.6; stroke: #008000; stroke-opacity: 0.6"/>
    <path d="M 770.029165 895.443333 
C 771.598128 895.443333 773.103041 894.819977 774.212465 893.710553 
C 775.321889 892.601129 775.945245 891.096216 775.945245 889.527253 
C 775.945245 887.95829 775.321889 886.453377 774.212465 885.343953 
C 773.103041 884.234529 771.598128 883.611173 770.029165 883.611173 
C 768.460202 883.611173 766.955289 884.234529 765.845865 885.343953 
C 764.736441 886.453377 764.113085 887.95829 764.113085 889.527253 
C 764.113085 891.096216 764.736441 892.601129 765.845865 893.710553 
C 766.955289 894.819977 768.460202 895.443333 770.029165 895.443333 
z
" clip-path="url(#pf286227482)" style="fill: #0000ff; fill-opacity: 0.6; stroke: #0000ff; stroke-opacity: 0.6"/>
    <path d="M 1302.139538 677.357201 
C 1303.325562 677.357201 1304.463169 676.885989 1305.301815 676.047343 
C 1306.140461 675.208697 1306.611673 674.071089 1306.611673 672.885065 
C 1306.611673 671.699041 1306.140461 670.561433 1305.301815 669.722787 
C 1304.463169 668.884142 1303.325562 668.412929 1302.139538 668.412929 
C 1300.953513 668.412929 1299.815906 668.884142 1298.97726 669.722787 
C 1298.138614 670.561433 1297.667402 671.699041 1297.667402 672.885065 
C 1297.667402 674.071089 1298.138614 675.208697 1298.97726 676.047343 
C 1299.815906 676.885989 1300.953513 677.357201 1302.139538 677.357201 
z
" clip-path="url(#pf286227482)" style="fill: #008000; fill-opacity: 0.6; stroke: #008000; stroke-opacity: 0.6"/>
    <path d="M 954.509956 1006.011116 
C 955.537083 1006.011116 956.52228 1005.603034 957.248569 1004.876745 
C 957.974858 1004.150457 958.38294 1003.16526 958.38294 1002.138132 
C 958.38294 1001.111005 957.974858 1000.125808 957.248569 999.39952 
C 956.52228 998.673231 955.537083 998.265149 954.509956 998.265149 
C 953.482829 998.265149 952.497632 998.673231 951.771344 999.39952 
C 951.045055 1000.125808 950.636973 1001.111005 950.636973 1002.138132 
C 950.636973 1003.16526 951.045055 1004.150457 951.771344 1004.876745 
C 952.497632 1005.603034 953.482829 1006.011116 954.509956 1006.011116 
z
" clip-path="url(#pf286227482)" style="fill: #0000ff; fill-opacity: 0.6; stroke: #0000ff; stroke-opacity: 0.6"/>
    <path d="M 1255.749293 751.094899 
C 1257.075308 751.094899 1258.347192 750.568068 1259.284827 749.630433 
C 1260.222461 748.692799 1260.749293 747.420915 1260.749293 746.094899 
C 1260.749293 744.768884 1260.222461 743.497 1259.284827 742.559366 
C 1258.347192 741.621731 1257.075308 741.094899 1255.749293 741.094899 
C 1254.423277 741.094899 1253.151393 741.621731 1252.213759 742.559366 
C 1251.276124 743.497 1250.749293 744.768884 1250.749293 746.094899 
C 1250.749293 747.420915 1251.276124 748.692799 1252.213759 749.630433 
C 1253.151393 750.568068 1254.423277 751.094899 1255.749293 751.094899 
z
" clip-path="url(#pf286227482)" style="fill: #008000; fill-opacity: 0.6; stroke: #008000; stroke-opacity: 0.6"/>
    <path d="M 868.998602 1311.033634 
C 871.052857 1311.033634 873.023251 1310.21747 874.475828 1308.764893 
C 875.928405 1307.312316 876.744569 1305.341922 876.744569 1303.287668 
C 876.744569 1301.233413 875.928405 1299.263019 874.475828 1297.810442 
C 873.023251 1296.357865 871.052857 1295.541701 868.998602 1295.541701 
C 866.944348 1295.541701 864.973954 1296.357865 863.521377 1297.810442 
C 862.068799 1299.263019 861.252636 1301.233413 861.252636 1303.287668 
C 861.252636 1305.341922 862.068799 1307.312316 863.521377 1308.764893 
C 864.973954 1310.21747 866.944348 1311.033634 868.998602 1311.033634 
z
" clip-path="url(#pf286227482)" style="fill: #ff0000; fill-opacity: 0.6; stroke: #ff0000; stroke-opacity: 0.6"/>
    <path d="M 859.001307 921.896641 
C 860.327323 921.896641 861.599207 921.36981 862.536841 920.432175 
C 863.474476 919.494541 864.001307 918.222657 864.001307 916.896641 
C 864.001307 915.570626 863.474476 914.298742 862.536841 913.361107 
C 861.599207 912.423473 860.327323 911.896641 859.001307 911.896641 
C 857.675292 911.896641 856.403408 912.423473 855.465773 913.361107 
C 854.528139 914.298742 854.001307 915.570626 854.001307 916.896641 
C 854.001307 918.222657 854.528139 919.494541 855.465773 920.432175 
C 856.403408 921.36981 857.675292 921.896641 859.001307 921.896641 
z
" clip-path="url(#pf286227482)" style="fill: #0000ff; fill-opacity: 0.6; stroke: #0000ff; stroke-opacity: 0.6"/>
    <path d="M 961.947238 915.542113 
C 963.273253 915.542113 964.545137 915.015282 965.482772 914.077647 
C 966.420406 913.140013 966.947238 911.868129 966.947238 910.542113 
C 966.947238 909.216098 966.420406 907.944214 965.482772 907.006579 
C 964.545137 906.068945 963.273253 905.542113 961.947238 905.542113 
C 960.621222 905.542113 959.349338 906.068945 958.411704 907.006579 
C 957.474069 907.944214 956.947238 909.216098 956.947238 910.542113 
C 956.947238 911.868129 957.474069 913.140013 958.411704 914.077647 
C 959.349338 915.015282 960.621222 915.542113 961.947238 915.542113 
z
" clip-path="url(#pf286227482)" style="fill: #0000ff; fill-opacity: 0.6; stroke: #0000ff; stroke-opacity: 0.6"/>
    <path d="M 863.707665 1010.049953 
C 865.384957 1010.049953 866.993777 1009.383558 868.179801 1008.197534 
C 869.365826 1007.01151 870.032221 1005.40269 870.032221 1003.725398 
C 870.032221 1002.048106 869.365826 1000.439286 868.179801 999.253262 
C 866.993777 998.067238 865.384957 997.400843 863.707665 997.400843 
C 862.030374 997.400843 860.421554 998.067238 859.235529 999.253262 
C 858.049505 1000.439286 857.38311 1002.048106 857.38311 1003.725398 
C 857.38311 1005.40269 858.049505 1007.01151 859.235529 1008.197534 
C 860.421554 1009.383558 862.030374 1010.049953 863.707665 1010.049953 
z
" clip-path="url(#pf286227482)" style="fill: #0000ff; fill-opacity: 0.6; stroke: #0000ff; stroke-opacity: 0.6"/>
    <path d="M 674.612325 1287.973032 
C 675.938341 1287.973032 677.210225 1287.4462 678.147859 1286.508566 
C 679.085494 1285.570931 679.612325 1284.299047 679.612325 1282.973032 
C 679.612325 1281.647016 679.085494 1280.375133 678.147859 1279.437498 
C 677.210225 1278.499863 675.938341 1277.973032 674.612325 1277.973032 
C 673.28631 1277.973032 672.014426 1278.499863 671.076791 1279.437498 
C 670.139157 1280.375133 669.612325 1281.647016 669.612325 1282.973032 
C 669.612325 1284.299047 670.139157 1285.570931 671.076791 1286.508566 
C 672.014426 1287.4462 673.28631 1287.973032 674.612325 1287.973032 
z
" clip-path="url(#pf286227482)" style="fill: #ff0000; fill-opacity: 0.6; stroke: #ff0000; stroke-opacity: 0.6"/>
    <path d="M 1033.193312 818.622975 
C 1034.031958 818.622975 1034.836368 818.289778 1035.42938 817.696765 
C 1036.022392 817.103753 1036.35559 816.299343 1036.35559 815.460698 
C 1036.35559 814.622052 1036.022392 813.817642 1035.42938 813.22463 
C 1034.836368 812.631617 1034.031958 812.29842 1033.193312 812.29842 
C 1032.354666 812.29842 1031.550256 812.631617 1030.957244 813.22463 
C 1030.364232 813.817642 1030.031035 814.622052 1030.031035 815.460698 
C 1030.031035 816.299343 1030.364232 817.103753 1030.957244 817.696765 
C 1031.550256 818.289778 1032.354666 818.622975 1033.193312 818.622975 
z
" clip-path="url(#pf286227482)" style="fill: #008000; fill-opacity: 0.6; stroke: #008000; stroke-opacity: 0.6"/>
    <path d="M 672.885065 1222.085506 
C 673.912192 1222.085506 674.897389 1221.677424 675.623678 1220.951135 
C 676.349967 1220.224847 676.758048 1219.23965 676.758048 1218.212522 
C 676.758048 1217.185395 676.349967 1216.200198 675.623678 1215.47391 
C 674.897389 1214.747621 673.912192 1214.339539 672.885065 1214.339539 
C 671.857938 1214.339539 670.872741 1214.747621 670.146452 1215.47391 
C 669.420164 1216.200198 669.012082 1217.185395 669.012082 1218.212522 
C 669.012082 1219.23965 669.420164 1220.224847 670.146452 1220.951135 
C 670.872741 1221.677424 671.857938 1222.085506 672.885065 1222.085506 
z
" clip-path="url(#pf286227482)" style="fill: #ff0000; fill-opacity: 0.6; stroke: #ff0000; stroke-opacity: 0.6"/>
   </g>
   <g id="patch_3">
    <path d="M 600 1439.913608 
L 600 600 
" style="fill: none; stroke: #000000; stroke-width: 0.8; stroke-linejoin: miter; stroke-linecap: square"/>
   </g>
   <g id="patch_4">
    <path d="M 1439.913608 1439.913608 
L 1439.913608 600 
" style="fill: none; stroke: #000000; stroke-width: 0.8; stroke-linejoin: miter; stroke-linecap: square"/>
   </g>
   <g id="patch_5">
    <path d="M 600 1439.913608 
L 1439.913608 1439.913608 
" style="fill: none; stroke: #000000; stroke-width: 0.8; stroke-linejoin: miter; stroke-linecap: square"/>
   </g>
   <g id="patch_6">
    <path d="M 600 600 
L 1439.913608 600 
" style="fill: none; stroke: #000000; stroke-width: 0.8; stroke-linejoin: miter; stroke-linecap: square"/>
   </g>
   <g id="text_1">
    <g clip-path="url(#pf286227482)">
     <!-- University of Innsbruck -->
     <g style="opacity: 0.7" transform="translate(673.349465 1359.66781) scale(0.1 -0.1)">
      <defs>
       <path id="DejaVuSans-55" d="M 556 4666 
L 1191 4666 
L 1191 1831 
Q 1191 1081 1462 751 
Q 1734 422 2344 422 
Q 2950 422 3222 751 
Q 3494 1081 3494 1831 
L 3494 4666 
L 4128 4666 
L 4128 1753 
Q 4128 841 3676 375 
Q 3225 -91 2344 -91 
Q 1459 -91 1007 375 
Q 556 841 556 1753 
L 556 4666 
z
" transform="scale(0.015625)"/>
       <path id="DejaVuSans-6e" d="M 3513 2113 
L 3513 0 
L 2938 0 
L 2938 2094 
Q 2938 2591 2744 2837 
Q 2550 3084 2163 3084 
Q 1697 3084 1428 2787 
Q 1159 2491 1159 1978 
L 1159 0 
L 581 0 
L 581 3500 
L 1159 3500 
L 1159 2956 
Q 1366 3272 1645 3428 
Q 1925 3584 2291 3584 
Q 2894 3584 3203 3211 
Q 3513 2838 3513 2113 
z
" transform="scale(0.015625)"/>
       <path id="DejaVuSans-69" d="M 603 3500 
L 1178 3500 
L 1178 0 
L 603 0 
L 603 3500 
z
M 603 4863 
L 1178 4863 
L 1178 4134 
L 603 4134 
L 603 4863 
z
" transform="scale(0.015625)"/>
       <path id="DejaVuSans-76" d="M 191 3500 
L 800 3500 
L 1894 563 
L 2988 3500 
L 3597 3500 
L 2284 0 
L 1503 0 
L 191 3500 
z
" transform="scale(0.015625)"/>
       <path id="DejaVuSans-65" d="M 3597 1894 
L 3597 1613 
L 953 1613 
Q 991 1019 1311 708 
Q 1631 397 2203 397 
Q 2534 397 2845 478 
Q 3156 559 3463 722 
L 3463 178 
Q 3153 47 2828 -22 
Q 2503 -91 2169 -91 
Q 1331 -91 842 396 
Q 353 884 353 1716 
Q 353 2575 817 3079 
Q 1281 3584 2069 3584 
Q 2775 3584 3186 3129 
Q 3597 2675 3597 1894 
z
M 3022 2063 
Q 3016 2534 2758 2815 
Q 2500 3097 2075 3097 
Q 1594 3097 1305 2825 
Q 1016 2553 972 2059 
L 3022 2063 
z
" transform="scale(0.015625)"/>
       <path id="DejaVuSans-72" d="M 2631 2963 
Q 2534 3019 2420 3045 
Q 2306 3072 2169 3072 
Q 1681 3072 1420 2755 
Q 1159 2438 1159 1844 
L 1159 0 
L 581 0 
L 581 3500 
L 1159 3500 
L 1159 2956 
Q 1341 3275 1631 3429 
Q 1922 3584 2338 3584 
Q 2397 3584 2469 3576 
Q 2541 3569 2628 3553 
L 2631 2963 
z
" transform="scale(0.015625)"/>
       <path id="DejaVuSans-73" d="M 2834 3397 
L 2834 2853 
Q 2591 2978 2328 3040 
Q 2066 3103 1784 3103 
Q 1356 3103 1142 2972 
Q 928 2841 928 2578 
Q 928 2378 1081 2264 
Q 1234 2150 1697 2047 
L 1894 2003 
Q 2506 1872 2764 1633 
Q 3022 1394 3022 966 
Q 3022 478 2636 193 
Q 2250 -91 1575 -91 
Q 1294 -91 989 -36 
Q 684 19 347 128 
L 347 722 
Q 666 556 975 473 
Q 1284 391 1588 391 
Q 1994 391 2212 530 
Q 2431 669 2431 922 
Q 2431 1156 2273 1281 
Q 2116 1406 1581 1522 
L 1381 1569 
Q 847 1681 609 1914 
Q 372 2147 372 2553 
Q 372 3047 722 3315 
Q 1072 3584 1716 3584 
Q 2034 3584 2315 3537 
Q 2597 3491 2834 3397 
z
" transform="scale(0.015625)"/>
       <path id="DejaVuSans-74" d="M 1172 4494 
L 1172 3500 
L 2356 3500 
L 2356 3053 
L 1172 3053 
L 1172 1153 
Q 1172 725 1289 603 
Q 1406 481 1766 481 
L 2356 481 
L 2356 0 
L 1766 0 
Q 1100 0 847 248 
Q 594 497 594 1153 
L 594 3053 
L 172 3053 
L 172 3500 
L 594 3500 
L 594 4494 
L 1172 4494 
z
" transform="scale(0.015625)"/>
       <path id="DejaVuSans-79" d="M 2059 -325 
Q 1816 -950 1584 -1140 
Q 1353 -1331 966 -1331 
L 506 -1331 
L 506 -850 
L 844 -850 
Q 1081 -850 1212 -737 
Q 1344 -625 1503 -206 
L 1606 56 
L 191 3500 
L 800 3500 
L 1894 763 
L 2988 3500 
L 3597 3500 
L 2059 -325 
z
" transform="scale(0.015625)"/>
       <path id="DejaVuSans-20" transform="scale(0.015625)"/>
       <path id="DejaVuSans-6f" d="M 1959 3097 
Q 1497 3097 1228 2736 
Q 959 2375 959 1747 
Q 959 1119 1226 758 
Q 1494 397 1959 397 
Q 2419 397 2687 759 
Q 2956 1122 2956 1747 
Q 2956 2369 2687 2733 
Q 2419 3097 1959 3097 
z
M 1959 3584 
Q 2709 3584 3137 3096 
Q 3566 2609 3566 1747 
Q 3566 888 3137 398 
Q 2709 -91 1959 -91 
Q 1206 -91 779 398 
Q 353 888 353 1747 
Q 353 2609 779 3096 
Q 1206 3584 1959 3584 
z
" transform="scale(0.015625)"/>
       <path id="DejaVuSans-66" d="M 2375 4863 
L 2375 4384 
L 1825 4384 
Q 1516 4384 1395 4259 
Q 1275 4134 1275 3809 
L 1275 3500 
L 2222 3500 
L 2222 3053 
L 1275 3053 
L 1275 0 
L 697 0 
L 697 3053 
L 147 3053 
L 147 3500 
L 697 3500 
L 697 3744 
Q 697 4328 969 4595 
Q 1241 4863 1831 4863 
L 2375 4863 
z
" transform="scale(0.015625)"/>
       <path id="DejaVuSans-49" d="M 628 4666 
L 1259 4666 
L 1259 0 
L 628 0 
L 628 4666 
z
" transform="scale(0.015625)"/>
       <path id="DejaVuSans-62" d="M 3116 1747 
Q 3116 2381 2855 2742 
Q 2594 3103 2138 3103 
Q 1681 3103 1420 2742 
Q 1159 2381 1159 1747 
Q 1159 1113 1420 752 
Q 1681 391 2138 391 
Q 2594 391 2855 752 
Q 3116 1113 3116 1747 
z
M 1159 2969 
Q 1341 3281 1617 3432 
Q 1894 3584 2278 3584 
Q 2916 3584 3314 3078 
Q 3713 2572 3713 1747 
Q 3713 922 3314 415 
Q 2916 -91 2278 -91 
Q 1894 -91 1617 61 
Q 1341 213 1159 525 
L 1159 0 
L 581 0 
L 581 4863 
L 1159 4863 
L 1159 2969 
z
" transform="scale(0.015625)"/>
       <path id="DejaVuSans-75" d="M 544 1381 
L 544 3500 
L 1119 3500 
L 1119 1403 
Q 1119 906 1312 657 
Q 1506 409 1894 409 
Q 2359 409 2629 706 
Q 2900 1003 2900 1516 
L 2900 3500 
L 3475 3500 
L 3475 0 
L 2900 0 
L 2900 538 
Q 2691 219 2414 64 
Q 2138 -91 1772 -91 
Q 1169 -91 856 284 
Q 544 659 544 1381 
z
M 1991 3584 
L 1991 3584 
z
" transform="scale(0.015625)"/>
       <path id="DejaVuSans-63" d="M 3122 3366 
L 3122 2828 
Q 2878 2963 2633 3030 
Q 2388 3097 2138 3097 
Q 1578 3097 1268 2742 
Q 959 2388 959 1747 
Q 959 1106 1268 751 
Q 1578 397 2138 397 
Q 2388 397 2633 464 
Q 2878 531 3122 666 
L 3122 134 
Q 2881 22 2623 -34 
Q 2366 -91 2075 -91 
Q 1284 -91 818 406 
Q 353 903 353 1747 
Q 353 2603 823 3093 
Q 1294 3584 2113 3584 
Q 2378 3584 2631 3529 
Q 2884 3475 3122 3366 
z
" transform="scale(0.015625)"/>
       <path id="DejaVuSans-6b" d="M 581 4863 
L 1159 4863 
L 1159 1991 
L 2875 3500 
L 3609 3500 
L 1753 1863 
L 3688 0 
L 2938 0 
L 1159 1709 
L 1159 0 
L 581 0 
L 581 4863 
z
" transform="scale(0.015625)"/>
      </defs>
      <use xlink:href="#DejaVuSans-55"/>
      <use xlink:href="#DejaVuSans-6e" x="73.193359"/>
      <use xlink:href="#DejaVuSans-69" x="136.572266"/>
      <use xlink:href="#DejaVuSans-76" x="164.355469"/>
      <use xlink:href="#DejaVuSans-65" x="223.535156"/>
      <use xlink:href="#DejaVuSans-72" x="285.058594"/>
      <use xlink:href="#DejaVuSans-73" x="326.171875"/>
      <use xlink:href="#DejaVuSans-69" x="378.271484"/>
      <use xlink:href="#DejaVuSans-74" x="406.054688"/>
      <use xlink:href="#DejaVuSans-79" x="445.263672"/>
      <use xlink:href="#DejaVuSans-20" x="504.443359"/>
      <use xlink:href="#DejaVuSans-6f" x="536.230469"/>
      <use xlink:href="#DejaVuSans-66" x="597.412109"/>
      <use xlink:href="#DejaVuSans-20" x="632.617188"/>
      <use xlink:href="#DejaVuSans-49" x="664.404297"/>
      <use xlink:href="#DejaVuSans-6e" x="693.896484"/>
      <use xlink:href="#DejaVuSans-6e" x="757.275391"/>
      <use xlink:href="#DejaVuSans-73" x="820.654297"/>
      <use xlink:href="#DejaVuSans-62" x="872.753906"/>
      <use xlink:href="#DejaVuSans-72" x="936.230469"/>
      <use xlink:href="#DejaVuSans-75" x="977.34375"/>
      <use xlink:href="#DejaVuSans-63" x="1040.722656"/>
      <use xlink:href="#DejaVuSans-6b" x="1095.703125"/>
     </g>
    </g>
   </g>
   <g id="text_2">
    <g clip-path="url(#pf286227482)">
     <!-- University of Vienna -->
     <g style="opacity: 0.7" transform="translate(730.406355 1229.28475) scale(0.1 -0.1)">
      <defs>
       <path id="DejaVuSans-56" d="M 1831 0 
L 50 4666 
L 709 4666 
L 2188 738 
L 3669 4666 
L 4325 4666 
L 2547 0 
L 1831 0 
z
" transform="scale(0.015625)"/>
       <path id="DejaVuSans-61" d="M 2194 1759 
Q 1497 1759 1228 1600 
Q 959 1441 959 1056 
Q 959 750 1161 570 
Q 1363 391 1709 391 
Q 2188 391 2477 730 
Q 2766 1069 2766 1631 
L 2766 1759 
L 2194 1759 
z
M 3341 1997 
L 3341 0 
L 2766 0 
L 2766 531 
Q 2569 213 2275 61 
Q 1981 -91 1556 -91 
Q 1019 -91 701 211 
Q 384 513 384 1019 
Q 384 1609 779 1909 
Q 1175 2209 1959 2209 
L 2766 2209 
L 2766 2266 
Q 2766 2663 2505 2880 
Q 2244 3097 1772 3097 
Q 1472 3097 1187 3025 
Q 903 2953 641 2809 
L 641 3341 
Q 956 3463 1253 3523 
Q 1550 3584 1831 3584 
Q 2591 3584 2966 3190 
Q 3341 2797 3341 1997 
z
" transform="scale(0.015625)"/>
      </defs>
      <use xlink:href="#DejaVuSans-55"/>
      <use xlink:href="#DejaVuSans-6e" x="73.193359"/>
      <use xlink:href="#DejaVuSans-69" x="136.572266"/>
      <use xlink:href="#DejaVuSans-76" x="164.355469"/>
      <use xlink:href="#DejaVuSans-65" x="223.535156"/>
      <use xlink:href="#DejaVuSans-72" x="285.058594"/>
      <use xlink:href="#DejaVuSans-73" x="326.171875"/>
      <use xlink:href="#DejaVuSans-69" x="378.271484"/>
      <use xlink:href="#DejaVuSans-74" x="406.054688"/>
      <use xlink:href="#DejaVuSans-79" x="445.263672"/>
      <use xlink:href="#DejaVuSans-20" x="504.443359"/>
      <use xlink:href="#DejaVuSans-6f" x="536.230469"/>
      <use xlink:href="#DejaVuSans-66" x="597.412109"/>
      <use xlink:href="#DejaVuSans-20" x="632.617188"/>
      <use xlink:href="#DejaVuSans-56" x="664.404297"/>
      <use xlink:href="#DejaVuSans-69" x="730.5625"/>
      <use xlink:href="#DejaVuSans-65" x="758.345703"/>
      <use xlink:href="#DejaVuSans-6e" x="819.869141"/>
      <use xlink:href="#DejaVuSans-6e" x="883.248047"/>
      <use xlink:href="#DejaVuSans-61" x="946.626953"/>
     </g>
    </g>
   </g>
   <g id="text_3">
    <g clip-path="url(#pf286227482)">
     <!-- University of Münster -->
     <g style="opacity: 0.7" transform="translate(626.295672 807.852661) scale(0.1 -0.1)">
      <defs>
       <path id="DejaVuSans-4d" d="M 628 4666 
L 1569 4666 
L 2759 1491 
L 3956 4666 
L 4897 4666 
L 4897 0 
L 4281 0 
L 4281 4097 
L 3078 897 
L 2444 897 
L 1241 4097 
L 1241 0 
L 628 0 
L 628 4666 
z
" transform="scale(0.015625)"/>
       <path id="DejaVuSans-fc" d="M 544 1381 
L 544 3500 
L 1119 3500 
L 1119 1403 
Q 1119 906 1312 657 
Q 1506 409 1894 409 
Q 2359 409 2629 706 
Q 2900 1003 2900 1516 
L 2900 3500 
L 3475 3500 
L 3475 0 
L 2900 0 
L 2900 538 
Q 2691 219 2414 64 
Q 2138 -91 1772 -91 
Q 1169 -91 856 284 
Q 544 659 544 1381 
z
M 1991 3584 
L 1991 3584 
z
M 2278 4850 
L 2912 4850 
L 2912 4219 
L 2278 4219 
L 2278 4850 
z
M 1056 4850 
L 1690 4850 
L 1690 4219 
L 1056 4219 
L 1056 4850 
z
" transform="scale(0.015625)"/>
      </defs>
      <use xlink:href="#DejaVuSans-55"/>
      <use xlink:href="#DejaVuSans-6e" x="73.193359"/>
      <use xlink:href="#DejaVuSans-69" x="136.572266"/>
      <use xlink:href="#DejaVuSans-76" x="164.355469"/>
      <use xlink:href="#DejaVuSans-65" x="223.535156"/>
      <use xlink:href="#DejaVuSans-72" x="285.058594"/>
      <use xlink:href="#DejaVuSans-73" x="326.171875"/>
      <use xlink:href="#DejaVuSans-69" x="378.271484"/>
      <use xlink:href="#DejaVuSans-74" x="406.054688"/>
      <use xlink:href="#DejaVuSans-79" x="445.263672"/>
      <use xlink:href="#DejaVuSans-20" x="504.443359"/>
      <use xlink:href="#DejaVuSans-6f" x="536.230469"/>
      <use xlink:href="#DejaVuSans-66" x="597.412109"/>
      <use xlink:href="#DejaVuSans-20" x="632.617188"/>
      <use xlink:href="#DejaVuSans-4d" x="664.404297"/>
      <use xlink:href="#DejaVuSans-fc" x="750.683594"/>
      <use xlink:href="#DejaVuSans-6e" x="814.0625"/>
      <use xlink:href="#DejaVuSans-73" x="877.441406"/>
      <use xlink:href="#DejaVuSans-74" x="929.541016"/>
      <use xlink:href="#DejaVuSans-65" x="968.75"/>
      <use xlink:href="#DejaVuSans-72" x="1030.273438"/>
     </g>
    </g>
   </g>
   <g id="text_4">
    <g clip-path="url(#pf286227482)">
     <!-- Q61066842 -->
     <g style="opacity: 0.7" transform="translate(779.182294 1369.787918) scale(0.1 -0.1)">
      <defs>
       <path id="DejaVuSans-51" d="M 2522 4238 
Q 1834 4238 1429 3725 
Q 1025 3213 1025 2328 
Q 1025 1447 1429 934 
Q 1834 422 2522 422 
Q 3209 422 3611 934 
Q 4013 1447 4013 2328 
Q 4013 3213 3611 3725 
Q 3209 4238 2522 4238 
z
M 3406 84 
L 4238 -825 
L 3475 -825 
L 2784 -78 
Q 2681 -84 2626 -87 
Q 2572 -91 2522 -91 
Q 1538 -91 948 567 
Q 359 1225 359 2328 
Q 359 3434 948 4092 
Q 1538 4750 2522 4750 
Q 3503 4750 4090 4092 
Q 4678 3434 4678 2328 
Q 4678 1516 4351 937 
Q 4025 359 3406 84 
z
" transform="scale(0.015625)"/>
       <path id="DejaVuSans-36" d="M 2113 2584 
Q 1688 2584 1439 2293 
Q 1191 2003 1191 1497 
Q 1191 994 1439 701 
Q 1688 409 2113 409 
Q 2538 409 2786 701 
Q 3034 994 3034 1497 
Q 3034 2003 2786 2293 
Q 2538 2584 2113 2584 
z
M 3366 4563 
L 3366 3988 
Q 3128 4100 2886 4159 
Q 2644 4219 2406 4219 
Q 1781 4219 1451 3797 
Q 1122 3375 1075 2522 
Q 1259 2794 1537 2939 
Q 1816 3084 2150 3084 
Q 2853 3084 3261 2657 
Q 3669 2231 3669 1497 
Q 3669 778 3244 343 
Q 2819 -91 2113 -91 
Q 1303 -91 875 529 
Q 447 1150 447 2328 
Q 447 3434 972 4092 
Q 1497 4750 2381 4750 
Q 2619 4750 2861 4703 
Q 3103 4656 3366 4563 
z
" transform="scale(0.015625)"/>
       <path id="DejaVuSans-31" d="M 794 531 
L 1825 531 
L 1825 4091 
L 703 3866 
L 703 4441 
L 1819 4666 
L 2450 4666 
L 2450 531 
L 3481 531 
L 3481 0 
L 794 0 
L 794 531 
z
" transform="scale(0.015625)"/>
       <path id="DejaVuSans-30" d="M 2034 4250 
Q 1547 4250 1301 3770 
Q 1056 3291 1056 2328 
Q 1056 1369 1301 889 
Q 1547 409 2034 409 
Q 2525 409 2770 889 
Q 3016 1369 3016 2328 
Q 3016 3291 2770 3770 
Q 2525 4250 2034 4250 
z
M 2034 4750 
Q 2819 4750 3233 4129 
Q 3647 3509 3647 2328 
Q 3647 1150 3233 529 
Q 2819 -91 2034 -91 
Q 1250 -91 836 529 
Q 422 1150 422 2328 
Q 422 3509 836 4129 
Q 1250 4750 2034 4750 
z
" transform="scale(0.015625)"/>
       <path id="DejaVuSans-38" d="M 2034 2216 
Q 1584 2216 1326 1975 
Q 1069 1734 1069 1313 
Q 1069 891 1326 650 
Q 1584 409 2034 409 
Q 2484 409 2743 651 
Q 3003 894 3003 1313 
Q 3003 1734 2745 1975 
Q 2488 2216 2034 2216 
z
M 1403 2484 
Q 997 2584 770 2862 
Q 544 3141 544 3541 
Q 544 4100 942 4425 
Q 1341 4750 2034 4750 
Q 2731 4750 3128 4425 
Q 3525 4100 3525 3541 
Q 3525 3141 3298 2862 
Q 3072 2584 2669 2484 
Q 3125 2378 3379 2068 
Q 3634 1759 3634 1313 
Q 3634 634 3220 271 
Q 2806 -91 2034 -91 
Q 1263 -91 848 271 
Q 434 634 434 1313 
Q 434 1759 690 2068 
Q 947 2378 1403 2484 
z
M 1172 3481 
Q 1172 3119 1398 2916 
Q 1625 2713 2034 2713 
Q 2441 2713 2670 2916 
Q 2900 3119 2900 3481 
Q 2900 3844 2670 4047 
Q 2441 4250 2034 4250 
Q 1625 4250 1398 4047 
Q 1172 3844 1172 3481 
z
" transform="scale(0.015625)"/>
       <path id="DejaVuSans-34" d="M 2419 4116 
L 825 1625 
L 2419 1625 
L 2419 4116 
z
M 2253 4666 
L 3047 4666 
L 3047 1625 
L 3713 1625 
L 3713 1100 
L 3047 1100 
L 3047 0 
L 2419 0 
L 2419 1100 
L 313 1100 
L 313 1709 
L 2253 4666 
z
" transform="scale(0.015625)"/>
       <path id="DejaVuSans-32" d="M 1228 531 
L 3431 531 
L 3431 0 
L 469 0 
L 469 531 
Q 828 903 1448 1529 
Q 2069 2156 2228 2338 
Q 2531 2678 2651 2914 
Q 2772 3150 2772 3378 
Q 2772 3750 2511 3984 
Q 2250 4219 1831 4219 
Q 1534 4219 1204 4116 
Q 875 4013 500 3803 
L 500 4441 
Q 881 4594 1212 4672 
Q 1544 4750 1819 4750 
Q 2544 4750 2975 4387 
Q 3406 4025 3406 3419 
Q 3406 3131 3298 2873 
Q 3191 2616 2906 2266 
Q 2828 2175 2409 1742 
Q 1991 1309 1228 531 
z
" transform="scale(0.015625)"/>
      </defs>
      <use xlink:href="#DejaVuSans-51"/>
      <use xlink:href="#DejaVuSans-36" x="78.710938"/>
      <use xlink:href="#DejaVuSans-31" x="142.333984"/>
      <use xlink:href="#DejaVuSans-30" x="205.957031"/>
      <use xlink:href="#DejaVuSans-36" x="269.580078"/>
      <use xlink:href="#DejaVuSans-36" x="333.203125"/>
      <use xlink:href="#DejaVuSans-38" x="396.826172"/>
      <use xlink:href="#DejaVuSans-34" x="460.449219"/>
      <use xlink:href="#DejaVuSans-32" x="524.072266"/>
     </g>
    </g>
   </g>
   <g id="text_5">
    <g clip-path="url(#pf286227482)">
     <!-- faculty of science, German University in Prague -->
     <g style="opacity: 0.7" transform="translate(1247.952761 757.526334) scale(0.1 -0.1)">
      <defs>
       <path id="DejaVuSans-6c" d="M 603 4863 
L 1178 4863 
L 1178 0 
L 603 0 
L 603 4863 
z
" transform="scale(0.015625)"/>
       <path id="DejaVuSans-2c" d="M 750 794 
L 1409 794 
L 1409 256 
L 897 -744 
L 494 -744 
L 750 256 
L 750 794 
z
" transform="scale(0.015625)"/>
       <path id="DejaVuSans-47" d="M 3809 666 
L 3809 1919 
L 2778 1919 
L 2778 2438 
L 4434 2438 
L 4434 434 
Q 4069 175 3628 42 
Q 3188 -91 2688 -91 
Q 1594 -91 976 548 
Q 359 1188 359 2328 
Q 359 3472 976 4111 
Q 1594 4750 2688 4750 
Q 3144 4750 3555 4637 
Q 3966 4525 4313 4306 
L 4313 3634 
Q 3963 3931 3569 4081 
Q 3175 4231 2741 4231 
Q 1884 4231 1454 3753 
Q 1025 3275 1025 2328 
Q 1025 1384 1454 906 
Q 1884 428 2741 428 
Q 3075 428 3337 486 
Q 3600 544 3809 666 
z
" transform="scale(0.015625)"/>
       <path id="DejaVuSans-6d" d="M 3328 2828 
Q 3544 3216 3844 3400 
Q 4144 3584 4550 3584 
Q 5097 3584 5394 3201 
Q 5691 2819 5691 2113 
L 5691 0 
L 5113 0 
L 5113 2094 
Q 5113 2597 4934 2840 
Q 4756 3084 4391 3084 
Q 3944 3084 3684 2787 
Q 3425 2491 3425 1978 
L 3425 0 
L 2847 0 
L 2847 2094 
Q 2847 2600 2669 2842 
Q 2491 3084 2119 3084 
Q 1678 3084 1418 2786 
Q 1159 2488 1159 1978 
L 1159 0 
L 581 0 
L 581 3500 
L 1159 3500 
L 1159 2956 
Q 1356 3278 1631 3431 
Q 1906 3584 2284 3584 
Q 2666 3584 2933 3390 
Q 3200 3197 3328 2828 
z
" transform="scale(0.015625)"/>
       <path id="DejaVuSans-50" d="M 1259 4147 
L 1259 2394 
L 2053 2394 
Q 2494 2394 2734 2622 
Q 2975 2850 2975 3272 
Q 2975 3691 2734 3919 
Q 2494 4147 2053 4147 
L 1259 4147 
z
M 628 4666 
L 2053 4666 
Q 2838 4666 3239 4311 
Q 3641 3956 3641 3272 
Q 3641 2581 3239 2228 
Q 2838 1875 2053 1875 
L 1259 1875 
L 1259 0 
L 628 0 
L 628 4666 
z
" transform="scale(0.015625)"/>
       <path id="DejaVuSans-67" d="M 2906 1791 
Q 2906 2416 2648 2759 
Q 2391 3103 1925 3103 
Q 1463 3103 1205 2759 
Q 947 2416 947 1791 
Q 947 1169 1205 825 
Q 1463 481 1925 481 
Q 2391 481 2648 825 
Q 2906 1169 2906 1791 
z
M 3481 434 
Q 3481 -459 3084 -895 
Q 2688 -1331 1869 -1331 
Q 1566 -1331 1297 -1286 
Q 1028 -1241 775 -1147 
L 775 -588 
Q 1028 -725 1275 -790 
Q 1522 -856 1778 -856 
Q 2344 -856 2625 -561 
Q 2906 -266 2906 331 
L 2906 616 
Q 2728 306 2450 153 
Q 2172 0 1784 0 
Q 1141 0 747 490 
Q 353 981 353 1791 
Q 353 2603 747 3093 
Q 1141 3584 1784 3584 
Q 2172 3584 2450 3431 
Q 2728 3278 2906 2969 
L 2906 3500 
L 3481 3500 
L 3481 434 
z
" transform="scale(0.015625)"/>
      </defs>
      <use xlink:href="#DejaVuSans-66"/>
      <use xlink:href="#DejaVuSans-61" x="35.205078"/>
      <use xlink:href="#DejaVuSans-63" x="96.484375"/>
      <use xlink:href="#DejaVuSans-75" x="151.464844"/>
      <use xlink:href="#DejaVuSans-6c" x="214.84375"/>
      <use xlink:href="#DejaVuSans-74" x="242.626953"/>
      <use xlink:href="#DejaVuSans-79" x="281.835938"/>
      <use xlink:href="#DejaVuSans-20" x="341.015625"/>
      <use xlink:href="#DejaVuSans-6f" x="372.802734"/>
      <use xlink:href="#DejaVuSans-66" x="433.984375"/>
      <use xlink:href="#DejaVuSans-20" x="469.189453"/>
      <use xlink:href="#DejaVuSans-73" x="500.976562"/>
      <use xlink:href="#DejaVuSans-63" x="553.076172"/>
      <use xlink:href="#DejaVuSans-69" x="608.056641"/>
      <use xlink:href="#DejaVuSans-65" x="635.839844"/>
      <use xlink:href="#DejaVuSans-6e" x="697.363281"/>
      <use xlink:href="#DejaVuSans-63" x="760.742188"/>
      <use xlink:href="#DejaVuSans-65" x="815.722656"/>
      <use xlink:href="#DejaVuSans-2c" x="877.246094"/>
      <use xlink:href="#DejaVuSans-20" x="909.033203"/>
      <use xlink:href="#DejaVuSans-47" x="940.820312"/>
      <use xlink:href="#DejaVuSans-65" x="1018.310547"/>
      <use xlink:href="#DejaVuSans-72" x="1079.833984"/>
      <use xlink:href="#DejaVuSans-6d" x="1119.197266"/>
      <use xlink:href="#DejaVuSans-61" x="1216.609375"/>
      <use xlink:href="#DejaVuSans-6e" x="1277.888672"/>
      <use xlink:href="#DejaVuSans-20" x="1341.267578"/>
      <use xlink:href="#DejaVuSans-55" x="1373.054688"/>
      <use xlink:href="#DejaVuSans-6e" x="1446.248047"/>
      <use xlink:href="#DejaVuSans-69" x="1509.626953"/>
      <use xlink:href="#DejaVuSans-76" x="1537.410156"/>
      <use xlink:href="#DejaVuSans-65" x="1596.589844"/>
      <use xlink:href="#DejaVuSans-72" x="1658.113281"/>
      <use xlink:href="#DejaVuSans-73" x="1699.226562"/>
      <use xlink:href="#DejaVuSans-69" x="1751.326172"/>
      <use xlink:href="#DejaVuSans-74" x="1779.109375"/>
      <use xlink:href="#DejaVuSans-79" x="1818.318359"/>
      <use xlink:href="#DejaVuSans-20" x="1877.498047"/>
      <use xlink:href="#DejaVuSans-69" x="1909.285156"/>
      <use xlink:href="#DejaVuSans-6e" x="1937.068359"/>
      <use xlink:href="#DejaVuSans-20" x="2000.447266"/>
      <use xlink:href="#DejaVuSans-50" x="2032.234375"/>
      <use xlink:href="#DejaVuSans-72" x="2090.787109"/>
      <use xlink:href="#DejaVuSans-61" x="2131.900391"/>
      <use xlink:href="#DejaVuSans-67" x="2193.179688"/>
      <use xlink:href="#DejaVuSans-75" x="2256.65625"/>
      <use xlink:href="#DejaVuSans-65" x="2320.035156"/>
     </g>
    </g>
   </g>
   <g id="text_6">
    <g clip-path="url(#pf286227482)">
     <!-- University of Basel -->
     <g style="opacity: 0.7" transform="translate(1063.395349 820.502383) scale(0.1 -0.1)">
      <defs>
       <path id="DejaVuSans-42" d="M 1259 2228 
L 1259 519 
L 2272 519 
Q 2781 519 3026 730 
Q 3272 941 3272 1375 
Q 3272 1813 3026 2020 
Q 2781 2228 2272 2228 
L 1259 2228 
z
M 1259 4147 
L 1259 2741 
L 2194 2741 
Q 2656 2741 2882 2914 
Q 3109 3088 3109 3444 
Q 3109 3797 2882 3972 
Q 2656 4147 2194 4147 
L 1259 4147 
z
M 628 4666 
L 2241 4666 
Q 2963 4666 3353 4366 
Q 3744 4066 3744 3513 
Q 3744 3084 3544 2831 
Q 3344 2578 2956 2516 
Q 3422 2416 3680 2098 
Q 3938 1781 3938 1306 
Q 3938 681 3513 340 
Q 3088 0 2303 0 
L 628 0 
L 628 4666 
z
" transform="scale(0.015625)"/>
      </defs>
      <use xlink:href="#DejaVuSans-55"/>
      <use xlink:href="#DejaVuSans-6e" x="73.193359"/>
      <use xlink:href="#DejaVuSans-69" x="136.572266"/>
      <use xlink:href="#DejaVuSans-76" x="164.355469"/>
      <use xlink:href="#DejaVuSans-65" x="223.535156"/>
      <use xlink:href="#DejaVuSans-72" x="285.058594"/>
      <use xlink:href="#DejaVuSans-73" x="326.171875"/>
      <use xlink:href="#DejaVuSans-69" x="378.271484"/>
      <use xlink:href="#DejaVuSans-74" x="406.054688"/>
      <use xlink:href="#DejaVuSans-79" x="445.263672"/>
      <use xlink:href="#DejaVuSans-20" x="504.443359"/>
      <use xlink:href="#DejaVuSans-6f" x="536.230469"/>
      <use xlink:href="#DejaVuSans-66" x="597.412109"/>
      <use xlink:href="#DejaVuSans-20" x="632.617188"/>
      <use xlink:href="#DejaVuSans-42" x="664.404297"/>
      <use xlink:href="#DejaVuSans-61" x="733.007812"/>
      <use xlink:href="#DejaVuSans-73" x="794.287109"/>
      <use xlink:href="#DejaVuSans-65" x="846.386719"/>
      <use xlink:href="#DejaVuSans-6c" x="907.910156"/>
     </g>
    </g>
   </g>
   <g id="text_7">
    <g clip-path="url(#pf286227482)">
     <!-- Ludwig-Maximilians-Universität München -->
     <g style="opacity: 0.7" transform="translate(667.435415 892.286628) scale(0.1 -0.1)">
      <defs>
       <path id="DejaVuSans-4c" d="M 628 4666 
L 1259 4666 
L 1259 531 
L 3531 531 
L 3531 0 
L 628 0 
L 628 4666 
z
" transform="scale(0.015625)"/>
       <path id="DejaVuSans-64" d="M 2906 2969 
L 2906 4863 
L 3481 4863 
L 3481 0 
L 2906 0 
L 2906 525 
Q 2725 213 2448 61 
Q 2172 -91 1784 -91 
Q 1150 -91 751 415 
Q 353 922 353 1747 
Q 353 2572 751 3078 
Q 1150 3584 1784 3584 
Q 2172 3584 2448 3432 
Q 2725 3281 2906 2969 
z
M 947 1747 
Q 947 1113 1208 752 
Q 1469 391 1925 391 
Q 2381 391 2643 752 
Q 2906 1113 2906 1747 
Q 2906 2381 2643 2742 
Q 2381 3103 1925 3103 
Q 1469 3103 1208 2742 
Q 947 2381 947 1747 
z
" transform="scale(0.015625)"/>
       <path id="DejaVuSans-77" d="M 269 3500 
L 844 3500 
L 1563 769 
L 2278 3500 
L 2956 3500 
L 3675 769 
L 4391 3500 
L 4966 3500 
L 4050 0 
L 3372 0 
L 2619 2869 
L 1863 0 
L 1184 0 
L 269 3500 
z
" transform="scale(0.015625)"/>
       <path id="DejaVuSans-2d" d="M 313 2009 
L 1997 2009 
L 1997 1497 
L 313 1497 
L 313 2009 
z
" transform="scale(0.015625)"/>
       <path id="DejaVuSans-78" d="M 3513 3500 
L 2247 1797 
L 3578 0 
L 2900 0 
L 1881 1375 
L 863 0 
L 184 0 
L 1544 1831 
L 300 3500 
L 978 3500 
L 1906 2253 
L 2834 3500 
L 3513 3500 
z
" transform="scale(0.015625)"/>
       <path id="DejaVuSans-e4" d="M 2194 1759 
Q 1497 1759 1228 1600 
Q 959 1441 959 1056 
Q 959 750 1161 570 
Q 1363 391 1709 391 
Q 2188 391 2477 730 
Q 2766 1069 2766 1631 
L 2766 1759 
L 2194 1759 
z
M 3341 1997 
L 3341 0 
L 2766 0 
L 2766 531 
Q 2569 213 2275 61 
Q 1981 -91 1556 -91 
Q 1019 -91 701 211 
Q 384 513 384 1019 
Q 384 1609 779 1909 
Q 1175 2209 1959 2209 
L 2766 2209 
L 2766 2266 
Q 2766 2663 2505 2880 
Q 2244 3097 1772 3097 
Q 1472 3097 1187 3025 
Q 903 2953 641 2809 
L 641 3341 
Q 956 3463 1253 3523 
Q 1550 3584 1831 3584 
Q 2591 3584 2966 3190 
Q 3341 2797 3341 1997 
z
M 2150 4850 
L 2784 4850 
L 2784 4219 
L 2150 4219 
L 2150 4850 
z
M 928 4850 
L 1562 4850 
L 1562 4219 
L 928 4219 
L 928 4850 
z
" transform="scale(0.015625)"/>
       <path id="DejaVuSans-68" d="M 3513 2113 
L 3513 0 
L 2938 0 
L 2938 2094 
Q 2938 2591 2744 2837 
Q 2550 3084 2163 3084 
Q 1697 3084 1428 2787 
Q 1159 2491 1159 1978 
L 1159 0 
L 581 0 
L 581 4863 
L 1159 4863 
L 1159 2956 
Q 1366 3272 1645 3428 
Q 1925 3584 2291 3584 
Q 2894 3584 3203 3211 
Q 3513 2838 3513 2113 
z
" transform="scale(0.015625)"/>
      </defs>
      <use xlink:href="#DejaVuSans-4c"/>
      <use xlink:href="#DejaVuSans-75" x="53.962891"/>
      <use xlink:href="#DejaVuSans-64" x="117.341797"/>
      <use xlink:href="#DejaVuSans-77" x="180.818359"/>
      <use xlink:href="#DejaVuSans-69" x="262.605469"/>
      <use xlink:href="#DejaVuSans-67" x="290.388672"/>
      <use xlink:href="#DejaVuSans-2d" x="353.865234"/>
      <use xlink:href="#DejaVuSans-4d" x="389.949219"/>
      <use xlink:href="#DejaVuSans-61" x="476.228516"/>
      <use xlink:href="#DejaVuSans-78" x="537.507812"/>
      <use xlink:href="#DejaVuSans-69" x="596.6875"/>
      <use xlink:href="#DejaVuSans-6d" x="624.470703"/>
      <use xlink:href="#DejaVuSans-69" x="721.882812"/>
      <use xlink:href="#DejaVuSans-6c" x="749.666016"/>
      <use xlink:href="#DejaVuSans-69" x="777.449219"/>
      <use xlink:href="#DejaVuSans-61" x="805.232422"/>
      <use xlink:href="#DejaVuSans-6e" x="866.511719"/>
      <use xlink:href="#DejaVuSans-73" x="929.890625"/>
      <use xlink:href="#DejaVuSans-2d" x="981.990234"/>
      <use xlink:href="#DejaVuSans-55" x="1018.074219"/>
      <use xlink:href="#DejaVuSans-6e" x="1091.267578"/>
      <use xlink:href="#DejaVuSans-69" x="1154.646484"/>
      <use xlink:href="#DejaVuSans-76" x="1182.429688"/>
      <use xlink:href="#DejaVuSans-65" x="1241.609375"/>
      <use xlink:href="#DejaVuSans-72" x="1303.132812"/>
      <use xlink:href="#DejaVuSans-73" x="1344.246094"/>
      <use xlink:href="#DejaVuSans-69" x="1396.345703"/>
      <use xlink:href="#DejaVuSans-74" x="1424.128906"/>
      <use xlink:href="#DejaVuSans-e4" x="1463.337891"/>
      <use xlink:href="#DejaVuSans-74" x="1524.617188"/>
      <use xlink:href="#DejaVuSans-20" x="1563.826172"/>
      <use xlink:href="#DejaVuSans-4d" x="1595.613281"/>
      <use xlink:href="#DejaVuSans-fc" x="1681.892578"/>
      <use xlink:href="#DejaVuSans-6e" x="1745.271484"/>
      <use xlink:href="#DejaVuSans-63" x="1808.650391"/>
      <use xlink:href="#DejaVuSans-68" x="1863.630859"/>
      <use xlink:href="#DejaVuSans-65" x="1927.009766"/>
      <use xlink:href="#DejaVuSans-6e" x="1988.533203"/>
     </g>
    </g>
   </g>
   <g id="text_8">
    <g clip-path="url(#pf286227482)">
     <!-- Faculty of Law, German University in Prague -->
     <g style="opacity: 0.7" transform="translate(1191.279381 675.64444) scale(0.1 -0.1)">
      <defs>
       <path id="DejaVuSans-46" d="M 628 4666 
L 3309 4666 
L 3309 4134 
L 1259 4134 
L 1259 2759 
L 3109 2759 
L 3109 2228 
L 1259 2228 
L 1259 0 
L 628 0 
L 628 4666 
z
" transform="scale(0.015625)"/>
      </defs>
      <use xlink:href="#DejaVuSans-46"/>
      <use xlink:href="#DejaVuSans-61" x="48.394531"/>
      <use xlink:href="#DejaVuSans-63" x="109.673828"/>
      <use xlink:href="#DejaVuSans-75" x="164.654297"/>
      <use xlink:href="#DejaVuSans-6c" x="228.033203"/>
      <use xlink:href="#DejaVuSans-74" x="255.816406"/>
      <use xlink:href="#DejaVuSans-79" x="295.025391"/>
      <use xlink:href="#DejaVuSans-20" x="354.205078"/>
      <use xlink:href="#DejaVuSans-6f" x="385.992188"/>
      <use xlink:href="#DejaVuSans-66" x="447.173828"/>
      <use xlink:href="#DejaVuSans-20" x="482.378906"/>
      <use xlink:href="#DejaVuSans-4c" x="514.166016"/>
      <use xlink:href="#DejaVuSans-61" x="569.878906"/>
      <use xlink:href="#DejaVuSans-77" x="631.158203"/>
      <use xlink:href="#DejaVuSans-2c" x="712.945312"/>
      <use xlink:href="#DejaVuSans-20" x="744.732422"/>
      <use xlink:href="#DejaVuSans-47" x="776.519531"/>
      <use xlink:href="#DejaVuSans-65" x="854.009766"/>
      <use xlink:href="#DejaVuSans-72" x="915.533203"/>
      <use xlink:href="#DejaVuSans-6d" x="954.896484"/>
      <use xlink:href="#DejaVuSans-61" x="1052.308594"/>
      <use xlink:href="#DejaVuSans-6e" x="1113.587891"/>
      <use xlink:href="#DejaVuSans-20" x="1176.966797"/>
      <use xlink:href="#DejaVuSans-55" x="1208.753906"/>
      <use xlink:href="#DejaVuSans-6e" x="1281.947266"/>
      <use xlink:href="#DejaVuSans-69" x="1345.326172"/>
      <use xlink:href="#DejaVuSans-76" x="1373.109375"/>
      <use xlink:href="#DejaVuSans-65" x="1432.289062"/>
      <use xlink:href="#DejaVuSans-72" x="1493.8125"/>
      <use xlink:href="#DejaVuSans-73" x="1534.925781"/>
      <use xlink:href="#DejaVuSans-69" x="1587.025391"/>
      <use xlink:href="#DejaVuSans-74" x="1614.808594"/>
      <use xlink:href="#DejaVuSans-79" x="1654.017578"/>
      <use xlink:href="#DejaVuSans-20" x="1713.197266"/>
      <use xlink:href="#DejaVuSans-69" x="1744.984375"/>
      <use xlink:href="#DejaVuSans-6e" x="1772.767578"/>
      <use xlink:href="#DejaVuSans-20" x="1836.146484"/>
      <use xlink:href="#DejaVuSans-50" x="1867.933594"/>
      <use xlink:href="#DejaVuSans-72" x="1926.486328"/>
      <use xlink:href="#DejaVuSans-61" x="1967.599609"/>
      <use xlink:href="#DejaVuSans-67" x="2028.878906"/>
      <use xlink:href="#DejaVuSans-75" x="2092.355469"/>
      <use xlink:href="#DejaVuSans-65" x="2155.734375"/>
     </g>
    </g>
   </g>
   <g id="text_9">
    <g clip-path="url(#pf286227482)">
     <!-- University of Greifswald -->
     <g style="opacity: 0.7" transform="translate(894.926363 1004.897507) scale(0.1 -0.1)">
      <use xlink:href="#DejaVuSans-55"/>
      <use xlink:href="#DejaVuSans-6e" x="73.193359"/>
      <use xlink:href="#DejaVuSans-69" x="136.572266"/>
      <use xlink:href="#DejaVuSans-76" x="164.355469"/>
      <use xlink:href="#DejaVuSans-65" x="223.535156"/>
      <use xlink:href="#DejaVuSans-72" x="285.058594"/>
      <use xlink:href="#DejaVuSans-73" x="326.171875"/>
      <use xlink:href="#DejaVuSans-69" x="378.271484"/>
      <use xlink:href="#DejaVuSans-74" x="406.054688"/>
      <use xlink:href="#DejaVuSans-79" x="445.263672"/>
      <use xlink:href="#DejaVuSans-20" x="504.443359"/>
      <use xlink:href="#DejaVuSans-6f" x="536.230469"/>
      <use xlink:href="#DejaVuSans-66" x="597.412109"/>
      <use xlink:href="#DejaVuSans-20" x="632.617188"/>
      <use xlink:href="#DejaVuSans-47" x="664.404297"/>
      <use xlink:href="#DejaVuSans-72" x="741.894531"/>
      <use xlink:href="#DejaVuSans-65" x="780.757812"/>
      <use xlink:href="#DejaVuSans-69" x="842.28125"/>
      <use xlink:href="#DejaVuSans-66" x="870.064453"/>
      <use xlink:href="#DejaVuSans-73" x="905.269531"/>
      <use xlink:href="#DejaVuSans-77" x="957.369141"/>
      <use xlink:href="#DejaVuSans-61" x="1039.15625"/>
      <use xlink:href="#DejaVuSans-6c" x="1100.435547"/>
      <use xlink:href="#DejaVuSans-64" x="1128.21875"/>
     </g>
    </g>
   </g>
   <g id="text_10">
    <g clip-path="url(#pf286227482)">
     <!-- philosophy faculty of the German university of Prague -->
     <g style="opacity: 0.7" transform="translate(1120.364136 748.854274) scale(0.1 -0.1)">
      <defs>
       <path id="DejaVuSans-70" d="M 1159 525 
L 1159 -1331 
L 581 -1331 
L 581 3500 
L 1159 3500 
L 1159 2969 
Q 1341 3281 1617 3432 
Q 1894 3584 2278 3584 
Q 2916 3584 3314 3078 
Q 3713 2572 3713 1747 
Q 3713 922 3314 415 
Q 2916 -91 2278 -91 
Q 1894 -91 1617 61 
Q 1341 213 1159 525 
z
M 3116 1747 
Q 3116 2381 2855 2742 
Q 2594 3103 2138 3103 
Q 1681 3103 1420 2742 
Q 1159 2381 1159 1747 
Q 1159 1113 1420 752 
Q 1681 391 2138 391 
Q 2594 391 2855 752 
Q 3116 1113 3116 1747 
z
" transform="scale(0.015625)"/>
      </defs>
      <use xlink:href="#DejaVuSans-70"/>
      <use xlink:href="#DejaVuSans-68" x="63.476562"/>
      <use xlink:href="#DejaVuSans-69" x="126.855469"/>
      <use xlink:href="#DejaVuSans-6c" x="154.638672"/>
      <use xlink:href="#DejaVuSans-6f" x="182.421875"/>
      <use xlink:href="#DejaVuSans-73" x="243.603516"/>
      <use xlink:href="#DejaVuSans-6f" x="295.703125"/>
      <use xlink:href="#DejaVuSans-70" x="356.884766"/>
      <use xlink:href="#DejaVuSans-68" x="420.361328"/>
      <use xlink:href="#DejaVuSans-79" x="483.740234"/>
      <use xlink:href="#DejaVuSans-20" x="542.919922"/>
      <use xlink:href="#DejaVuSans-66" x="574.707031"/>
      <use xlink:href="#DejaVuSans-61" x="609.912109"/>
      <use xlink:href="#DejaVuSans-63" x="671.191406"/>
      <use xlink:href="#DejaVuSans-75" x="726.171875"/>
      <use xlink:href="#DejaVuSans-6c" x="789.550781"/>
      <use xlink:href="#DejaVuSans-74" x="817.333984"/>
      <use xlink:href="#DejaVuSans-79" x="856.542969"/>
      <use xlink:href="#DejaVuSans-20" x="915.722656"/>
      <use xlink:href="#DejaVuSans-6f" x="947.509766"/>
      <use xlink:href="#DejaVuSans-66" x="1008.691406"/>
      <use xlink:href="#DejaVuSans-20" x="1043.896484"/>
      <use xlink:href="#DejaVuSans-74" x="1075.683594"/>
      <use xlink:href="#DejaVuSans-68" x="1114.892578"/>
      <use xlink:href="#DejaVuSans-65" x="1178.271484"/>
      <use xlink:href="#DejaVuSans-20" x="1239.794922"/>
      <use xlink:href="#DejaVuSans-47" x="1271.582031"/>
      <use xlink:href="#DejaVuSans-65" x="1349.072266"/>
      <use xlink:href="#DejaVuSans-72" x="1410.595703"/>
      <use xlink:href="#DejaVuSans-6d" x="1449.958984"/>
      <use xlink:href="#DejaVuSans-61" x="1547.371094"/>
      <use xlink:href="#DejaVuSans-6e" x="1608.650391"/>
      <use xlink:href="#DejaVuSans-20" x="1672.029297"/>
      <use xlink:href="#DejaVuSans-75" x="1703.816406"/>
      <use xlink:href="#DejaVuSans-6e" x="1767.195312"/>
      <use xlink:href="#DejaVuSans-69" x="1830.574219"/>
      <use xlink:href="#DejaVuSans-76" x="1858.357422"/>
      <use xlink:href="#DejaVuSans-65" x="1917.537109"/>
      <use xlink:href="#DejaVuSans-72" x="1979.060547"/>
      <use xlink:href="#DejaVuSans-73" x="2020.173828"/>
      <use xlink:href="#DejaVuSans-69" x="2072.273438"/>
      <use xlink:href="#DejaVuSans-74" x="2100.056641"/>
      <use xlink:href="#DejaVuSans-79" x="2139.265625"/>
      <use xlink:href="#DejaVuSans-20" x="2198.445312"/>
      <use xlink:href="#DejaVuSans-6f" x="2230.232422"/>
      <use xlink:href="#DejaVuSans-66" x="2291.414062"/>
      <use xlink:href="#DejaVuSans-20" x="2326.619141"/>
      <use xlink:href="#DejaVuSans-50" x="2358.40625"/>
      <use xlink:href="#DejaVuSans-72" x="2416.958984"/>
      <use xlink:href="#DejaVuSans-61" x="2458.072266"/>
      <use xlink:href="#DejaVuSans-67" x="2519.351562"/>
      <use xlink:href="#DejaVuSans-75" x="2582.828125"/>
      <use xlink:href="#DejaVuSans-65" x="2646.207031"/>
     </g>
    </g>
   </g>
   <g id="text_11">
    <g clip-path="url(#pf286227482)">
     <!-- Lviv University -->
     <g style="opacity: 0.7" transform="translate(832.093915 1306.047043) scale(0.1 -0.1)">
      <use xlink:href="#DejaVuSans-4c"/>
      <use xlink:href="#DejaVuSans-76" x="55.712891"/>
      <use xlink:href="#DejaVuSans-69" x="114.892578"/>
      <use xlink:href="#DejaVuSans-76" x="142.675781"/>
      <use xlink:href="#DejaVuSans-20" x="201.855469"/>
      <use xlink:href="#DejaVuSans-55" x="233.642578"/>
      <use xlink:href="#DejaVuSans-6e" x="306.835938"/>
      <use xlink:href="#DejaVuSans-69" x="370.214844"/>
      <use xlink:href="#DejaVuSans-76" x="397.998047"/>
      <use xlink:href="#DejaVuSans-65" x="457.177734"/>
      <use xlink:href="#DejaVuSans-72" x="518.701172"/>
      <use xlink:href="#DejaVuSans-73" x="559.814453"/>
      <use xlink:href="#DejaVuSans-69" x="611.914062"/>
      <use xlink:href="#DejaVuSans-74" x="639.697266"/>
      <use xlink:href="#DejaVuSans-79" x="678.90625"/>
     </g>
    </g>
   </g>
   <g id="text_12">
    <g clip-path="url(#pf286227482)">
     <!-- Heidelberg University -->
     <g style="opacity: 0.7" transform="translate(804.931776 919.656016) scale(0.1 -0.1)">
      <defs>
       <path id="DejaVuSans-48" d="M 628 4666 
L 1259 4666 
L 1259 2753 
L 3553 2753 
L 3553 4666 
L 4184 4666 
L 4184 0 
L 3553 0 
L 3553 2222 
L 1259 2222 
L 1259 0 
L 628 0 
L 628 4666 
z
" transform="scale(0.015625)"/>
      </defs>
      <use xlink:href="#DejaVuSans-48"/>
      <use xlink:href="#DejaVuSans-65" x="75.195312"/>
      <use xlink:href="#DejaVuSans-69" x="136.71875"/>
      <use xlink:href="#DejaVuSans-64" x="164.501953"/>
      <use xlink:href="#DejaVuSans-65" x="227.978516"/>
      <use xlink:href="#DejaVuSans-6c" x="289.501953"/>
      <use xlink:href="#DejaVuSans-62" x="317.285156"/>
      <use xlink:href="#DejaVuSans-65" x="380.761719"/>
      <use xlink:href="#DejaVuSans-72" x="442.285156"/>
      <use xlink:href="#DejaVuSans-67" x="481.648438"/>
      <use xlink:href="#DejaVuSans-20" x="545.125"/>
      <use xlink:href="#DejaVuSans-55" x="576.912109"/>
      <use xlink:href="#DejaVuSans-6e" x="650.105469"/>
      <use xlink:href="#DejaVuSans-69" x="713.484375"/>
      <use xlink:href="#DejaVuSans-76" x="741.267578"/>
      <use xlink:href="#DejaVuSans-65" x="800.447266"/>
      <use xlink:href="#DejaVuSans-72" x="861.970703"/>
      <use xlink:href="#DejaVuSans-73" x="903.083984"/>
      <use xlink:href="#DejaVuSans-69" x="955.183594"/>
      <use xlink:href="#DejaVuSans-74" x="982.966797"/>
      <use xlink:href="#DejaVuSans-79" x="1022.175781"/>
     </g>
    </g>
   </g>
   <g id="text_13">
    <g clip-path="url(#pf286227482)">
     <!-- University of Göttingen -->
     <g style="opacity: 0.7" transform="translate(903.896457 913.301488) scale(0.1 -0.1)">
      <defs>
       <path id="DejaVuSans-f6" d="M 1959 3097 
Q 1497 3097 1228 2736 
Q 959 2375 959 1747 
Q 959 1119 1226 758 
Q 1494 397 1959 397 
Q 2419 397 2687 759 
Q 2956 1122 2956 1747 
Q 2956 2369 2687 2733 
Q 2419 3097 1959 3097 
z
M 1959 3584 
Q 2709 3584 3137 3096 
Q 3566 2609 3566 1747 
Q 3566 888 3137 398 
Q 2709 -91 1959 -91 
Q 1206 -91 779 398 
Q 353 888 353 1747 
Q 353 2609 779 3096 
Q 1206 3584 1959 3584 
z
M 2254 4850 
L 2888 4850 
L 2888 4219 
L 2254 4219 
L 2254 4850 
z
M 1032 4850 
L 1666 4850 
L 1666 4219 
L 1032 4219 
L 1032 4850 
z
" transform="scale(0.015625)"/>
      </defs>
      <use xlink:href="#DejaVuSans-55"/>
      <use xlink:href="#DejaVuSans-6e" x="73.193359"/>
      <use xlink:href="#DejaVuSans-69" x="136.572266"/>
      <use xlink:href="#DejaVuSans-76" x="164.355469"/>
      <use xlink:href="#DejaVuSans-65" x="223.535156"/>
      <use xlink:href="#DejaVuSans-72" x="285.058594"/>
      <use xlink:href="#DejaVuSans-73" x="326.171875"/>
      <use xlink:href="#DejaVuSans-69" x="378.271484"/>
      <use xlink:href="#DejaVuSans-74" x="406.054688"/>
      <use xlink:href="#DejaVuSans-79" x="445.263672"/>
      <use xlink:href="#DejaVuSans-20" x="504.443359"/>
      <use xlink:href="#DejaVuSans-6f" x="536.230469"/>
      <use xlink:href="#DejaVuSans-66" x="597.412109"/>
      <use xlink:href="#DejaVuSans-20" x="632.617188"/>
      <use xlink:href="#DejaVuSans-47" x="664.404297"/>
      <use xlink:href="#DejaVuSans-f6" x="741.894531"/>
      <use xlink:href="#DejaVuSans-74" x="803.076172"/>
      <use xlink:href="#DejaVuSans-74" x="842.285156"/>
      <use xlink:href="#DejaVuSans-69" x="881.494141"/>
      <use xlink:href="#DejaVuSans-6e" x="909.277344"/>
      <use xlink:href="#DejaVuSans-67" x="972.65625"/>
      <use xlink:href="#DejaVuSans-65" x="1036.132812"/>
      <use xlink:href="#DejaVuSans-6e" x="1097.65625"/>
     </g>
    </g>
   </g>
   <g id="text_14">
    <g clip-path="url(#pf286227482)">
     <!-- Leipzig University -->
     <g style="opacity: 0.7" transform="translate(819.370947 1006.484773) scale(0.1 -0.1)">
      <defs>
       <path id="DejaVuSans-7a" d="M 353 3500 
L 3084 3500 
L 3084 2975 
L 922 459 
L 3084 459 
L 3084 0 
L 275 0 
L 275 525 
L 2438 3041 
L 353 3041 
L 353 3500 
z
" transform="scale(0.015625)"/>
      </defs>
      <use xlink:href="#DejaVuSans-4c"/>
      <use xlink:href="#DejaVuSans-65" x="53.962891"/>
      <use xlink:href="#DejaVuSans-69" x="115.486328"/>
      <use xlink:href="#DejaVuSans-70" x="143.269531"/>
      <use xlink:href="#DejaVuSans-7a" x="206.746094"/>
      <use xlink:href="#DejaVuSans-69" x="259.236328"/>
      <use xlink:href="#DejaVuSans-67" x="287.019531"/>
      <use xlink:href="#DejaVuSans-20" x="350.496094"/>
      <use xlink:href="#DejaVuSans-55" x="382.283203"/>
      <use xlink:href="#DejaVuSans-6e" x="455.476562"/>
      <use xlink:href="#DejaVuSans-69" x="518.855469"/>
      <use xlink:href="#DejaVuSans-76" x="546.638672"/>
      <use xlink:href="#DejaVuSans-65" x="605.818359"/>
      <use xlink:href="#DejaVuSans-72" x="667.341797"/>
      <use xlink:href="#DejaVuSans-73" x="708.455078"/>
      <use xlink:href="#DejaVuSans-69" x="760.554688"/>
      <use xlink:href="#DejaVuSans-74" x="788.337891"/>
      <use xlink:href="#DejaVuSans-79" x="827.546875"/>
     </g>
    </g>
   </g>
   <g id="text_15">
    <g clip-path="url(#pf286227482)">
     <!-- University of Marburg -->
     <g style="opacity: 0.7" transform="translate(620.474044 1285.732407) scale(0.1 -0.1)">
      <use xlink:href="#DejaVuSans-55"/>
      <use xlink:href="#DejaVuSans-6e" x="73.193359"/>
      <use xlink:href="#DejaVuSans-69" x="136.572266"/>
      <use xlink:href="#DejaVuSans-76" x="164.355469"/>
      <use xlink:href="#DejaVuSans-65" x="223.535156"/>
      <use xlink:href="#DejaVuSans-72" x="285.058594"/>
      <use xlink:href="#DejaVuSans-73" x="326.171875"/>
      <use xlink:href="#DejaVuSans-69" x="378.271484"/>
      <use xlink:href="#DejaVuSans-74" x="406.054688"/>
      <use xlink:href="#DejaVuSans-79" x="445.263672"/>
      <use xlink:href="#DejaVuSans-20" x="504.443359"/>
      <use xlink:href="#DejaVuSans-6f" x="536.230469"/>
      <use xlink:href="#DejaVuSans-66" x="597.412109"/>
      <use xlink:href="#DejaVuSans-20" x="632.617188"/>
      <use xlink:href="#DejaVuSans-4d" x="664.404297"/>
      <use xlink:href="#DejaVuSans-61" x="750.683594"/>
      <use xlink:href="#DejaVuSans-72" x="811.962891"/>
      <use xlink:href="#DejaVuSans-62" x="853.076172"/>
      <use xlink:href="#DejaVuSans-75" x="916.552734"/>
      <use xlink:href="#DejaVuSans-72" x="979.931641"/>
      <use xlink:href="#DejaVuSans-67" x="1019.294922"/>
     </g>
    </g>
   </g>
   <g id="text_16">
    <g clip-path="url(#pf286227482)">
     <!-- University of Lausanne -->
     <g style="opacity: 0.7" transform="translate(975.872219 818.220073) scale(0.1 -0.1)">
      <use xlink:href="#DejaVuSans-55"/>
      <use xlink:href="#DejaVuSans-6e" x="73.193359"/>
      <use xlink:href="#DejaVuSans-69" x="136.572266"/>
      <use xlink:href="#DejaVuSans-76" x="164.355469"/>
      <use xlink:href="#DejaVuSans-65" x="223.535156"/>
      <use xlink:href="#DejaVuSans-72" x="285.058594"/>
      <use xlink:href="#DejaVuSans-73" x="326.171875"/>
      <use xlink:href="#DejaVuSans-69" x="378.271484"/>
      <use xlink:href="#DejaVuSans-74" x="406.054688"/>
      <use xlink:href="#DejaVuSans-79" x="445.263672"/>
      <use xlink:href="#DejaVuSans-20" x="504.443359"/>
      <use xlink:href="#DejaVuSans-6f" x="536.230469"/>
      <use xlink:href="#DejaVuSans-66" x="597.412109"/>
      <use xlink:href="#DejaVuSans-20" x="632.617188"/>
      <use xlink:href="#DejaVuSans-4c" x="664.404297"/>
      <use xlink:href="#DejaVuSans-61" x="720.117188"/>
      <use xlink:href="#DejaVuSans-75" x="781.396484"/>
      <use xlink:href="#DejaVuSans-73" x="844.775391"/>
      <use xlink:href="#DejaVuSans-61" x="896.875"/>
      <use xlink:href="#DejaVuSans-6e" x="958.154297"/>
      <use xlink:href="#DejaVuSans-6e" x="1021.533203"/>
      <use xlink:href="#DejaVuSans-65" x="1084.912109"/>
     </g>
    </g>
   </g>
   <g id="text_17">
    <g clip-path="url(#pf286227482)">
     <!-- University of Tübingen -->
     <g style="opacity: 0.7" transform="translate(616.978815 1220.971897) scale(0.1 -0.1)">
      <defs>
       <path id="DejaVuSans-54" d="M -19 4666 
L 3928 4666 
L 3928 4134 
L 2272 4134 
L 2272 0 
L 1638 0 
L 1638 4134 
L -19 4134 
L -19 4666 
z
" transform="scale(0.015625)"/>
      </defs>
      <use xlink:href="#DejaVuSans-55"/>
      <use xlink:href="#DejaVuSans-6e" x="73.193359"/>
      <use xlink:href="#DejaVuSans-69" x="136.572266"/>
      <use xlink:href="#DejaVuSans-76" x="164.355469"/>
      <use xlink:href="#DejaVuSans-65" x="223.535156"/>
      <use xlink:href="#DejaVuSans-72" x="285.058594"/>
      <use xlink:href="#DejaVuSans-73" x="326.171875"/>
      <use xlink:href="#DejaVuSans-69" x="378.271484"/>
      <use xlink:href="#DejaVuSans-74" x="406.054688"/>
      <use xlink:href="#DejaVuSans-79" x="445.263672"/>
      <use xlink:href="#DejaVuSans-20" x="504.443359"/>
      <use xlink:href="#DejaVuSans-6f" x="536.230469"/>
      <use xlink:href="#DejaVuSans-66" x="597.412109"/>
      <use xlink:href="#DejaVuSans-20" x="632.617188"/>
      <use xlink:href="#DejaVuSans-54" x="664.404297"/>
      <use xlink:href="#DejaVuSans-fc" x="711.738281"/>
      <use xlink:href="#DejaVuSans-62" x="775.117188"/>
      <use xlink:href="#DejaVuSans-69" x="838.59375"/>
      <use xlink:href="#DejaVuSans-6e" x="866.376953"/>
      <use xlink:href="#DejaVuSans-67" x="929.755859"/>
      <use xlink:href="#DejaVuSans-65" x="993.232422"/>
      <use xlink:href="#DejaVuSans-6e" x="1054.755859"/>
     </g>
    </g>
   </g>
  </g>
 </g>
 <defs>
  <clipPath id="pf286227482">
   <rect x="600" y="600" width="839.913608" height="839.913608"/>
  </clipPath>
 </defs>
</svg>
